<?xml version="1.0" encoding="utf-8"?>
<!-- Generator: Adobe Illustrator 24.1.3, SVG Export Plug-In . SVG Version: 6.00 Build 0)  -->
<svg version="1.1" id="Layer_1" xmlns="http://www.w3.org/2000/svg" xmlns:xlink="http://www.w3.org/1999/xlink" x="0px" y="0px"
	 viewBox="0 0 1895.1 1074.7" style="enable-background:new 0 0 1895.1 1074.7;" xml:space="preserve">
<style type="text/css">
	@import url("https://fonts.googleapis.com/css2?family=Permanent+Marker");
	.st0{fill:#FEFEFE;}
	.st1{fill:#2E2E2E;}
	.st2{fill:#E3C3D5;}
	.st3{fill:#F3CFE4;}
	.st4{fill:#AEAEAC;}
	.st5{fill:#2D2D2D;}
	.st6{fill:#2F2F2F;}
	.st7{fill:#FDFDFD;}
	.st8{fill:#FCFCFC;}
	.st9{fill:#FBFBFB;}
	.st10{fill:#ADADAB;}
	.st11{fill:#A19C11;}
	.st12{fill:#E55522;}
	.st13{fill:#323232;}
	.st14{fill:#EEE602;}
	.st15{fill:#9B4527;}
	.st16{fill:#F4A103;}
	.st17{fill:#A47312;}
	.st18{fill:#ACACAA;}
	.st19{fill:#AEADAB;}
	.st20{fill:#F9F9F8;}
	.st21{fill:#3A3A3A;}
	.st22{fill:#3E3E3E;}
	.st23{fill:#B1B1AF;}
	.st24{fill:#CECCCB;}
	.st25{fill:#DEDEDD;}
	.st26{fill:#4F4F4F;}
	.st27{fill:#818180;}
	.st28{fill:#EDEDEC;}
	.st29{fill:#525251;}
	.st30{fill:#F2F2F0;}
	.st31{fill:#A9A9A8;}
	.st32{fill:#545454;}
	.st33{fill:#5F5F5E;}
	.st34{fill:#B0B0AF;}
	.st35{fill:#8C8C8B;}
	.st36{fill:#D67553;}
	.st37{fill:#925540;}
	.st38{fill:#D9734F;}
	.st39{fill:#484847;}
	.st40{fill:#8B8B8A;}
	.st41{fill:#F2CEE3;}
	.st42{fill:#EFE701;}
	.st43{fill:#F5A101;}
	.st44{fill:#313131;}
	.st45{fill:#A67311;}
	.st46{fill:#994729;}
	.st47{fill:#984629;}
	.st48{fill:#A38D99;}
	.st49{fill:#EFCCE0;}
	.st50{fill:#FAFAF9;}
	.st51{fill:#EFCCE1;}
	.st52{fill:#FBF8F9;}
	.st53{fill:#A57416;}
	.st54{fill:#EBCBDD;}
	.st55{fill:#9F8B96;}
	.st56{fill:#ECEBEB;}
	.st57{fill:#95828D;}
	.st58{fill:#EBEBEB;}
	.st59{fill:#FBF5F8;}
	.st60{fill:#BCA2B0;}
	.st61{fill:#828281;}
	.st62{fill:#AE553A;}
	.st63{fill:#F4F2F2;}
	.st64{fill:#A9A9A7;}
	.st65{fill:#F1EBED;}
	.st66{fill:#303030;}
	.st67{fill:#333333;}
	.st68{fill:#383838;}
	.st69{fill:#353535;}
	.st70{fill:#373737;}
	.st71{fill:#454545;}
	.st72{fill:#C5C5C3;}
	.st73{fill:#4E4E4D;}
	.st74{fill:#E3E3E0;}
	.st75{fill:#636362;}
	.st76{fill:#353534;}
	.st77{fill:#343434;}
	.st78{fill:#A48D9A;}
	.st79{fill:#FAFAFA;}
	.st80{fill:#363636;}
	.st81{fill:#555555;}
	.st82{fill:#DADAD8;}
	.st83{fill:#444443;}
	.st84{fill:#F1F1F0;}
	.st85{fill:#F0F0EF;}
	.st86{fill:#FCFCFB;}
	.st87{fill:#313031;}
	.st88{fill:#BFBFBD;}
	.st89{fill:#343433;}
	.st90{fill:#666665;}
	.st91{fill:#4A4A4A;}
	.st92{fill:#70706E;}
	.st93{fill:#EEEEED;}
	.st94{fill:#9F9F9D;}
	.st95{fill:#CDCDCC;}
	.st96{fill:#EBEBEA;}
	.st97{fill:#FBFBFA;}
	.st98{fill:#F7F7F7;}
	.st99{fill:#EFEFED;}
	.st100{fill:#AFAFAD;}
	.st101{fill:#F0F0EE;}
	.st102{fill:#F6F6F6;}
	.st103{fill:#F8F8F7;}
	.st104{opacity:0.39;}
	.st105{stroke:#000000;stroke-width:7;stroke-miterlimit:10;}
	.st106{stroke:#000000;stroke-width:5;stroke-miterlimit:10;}
	.st107{fill:#FFFFFF;stroke:#000000;stroke-width:7;stroke-miterlimit:10;}
	.st108{fill:#FFFFFF;stroke:#000000;stroke-width:5;stroke-miterlimit:10;}
	.st109{font-family:'Permanent Marker';}
	.st110{font-size:40px;}
	.st111{font-family:'Permanent Marker';}
	.st112{font-size:20px;}
	.st113{fill:none;stroke:#000000;stroke-width:7;stroke-miterlimit:10;}
	.st114{fill:#FFFFFF;}
	.st115{fill:none;stroke:#000000;stroke-width:10;stroke-miterlimit:10;}
	.st116{opacity:0.5;}
	.st117{stroke:#FCFF55;stroke-width:15;stroke-miterlimit:10;}
</style>
<g id="drawing">
	<path class="st0" d="M0.2,1073c0-2.2,0-4.4,0-6.7C0.2,713.6,0.2,360.8,0,8.1c0-5.8,1.5-6.4,6.7-6.4c627.4,0.1,1254.7,0.1,1882.1,0
		c5.3,0,6.7,0.8,6.7,6.5c-0.2,352.8-0.2,705.5-0.2,1058.3c0,2.2,0,4.4,0,6.6C1263.5,1073,631.9,1073,0.2,1073z"/>
	<path class="st1" d="M1300,985.4c-27.2-0.1-54.4-0.2-81.6-0.2c-2.7,0-5.4,0.1-8.1,0.1c-286.1,0-572.3,0-858.4,0
		c-70,0-139.9-0.1-209.9-0.2c-9.5,0-11.5-1.9-11.5-11.4c0.2-163.9,0.4-327.8,0.6-491.7c0-7.9,1.6-9.5,9.4-9.5
		c25.6-0.2,51.3-0.4,76.9-0.4c198.4-0.2,396.8-0.4,595.2-0.5c129.6-0.1,259.1-0.4,388.7,0.1c94.5,0.4,188.9,0.8,283.4,0.8
		c77.6,0,155.2,0.1,232.8,0.2c10.8,0,11.8,1,11.8,12.1c-0.1,55.8-0.2,111.5-0.2,167.3c0,107.2,0,214.5,0,321.7c0,5-0.1,9.7-6.6,10.5
		c-2.7,0.8-5.4,0.4-8.1,0.4c-115.8,0-231.6,0-347.4,0.1c-19.5,0-39.1-1.2-58.5,1.6C1305.7,986.7,1302.7,986.9,1300,985.4z"/>
	<path class="st1" d="M1367.2,422.9c-33.3,0-66.6,0-99.8,0c-81.4,0.1-162.8,0.4-244.2,0.3c-18,0-35.9-0.3-53.9,0
		c-9.3,0.2-11.8-2.3-11.8-11.3c0.1-62,0.3-124.1,0.5-186.1c0.1-38,0.3-76,0.4-113.9c0-10.5,1.2-11.8,11.4-11.8
		c237.3,0.1,474.6,0.1,711.8,0.2c28.1,0,56.2,0,84.3,0c8.5,0,10.3,1.8,10.4,10.2c0,16,0,31.9,0,47.9c0.1,83.9,0.2,167.7,0.2,251.5
		c0,11.7-1.1,12.8-12.6,12.8c-129.6-0.1-259.1-0.1-388.6-0.2c-2.7,0-5.4,0-8.1,0C1367.2,422.6,1367.2,422.8,1367.2,422.9z"/>
	<path class="st1" d="M505.3,418.5c-121.9,0-243.8,0-365.7,0c-11.7,0-23.4-0.4-35.1-0.4c-5.4,0-7.8-2.3-7.8-7.7
		c0.2-55.5,0.3-111,0.4-166.5c0.1-44.7,0-89.5,0-134.2c0-12.2,0.4-12.5,12.3-12.5c173.4,0,346.9,0.1,520.3,0
		c90.4,0,180.8-0.3,271.2-0.5c11.4,0,12.7,1.3,12.7,12.8c0.1,94.2,0.3,188.4,0.4,282.6c0,5.4,0.4,10.8,0.4,16.2
		c-0.1,9.2-1.8,10.9-11.2,10.9c-80.1,0-160.2,0-240.2,0c-52.6,0-105.3,0-157.9,0C505.3,418.7,505.3,418.6,505.3,418.5z"/>
	<path class="st2" d="M1300,985.4c8-1.8,16.1-1,24.2-1c131.4-0.2,262.9-0.3,394.3-0.4c1.3,0,2.7,0.2,4,0.2c-2.4,2-5.2,1-7.8,1
		c-55.1,0.1-110.2,0-165.3,0c-74.2,0-148.4,0.1-222.6,0.2c-3.8,0-7.2,0.3-10.7,2.8C1310.3,992.3,1304.7,990.3,1300,985.4z"/>
	<path class="st0" d="M1285.1,970.2c-24.3,0-48.6,0-72.8,0c-6.9-1-13.9-0.5-20.8-0.3c-4.2,0.1-6.2-1.2-6.6-5.5
		c-1.4-14.8-3.9-29.4-7.9-43.7c-1.3-4.8,0.6-8.8,3.4-12.5c5.2-6.8,11.4-12.7,16.9-19.2c6.2-7.4,7.9-15.5,7.1-25
		c-1.8-22.1-10.1-42.3-16.2-63.2c-2.3-7.8-8.4-12.1-16-14c-10.1-2.6-20.4-3.9-30.7-4c-10-0.1-18.8,4.5-25.7,11.8
		c-3.9,4.2-8.1,6.8-13.6,8c-5.7,1.2-11.3,3-16.9,4.6c-6.2,1.8-11.6,4.8-15.4,10.3c-2.9,4.2-7.1,6.8-11.3,9.4
		c-6.3,3.9-9.7,9.2-8.6,16.9c0.6,3.8-0.7,7-3.2,9.9c-3.2,3.8-6.5,7.5-9.4,11.5c-4.7,6.5-7.6,14.2-3.7,21.5
		c4.2,7.7,12.3,10.8,20.9,11.7c1.1,0.1,2.3,0,3.3-0.3c14.3-3.8,21.2,2.5,26.3,18.9c3.1,9.8,1.9,20.5,4.4,30.6
		c1.5,6.1,1.5,12.5,5.3,17.9c1.9,2.8,1.2,4.6-2.6,4.5c-1.6-0.1-3.2,0-4.7,0c-197.2,0-394.5,0-591.7-0.1c-2.4,0-5.8,2.2-7.5-1.8
		c0-0.5,0-1,0-1.5c-0.6-2.5,0.3-4.9,1-7.3c5.9-20.2,6.6-41.1,8.1-61.9c0.6-8.7,0.8-17.5,2.5-26.1c1.1-5.8,2.5-6.1,7.9-3.7
		c24.7,10.8,49.6,20.9,75.6,28.3c14.7,4.2,28.7,10.3,43.2,15.1c24.4,8,45.6,2.8,65-12.7c7.8-6.2,13.2-14.7,19-22.7
		c29.8-41.7,55.6-86,81.4-130.2c1.1-1.9,2-4,2.8-6.1c0.8-2,2-3.6,3.8-4.7c9.4-0.8,15.8-6.4,22-12.8c2.8-2.8,3.7-5.4,1.1-8.6
		c-0.8-1.4-0.3-2.6,0.3-3.9c4.2-6.4,9.7-12.8,10.9-20c1.7-9.7,8-11.9,15.2-15.1c9-4,17.1-10,25.4-15.3c3.5-2.2,4.2-4.8,2.8-9.1
		c-13.7-41.4-37.6-77.5-59.2-114.8c-2.5-4.3-5.4-5-10-3.1c-23.6,10.1-47.5,19.3-70.5,30.8c-9.7,4.8-11.3,8.5-7.2,18.7
		c0.7,1.7,1.1,3.5,2.1,5c3.3,5,3.3,8.7-1.8,13.2c-6.7,6-6.3,21-0.1,31c9.9,15.9,18.9,32.2,23.5,50.5c1.4,3.1,0,6.1-0.3,9.2
		c12.8,13.7,27,25,46.9,25.9c2,0.1,4.1,0,6.1,0.2c3.7,0.4,8-3.4,10.8,1.4c0.8,1.4-11.5,10.3-14.1,10.2c-0.9,0-1.8-0.1-2.7-0.4
		c-20-6.7-38.8-15.4-53.1-31.5c-2.8-3.1-6.1-6.4-3.2-11.2c1.2-2,1.2-2-0.2-2c-5.9,5.2-5.8,7.3,0.7,17c-1.9,1.5-4,2.8-5.6,4.6
		C709,738,677.8,769.5,651.2,805c-5.7,7.6-11.6,14.9-17.5,22.3c-1.2,1.5-1.9,3.5-4.7,1.8c-14.9-8.7-31.7-12.3-47.7-18.1
		c-18.1-6.6-35.3-15.3-53.7-21.5c-21.5-7.3-40-3.8-57.5,9.6c-0.5,0.4-1.1,0.8-1.7,1.1c-0.2,0.1-0.4,0-1.2,0
		c0.4-6.3,4.1-11.8,4.5-17.8c0.8-11.5,6.8-14.6,17.5-16.2c17.7-2.6,35.9-6.4,50.5-17.2c25.8-18.9,46.2-41.6,43.6-76.9
		c-0.2-3.2,0.9-3.3,3.4-3c2.2,0.3,4.5,0,6.7,0.3c7.3,0.8,12.8-1.5,15.7-9.2c4.9,5.6,8.4,11.3,7.4,19.9c4.5-6.2,4-13.6-1.6-20.5
		c-3.2-3.9-3.7-7.1-1.7-11.4c1-2.2,1.6-4.7,2.2-7.1c1.5-6.4,2.7-12.2,11.5-12.6c5.3-0.2,8.4-5.6,10.8-10.2
		c3.9-7.6,6.4-15.5,3.9-24.5c-3.8,12.4-5.2,26.4-21.5,31c2.3-11.1,6.3-20.8,9.4-30.8c2.5-8,1.3-10.4-6.1-13.5
		c-0.5-0.6-0.6-1.3-0.4-2c3.4-6.1,4.6-12.7,4.1-19.5c-0.5-6,1.2-10.7,5.2-15.3c9.7-11.4,10.7-24.2,4.9-37.8c-0.5-1.2-1.2-2.5-2-3.5
		c-1.2-1.6-2.6-3.6-4.9-2.2c-1.9,1.2-1.2,3.3-0.5,4.9c3.6,7.7,5.4,15.6,4.8,24.2c-0.3,4.1-0.9,8.1-2.5,11.8c-1.7,4-3.8,4.2-6.1,0.5
		c-2.3-3.8-4-8-6.4-11.8c-2.5-3.9-5.2-5.2-10-3.3c-18,7.2-36.6,5.5-55.1,2.9c-3.1-0.4-6.2-1.3-8.3-4c0.1-2.6,2-2.6,3.9-2.7
		c6.7,0,13-1.9,19.3-3.4c4.3-2.1,9-3.6,13.7-6.8c-5.1,3.2-9.9,5.1-14.8,7c-9.3,2.8-18.7,4.4-28.2,1.2c-1.9-0.6-3.9-1.1-5.6-2.1
		c-3.9-2.4-4-4.3,0-6.8c1.4-0.9,2.8-2.2,4.8-2.2c-13.5,4.4-27,9.1-41.6,8.3c-4.2-0.2-8.5-0.2-12.1-3c1.4-4.9,6-2.4,8.8-3.8
		c4.5-0.8,8.9-2.4,13.3-3.7c2.4-1.3,4.9-2.6,7.4-3.7c1.4-0.4,2.7-1.1,3.9-1.9c0.3-0.3,0.7-0.4,1-0.3c-0.7-0.2-1.2,0.3-1.7,0.6
		c-1.2,1-2.8,1.3-4.1,1.9c-2.7,1.3-5.3,2.8-8.1,3.9c-15.7,5.9-31.1,3.2-46.4-1.7c0-1.7,0.6-4.1,1.4-5.7
		c-22.5,17.5-50.8,21.1-76.2,31.5c-6.4,2.6-10.9,5.2-12.1,13.1c-3.1,20.4-6.4,40.7-10.6,60.9c-1.2,5.7-2.1,11.5-5.2,16.6
		c-5.5,1.8-9.5-2.7-14.5-3.4c-1.4-0.2-1.9-2.4-3.4,0.2c-1.2,2.1-3.7,3.2-5.5,4.9c-5.1,4.8-7,10.7-5.8,17.6c0.5,3,1.8,6,0.7,9.2
		c-5.7,7.3-5.6,14.4,0.2,21.6c1.9,2.4,4.5,4.3,5.8,7.2c0.9,2.6,1.1,5.3,0.4,7.9c-1.7,7-1,13.7,2.5,20c0,4.1,0,8.3,0,12.8
		c-2.8-1-4.9-2.7-6.6-5c-6.4-12.4-12.6-24.7-14.1-38.9c-2.7-24.3-6.8-48.4-6.8-73c-0.1-35.8,8.2-68.5,30.7-96.9
		c5-6.4,9.1-13.3,13.3-20.2c22.2,0,44.4,0,66.6,0c64.4,0,128.8,0,193.3,0c1.7,5.4,4.8,10.4,4.9,16.6c3.3-6.1-1.7-11.1-1.5-16.6
		c74.4,0,148.9,0.1,223.3,0.1c146.8,0,293.7-0.1,440.5-0.2c47.7,0,95.3-0.1,143-0.2c45.6-0.1,91.3-1,136.9-0.3
		c49.5,0.7,98.9-0.5,148.4-0.3c5.3,0,6.8,1.4,6.7,6.7c-0.3,24-0.2,48.1-0.1,72.1c0.1,41.6,0.5,83.1,0.4,124.7
		c0,49.2-0.4,98.4-0.4,147.6c0,40.7,0.3,81.3,0.5,122c0,4,0.1,8.1-1.1,12c-1.6,1.2-3.5,0.7-5.2,0.7c-41.6,0-83.2,0-124.8,0
		c-1.9,0-4.6,1.1-5.6-0.9c-1.2-2.4,1.5-3.9,3.1-5.3c16.4-15.6,27.8-33.7,30.9-56.8c2.5-18.7,6.6-37.2,6.9-56.1
		c0.3-23.6-4.6-46.2-12.2-68.6c-9.1-26.8-21.4-51.8-35.4-76.3c-13.9-24.3-34.3-39.1-61.9-44.1c-7.7-1.4-15.3-3.3-23.1-4.7
		c-28.8-5.1-56.3-1.1-82.7,10.9c-4.9,2.2-10.1,3.8-15,6c-15,6.8-28.2,15.9-38.1,29.2c-1.8,2.3-3.5,4.7-5.5,6.8
		c-3.2,3.3-5.4,2.5-6.8-1.6c-0.4-1.1-0.7-2.2-1-3.2c-2.3-8.5-6.2-15.8-16.1-16.8c-9.8-1-21.1,6-24.7,15.5
		c-2.6,6.9-4.6,14.1-5.8,21.4c-1.1,6.7-1.9,13.3-2.6,20c-0.4,3.5-1.4,6.5-4.3,8.8c-4.1,3.2-7,7.6-10.6,11.3
		c-10.4,10.7-9.4,22.7-4.1,35c3.2,7.5,3.6,7.3-3.2,12.4c-6.4,4.8-11.2,11.1-15.3,17.8c-5.9,9.8-3.4,20,7.4,29.9
		c3.9,3.6,4.4,7.2,4.8,12.3c1.2,17-0.1,34.2,1.4,51.1c1.2,13.4,6,25.7,14.7,36.3C1282.7,964,1285.5,966.3,1285.1,970.2z"/>
	<path class="st0" d="M280.9,788.4c18.5-1.8,35.4,3.5,51.2,12.5c3.5,2,6.8,4.3,10,6.8c3.6,2.8,8.8,4.9,3.6,11.2
		c-2.3,2.8-0.1,7,2.2,9.9c9.2,11.7,22.2,18.7,34.2,26.7c4.9,3.2,9.6-1.3,14.1-3.4c0.2,0.3,0.4,0.5,0.4,0.6
		c-6.4,11.2-3.4,14.1,11,16.8c2.5,0.7,5.9,0.3,5.1,4.6c-0.5,2.7-4.4,4.5-2,7.8c1.9,2.7,4.8,3.2,7.8,3c4.9-0.4,5.9-4.2,6.8-8
		c3.6-6.9,8.1-13.1,13.8-18.5c0.4-0.3,0.9-0.1,1.2,0.3c0.2,0.3,0.2,0.7,0,1.2c-0.2,19.4-3.1,38.5-6.2,57.6c-0.6,4-2.3,10.1,2.9,10.8
		c4.8,0.6,4.2-5.7,4.6-9.5c2-20.5,4.2-40.9,4.1-61.5c1.1-6.8,1.1-6.8,6.8-3.1c5.9,3.8,7.5,3.5,12.1-2.2c14.4,2,17.7-0.8,16.9-14.8
		c-0.1-1.1-0.9-2.4,0.8-2.6c3.5-0.5,5-2.6,5.6-5.8c1-5.3,2.2-10.6,0.9-16c-0.7-3-3.3-4.1-6-4.8c-3.7-0.8-7.4-1.5-12.7-2.6
		c13.2-7.7,25.4-13.9,40-9.8c17.5,5,34.6,10.8,51.1,18.6c16.2,7.7,33.6,12.3,50.5,18.3c4.2,1.5,8.4,3.1,12.6,4.6
		c-0.2,0.6-0.2,1-0.4,1.4c-1.2,2.7-6.6,4.8-4.4,7c2.5,2.5,4.7-2.6,7.2-4.1c9.9-5.7,15.7-15.5,23.2-23.5c7.7-8.2,14.8-16.9,22-25.5
		c20.7-24.8,43.3-48,65-71.9c4.2-4.6,8.5-9.3,10.7-16.4c11.5,11.4,25.2,18.7,39.6,24.9c-7.3,12-14.5,24-22.2,35.8
		c-21.3,32.7-47.5,61.4-74.4,89.4c-16.5,17.1-36.5,28-60.2,32c-10.1,1.7-19.7-1-29.4-2.1c-8.2-0.9-16.6-1.5-24.8-2
		c-9.5-0.5-18.1-2.8-26.7-6.3c-3.4-1.4-6.8-2.3-10.4-2.3c-11.3-2.9-22.5-6.3-32.2-13.2c-1.6-1.2-3.4-2.2-5.4-2.8
		c-2.4-0.8-4.9-1.9-7.1-0.3c-2.8,2-0.4,4.5-0.2,6.8c-6.9,31.8-17.1,62.2-36,89.1c-1.6,2.3-3.1,5-6.3,5.8c-2.7,0.1-3.8-2-5.3-3.7
		c-9.5-10.9-17.4-22.8-25.4-34.8c-2.5-3.8-4-7,1.2-9.9c2.3-1.3,3.1-3.9,2.1-6.5c-1-2.7-3.4-3.3-6-3.4c-1.1,0-2.3-0.2-3.4,0.1
		c-5.6,1.8-8.9-0.9-11.6-5.4c-1.4-2.3-3.1-4.4-5.5-6c3.6,6.7,7.9,12.9,11.8,19.4c11.4,18.8,22.6,37.8,37.1,54.5
		c1.3,1.5,2.7,3.1,1.8,5.4c-1.7,1.7-3.8,1-5.8,1c-22.9,0-45.8-0.1-68.8,0.1c-5.1,0-8.3-1.6-11-6c-8.4-13.8-18.5-26.5-28.5-39.2
		c-6.5-8.3-12.1-17.3-17.3-26.5c-15-26.7-28.4-54-36.6-83.7c-1.8-6.6-1.4-13.4-2.2-20C278.3,792.1,279.3,790.1,280.9,788.4z"/>
	<path class="st0" d="M1456.6,923.3c6.6-1.9,11.6-5.5,13.9-12.4c5-14.7-1.1-23.7-16.7-24.4c-1.3-0.1-2.5-0.2-4.5-0.3
		c4.8-12.2,10.6-23.3,17.8-33.5c4.3-6,5.6-10.9,1.2-18.1c-4.5-7.5-7.2-16.4-6.7-25.7c0.1-1.7,0.7-4.3-1.8-4.4
		c-2.5-0.1-1.9,2.6-2,4.2c-0.4,7.6,0.1,15.2,3.5,24.2c-25.6-15.9-39.7-36.6-41.3-65c-0.4-6.3-0.2-12.6-0.3-18.8c0-1.4-0.3-3-2-2.9
		c-1.7,0-1.9,1.7-1.8,3.1c0.4,7-1.3,13.8-2.3,20.7c-0.5,3.7-2,3.7-4.9,2.9c-10.3-3-21.2-16.2-21.9-26.8c-0.4-7-1.5-7.7-8.7-5.2
		c-1.4-1.5-0.7-3,0.3-4.1c5.7-6.8,12.2-12.8,19.9-17.2c1-0.5,2.1-0.8,3.1,0.1c1.1,1.7,0.6,3.4,0.3,5.2c-2.7,15.3-2.4,16.9,6.3,30.2
		c-2.3-5-5.2-9.8-5.8-15.4c-0.7-5.6,0.1-11.2,1.3-16.7c0.3-1.3-0.1-2.7-0.2-4c-0.3-4.4,3-6.2,6-8.1c7.5-4.6,15.3-8.6,23.9-10.5
		c14.8-3.4,29.6-7.5,45-4.1c32.2,7.9,58,25.5,77.6,52.1c15.8,21.5,28.3,45.1,32,71.8c5.7,41.3,2.5,81.7-22.7,117.1
		c-9.7,13.7-20.8,26.5-37,33.2c-7.4,1.2-14.8,0.4-22.2,0.5c-18,0.1-36-0.1-53.9,0.2c-4.5,0.1-6.6-1.5-7.3-5.8
		c-1.4-8.9-3-17.7-4.4-26.6c-0.6-4.1,0.6-7.1,4.8-8.4C1449.7,929.1,1452.5,925.1,1456.6,923.3z"/>
	<path class="st3" d="M1285.1,970.2c-15.6-17.3-23-37.5-21.6-60.9c0.6-11.2-0.4-22.4-0.8-33.6c-0.2-5.9-0.9-9.7-5.5-14
		c-13.1-12.3-12.9-24.2-1.2-38.4c4.2-5,8.2-10.1,14-13.3c4.6-2.5,0.7-4.5-0.2-6.4c-5.4-11-7.5-22.1-0.6-33.2
		c2.8-4.5,6.1-9.3,10.4-12.2c8.6-5.7,8.6-14.2,9.6-22.7c1.6-13.1,3.3-26.3,10.8-37.7c6.5-10,23.7-13.2,32.7-6.7
		c4.5,3.2,6.1,8.2,7.7,13.1c0.8,2.5,1.3,5.1,2.1,8c4.2-2.5,6-6.4,8.5-9.7c12-15.7,28.2-25.2,46.1-32.5c13.7-5.6,27-11.8,41.9-13.6
		c16.6-2,33.1-4.7,49.9-0.5c9.7,2.4,19.9,3.2,29.5,6c25.2,7.2,44.1,22,57.3,45.3c15.4,27.3,28.7,55.4,38,85.2
		c7.4,23.6,10.7,47.8,8,72.8c-2,18-5,35.8-8.4,53.5c-2.4,12.2-7.3,23.2-15.6,32.2c-5.6,6-9.8,13.5-17.1,19.2c44.9,0,89.9,0,134.8,0
		c-1.2,1.5-2.9,0.9-4.4,0.9c-53.1,0-106.1-0.1-159.2-0.2c-0.8,0-1.6-0.1-3.8-0.2c4.8-4.5,8.5-8.2,12.6-11.6
		c12.9-10.9,20.8-24.8,26.6-40.6c13.3-36,15.2-72.9,6.9-109.9c-6.5-29-20.1-55.6-40.2-77.6c-25-27.4-56.3-44.7-93.8-49.7
		c-28.9-3.8-55.8-0.2-79.9,17.7c-12.1,9-19.6,20.7-24.2,34.7c-1,3-1.6,6.5,0,9.2c3.2,5.7,1.5,9-3.4,12.6c-8.2,6-14.6,13.9-19.2,23.1
		c-10.9,21.5-26.4,37.8-50.8,43.8c-4.5,1.1-8.1,3.8-10.8,7.6c-5.2,7.1-4.2,13.8,2.8,19.4c4.8,3.8,13.9,4.5,14.7,10
		c0.7,5-3,11.3-4.3,17.2c-6.2,28.3-1.4,54.3,15.7,77.9c4.2,5.8,8.8,10.7,15.7,13.1c0.8,0.6,2.1,0.9,1.3,2.4
		C1306.7,970.3,1295.9,970.2,1285.1,970.2z"/>
	<path class="st0" d="M441.7,533.3c12.4,0.4,20.6,8.4,29.3,15.7c-11.9-2-23.8-3.4-35.5-5.6c-6.7-1.3-9.7,1.1-11.2,7
		c-6.4,24.9-13.4,49.7-23,73.6c-1.1,2.8-2.1,6-0.3,9c0.2,1.5,0.6,3.1,0.4,4.7c-0.8,4.3,1.5,6.4,5.4,7c21.3,3.1,42.4,8.5,64.1,3
		c4.6-1.2,9.4,0.5,14-1c3-1,3.6-3.6,4.1-6.3c1.4-8.2,5.1-15.8,5.8-24.1c0.3-3.1,2.2-3.1,4.2-2.7c12.1,2.7,24.4,2.9,36.7,3.4
		c4,0.2,5.6,1.4,4.2,6.1c-2.3,7.7-3.7,15.7-5.2,23.6c-2,10.8-0.4,13.4,9.5,17.4c6.3,6.5,14.6,8.4,23,9.2c6.4,0.6,8.5,3.3,7.3,9.3
		c-0.2,1.1,0.1,2.2-0.5,3.2c-1.1,15.9-11.2,26.9-20.4,38.5c-17,21.5-41.3,27.8-66.3,33.5c-44.5,10.1-86.2,2.5-126.2-18.4
		c-7.7-4-11.8-11.6-18.8-16c-1.1-0.7-0.7-2-0.5-3.1c2.3-14.3,1.8-29,6.2-43c3.5-4.5,1.9-9.8,2.6-14.8c1.1-2.5,5.9-2.6,4.9-5.6
		c-1-3.1-5-2.2-7.7-2.8c-13.2-3.4-18.6-17.3-10.2-26.5c3.9-4.3,8.7-6.3,14.5-4.4c2,0.6,3.9,1.5,5.2-0.9c9-20.8,16.2-42,14.8-65.2
		c-0.2-2.9-0.4-5.8,1.2-8.5c7.1-4,15.1-3.4,22.8-4.3c11.1-1.3,21.1-5.2,30.8-10.6c4-2.2,7.7-5.5,12.9-4.8
		C441.7,529.7,440,532.2,441.7,533.3z"/>
	<path class="st0" d="M1457.9,855.8c-4.5,7.8-8.8,15.6-12.2,23.9c-3.3,7.9-2.7,9,5.7,10c13.1,1.6,17.2,7.1,13.7,18.1
		c-1.6,5-4.6,8.7-9.9,8.7c-5.3,0-11.3,0.3-13.5-6.5c-0.3-1-0.8-1.7-1.8-1.4c-1.4,0.4-1.9,1.8-2.3,3.1c-3.7,10.7-10.4,19.8-15.8,29.6
		c-3.6,6.7-7.3,13.3-11,20c-3.8,2-5,6-6.9,9.3c-24.3,0-48.6,0-72.9,0c-5.6-6.8-10.1-14.3-14.2-21.9c-8.9-16.7-15.7-34.4-16-53.7
		c-0.2-11.2-0.2-22.5,0-33.7c0.1-5.4-0.6-10.2-4.7-14.2c-3.3-3.2-2.8-6.1,0.7-9.1c4.1-3.5,8.7-6.3,13.3-9.1
		c10.6-6.5,20.2-14,28.2-23.8c5-6.1,7.8-13.2,10.1-20.4c3-9.8,10.2-16.2,16.8-23.2c1.8-2,4.7-2.5,4.5,1.1
		c-0.5,9.5,1.6,18.8,1.3,28.2c0,1-0.6,1.7-1.3,2.3c-13.6,1.1-20.1,10.3-24.7,21.7c-2.1,5.1-1.7,10,2.9,13.4
		c4.7,3.4,9.4,1.7,13.7-1.5c6-4.4,7.7-11.4,10.3-17.8c1.9-3,4.3-1.2,6.6-0.8c2.7-1,0.9-3,0.9-4.5c0-3.1-0.9-6.2-1.2-9.3
		c-0.3-3.1-1.2-6.7,1.9-8.7c2.6-1.7,5.1,0.7,7.5,1.7c6.2,2.6,11,6.8,14.8,13.2c-2.2-9-8.2-13.3-15.6-16.2
		c-9.3-3.5-10.7-6.2-7.6-16.1c2.8-1.7,4.7,0.4,6.6,1.9c5.9,4.5,11.6,9.3,18.9,11.5c3.2,0.9,4.6,3.5,5.2,6.5
		c4.6,22.4,18.4,39.2,33.4,55.2c3.2,3.5,7.3,5.9,11.6,8C1456.8,851.9,1459.7,852.5,1457.9,855.8z"/>
	<path class="st0" d="M337.8,487.2c-45.1,36.3-62.1,84.7-60.9,142.3c-4.3-4.5-7.9-8-11.2-11.8c-11.1-12.6-26-17.1-41.7-19.6
		c-15.4-2.5-31.1-1.5-46.6-3.4c-9.4-1.1-19.2,1.7-26.8,8.9c-1.4,1.3-3.2,2.2-5.8,4c0-3.2,0-5.3,0-7.5c-0.1-35.7,0-71.5-0.3-107.2
		c0-5.3,0.8-7.2,6.8-7.1c61.8,0.2,123.7,0.2,185.5,0.2C337.1,486.4,337.4,486.8,337.8,487.2z"/>
	<path class="st3" d="M487.5,967.9c2.5,2.2,5.6,1.2,8.4,1.2c192,0,384.1,0,576.2-0.1c7.2,0,14.3,0,21.6,0c-8-12.2-8-26.2-9.5-39.7
		c-0.9-8.3-2.3-16-6.9-23.4c-4.3-6.9-9.8-8.4-16.6-6.4c-11.1,3.2-19.2-2.5-26.9-8.6c-5.3-4.2-5.3-15.5-0.7-23.2
		c1.8-3.1,4.3-5.7,6.5-8.5c4.6-5.7,10.6-10.5,8.2-19.5c-1.5-5.7,2.6-9.9,7-12.8c6.2-4.1,11.8-8.3,16.5-14.4
		c5.6-7.3,15.3-8,23.7-10.2c8.2-2.2,15.1-5,21.8-11.3c8.1-7.7,18.7-12.4,31.4-9.8c10,2,20.5,1.3,30.1,5.7
		c6.8,3.1,10.9,8.2,12.6,15.6c2.1,9,5.8,17.5,8.3,26.2c4.7,16,9.1,32.2,6.5,49.2c-1.4,9-9.2,14-14.1,20.8c-1.3,1.8-3.1,3.2-4.7,4.8
		c-6.6,6.4-10,12.6-6.5,23c4.1,11.9,6,24.7,6.3,37.5c0.1,4.5,2,5,5.7,5.1c6.6,0.3,13.4-1.4,19.9,1c-13.7,0-27.4-0.1-41.1,0.1
		c-3.2,0-4.7-0.7-5.3-4.2c-2.7-15.2-8.4-29.7-10.8-45.1c-1.2-7.8-0.3-14.7,4.6-20.9c4-5.1,8.4-10,12.4-15.1
		c9.5-11.8,13.1-24.7,8.2-39.6c-2.9-8.7-5.1-17.7-7.3-26.6c-1.9-7.6-7-11.5-14.4-11.8c-10.1-0.4-20.2-0.2-30.3,0.1
		c-5.4,0.2-9.2,3.3-8.7,9c0.3,3.8-1.5,3.1-3.6,3.3c-8.5,0.7-17,1.7-25.3,3.5c-11.3,2.5-12.2,4-7.5,14.2c-3.6,1.2-7.2,2.2-10.6,3.5
		c-10.9,4.2-11.4,7.5-2.2,15c-3.6,1.6-7.2,3-10.5,4.8c-6.9,3.7-7.4,11-1.3,15.9c5.2,4.1,11.6,5.1,17.8,4.8c8-0.3,12.4,3.5,15.4,10.4
		c6.8,15.6,10.2,32,12.2,48.8c1,8.2,2,16.5,3.8,24.6c1.1,5-0.6,5.6-4.8,5.5c-10.6-0.3-21.1-0.3-31.7-0.3
		c-192.7,0.1-385.5,0.2-578.2,0.2C491.3,970.2,487.5,972.8,487.5,967.9z"/>
	<path class="st0" d="M441.7,533.3c-1.8-1-1.4-2.7-1.6-4.3c1.4-5.6,5.9-6.5,10.4-6.2c15.4,0.8,30.8,2.8,46.3,2.5
		c3.1-0.1,5.4,1.8,7.7,3.7c13.2,10.7,28,16.8,45.3,16c14.3-0.6,28.7,1.8,42.9-2.3c6-1.8,12-3.6,17.6-6.7c2.1-1.2,4.2-2.7,6.9-1.7
		c7.8,9.2,6.2,20,5,30.6c-0.5,4.2-1.5,8.3-2.4,12.5c-0.3,0.8-0.7,1.4-1.4,1.9c-14.2-3.3-27.7-8.6-41.7-15.6c7.4-2.2,13.9-4.4,20.4-6
		c4.5-1.1,8.9-0.5,12.5,2.9c1.2,1.1,2.4,2.5,4,0.9c1.5-1.6-0.2-2.9-1-4c-4.8-7.2-12.5-10.3-21.1-8.4c-6.3,1.4-12.6,3.3-19.2,3.6
		c-5,0.2-8.8,2.1-9.4,8.2c-1.5,13.5-4.6,26.8-8.1,39.9c0.5,0.2,1,0.3,1.6,0.5c3.1-8.7,6.3-17.3,9.1-26.1c1.5-4.7,2.6-6.1,7.9-3.2
		c13.5,7.7,28.1,12.7,43.1,16.8c2.1,0.6,5,0,3.7,4.4c-6.2,19.9-12.2,39.8-18.1,59.8c-1.7,5.8-4.8,7.4-10.8,7.1
		c-14.6-0.8-28.9-3.9-43.4-5.5c-3.6-0.4-5.1-1.8-4.1-5.8c1.6-6.5,2.8-13.1,4.2-19.7c1.5-7.2,1.4-7.2,9.7-5.5
		c-9.7-7.1-19.3-10.1-29.5-11.2c-9.7-1-18.9-3.5-28.4-5.5c-9.6-2-11.2-0.2-12.5,9.3c-1,7.3-3.5,14.3-5.2,21.5
		c-0.8,3.4-3.5,2.3-5.5,2.2c-11.2-0.7-22.1-3.6-33.2-5.6c-10.6-1.9-21.1-4.5-31.6-6.4c-3-0.5-3.3-1.7-2.4-4
		c9.3-22.7,15.8-46.2,21.9-69.9c0.8-2.9,2.2-2.8,4.9-2.5c17.5,1.8,34.3,7,51.6,9.8c8.7,1.4,8.9,2,7.2,10.5c-0.3,1.5-0.5,3.1-0.8,4.6
		c-11.5-5.9-24-8-36.7-9.5c-1.6-0.2-3.1-0.5-4.7-0.6c-13.6-0.8-18.2,2.5-21.8,15.6c-2.3,8.5-4,17-5.9,25.6
		c-1.6,7.5,0.5,11.1,7.7,13.3c10.1,3.2,20.2,6,30.8,7.4c8.3,1.1,11.9-1,15.1-9c3.4-8.6,4.3-17.9,7-26.7c1-3.1,1.1-6.8,4.9-8.3
		c2.5,1,1.7,2.9,1.1,4.7c-0.2,4.4,2.1,6.4,6.3,7.2c5.1,1,10.3,0.7,15.5,0.6c12.2-0.3,24.2,0.9,35.7,5.4c1.2,0.5,2.7,2,4.5-0.4
		c-9.1-5.2-18.8-7.7-28.9-8.9c-6.2-0.8-12.5-1.3-18.8-1.5c-4.5-0.2-6.7-1.1-5.1-6.2c1.2-4,1.6-8.3,2.4-12.5
		c2.5-12.5-0.3-16.7-12.9-19.1c-0.9-1.5,0.5-1.8,1.3-2.5c1.2-0.6,2.5-1,3.6-1.8c1.9-1.2,4.1-2.4,3-5.2c-1-2.4-3.4-2.1-5.2-1.7
		c-8.4,1.6-15.1-1.7-21.8-6.3c-7.5-5.2-15.9-8-25.2-7.3C443.2,529,440.1,529,441.7,533.3z"/>
	<path class="st0" d="M147.2,759c-2.6-0.7-2.4-2.7-2.4-4.8c0-24.1,0-48.3,0-72.4c0-2-0.5-4.1,2.3-4.8c9-2.2,13.6-8.6,16.3-16.9
		c13.8-1.8,25.4-9.9,38.8-12.9c8.2,7.3,17.5,11.7,29.6,9.3c-8.8-2.1-17.1-4.2-22.9-11.2c1.4-5.5,5.4-9.1,8.9-7.1
		c8.7,4.9,17.6,8.8,27.7,9.2c0.1,8.4-0.1,16.7,0.1,25.1c-3.6,3.6-6.4,9.8-12.6,2.9c-0.9-1-3.3,1.1-5.1,0.6c-1.6-0.5-3.1-1.1-1.8-3.2
		c0.2-0.3-0.1-0.3-0.6,0.2c-4.4,5.8-11.7,3.1-17.9,6.1c3.9,1.4,7.3,1.1,10.6,0.6c6.4-1.1,12.9-1.7,19.3-0.8c4.8,0.7,4.6-4.3,7.5-5.6
		c3.9,1.9,3.7,5.4,3.7,8.9c-0.6,3.1-2.9,5.3-4.7,7.7c-2.5,2.1-5.2,4-6.5,7.2c-7.7,14.6-9.9,29.2-0.6,44c1.9,3.1,0.8,5.2-2,6.5
		c-18,8.4-36.2,15.6-56.9,13.2C167.8,759.8,157.5,758.4,147.2,759z"/>
	<path class="st0" d="M173,808.5c14.2,9.5,44.6,6.5,55-6.6c4.6-5.9,9-11.3,15.5-15.3c7.2-4.4,13.7-4.7,20.3,0.8
		c-11.2,18.1-10,37.1-4.1,56.4c1.5,4.7,2.7,9.5,4.8,14c2.6,5.5,1.1,8.5-4.2,10.9c-10.8,4.8-22,5.5-33.5,3.5
		c-11-11.6-11.5-15.6-3.9-29.9c3.1-5.9,5.2-12.3,7.7-18.5c1.6-3.9,0.1-6.9-2.5-9.7c-1.1-0.3-2.4-0.4-2.9,0.9
		c-4.2,10.3-13.4,16.7-20,25.1c-12,15.3-9,30,8.6,38c3.2,1.5,3.6,2.7,2,5.3c-3.9,6.1-4.1,10.9,4.3,12.9c2.3,0.5,1.5,2.4,1.2,3.8
		c-1.3,5.9-2.5,11.9-3.9,17.7c-1.9,7.3-4,14.6-6.4,23.6c-5.1-9.1-9.4-16.9-13.8-24.7c-1.9-8.2-7.7-13.5-13.5-18.9
		c-1.5-1.2-3.2-2-5.2-1.7c0-0.3-0.1-0.6-0.1-0.9c5-3.8,5.9-7.8,1-12.5c-1.6-1.5-2.2-3.8-3-5.9c-0.4-2,0.8-3.4,1.7-4.9
		c5.3-8.8,3.9-17.6-4.2-24.2c-5-4.1-10.6-7.4-16.5-10.2c-3.2-1.5-6.5-3-8.5-6.2c-0.9-0.9-1.8-1.7-2.8-2.6
		c-1.7-10.5-1.4-10.7,8.2-13.3c4.7-1.2,9.3-2.9,13.5-5.7C169.3,808.8,170.8,807.1,173,808.5z"/>
	<path class="st4" d="M538.6,872.1c2.2-0.4,4.6-0.5,6.6,0.5c18.7,9.5,39.4,7,59.1,10.3c15.4,2.6,30.1,2,44.8-3.4
		c20-7.4,35.9-20.4,49.4-36.2c15.7-18.4,33.8-34.6,47.4-54.8c11.1-16.5,23.6-32.2,33-49.8c2-3.8,4.6-7.1,8.1-9.7c2.9,2,8,0.1,9,5.3
		c-0.2,1.4-0.9,2.5-1.5,3.7c-3.9,9.2-9.4,17.4-14.8,25.6c-25.9,38.9-49.7,79.1-78,116.3c-6.2,8.1-12.5,15.8-21.6,21
		c-15.8,9.1-32,11.9-49.8,6c-28.3-9.4-56.4-19.7-84.5-29.8C543.2,876.2,539.5,876,538.6,872.1z"/>
	<path class="st0" d="M294.8,689.5c5.7,6.9,11.7,13.6,17.1,20.6c7.5,9.6,17.6,15,28.8,18.7c1.9,0.6,4,0.8,5.1,2.7
		c6.1,10.8,16.8,15.9,26.8,21.7c3.9,2.3,4.4,4.1,3.2,8.4c-3.5,12.8-7.7,25.2-12.9,37.4c-0.1,0.2-0.1,0.4-0.2,0.6
		c-1.4,4.2-4.9,6.5-8.1,8.7c-5.7,3.7-6.2-3.1-8.6-5.3c-13.5-12.7-29.5-20.2-47.7-22.9c-5.8-0.8-8.5-1.5-7.1-9
		C296.1,744.2,298,717,294.8,689.5z"/>
	<path class="st4" d="M280.9,788.4c-1.9,17.5,3.3,33.5,9.5,49.5c10.2,26.5,22.9,51.7,38.5,75.3c12.1,18.3,27,34.6,38.3,53.5
		c1.3,2.2,3.4,2.7,5.8,2.7c23.8,0,47.6,0,71.4,0c1.5,0,3.2,0.2,4-1.6c1.2-0.6,2,0.1,2.8,0.9c0.2,0.5,0.2,1-0.1,1.5
		c-2.2,0.2-4.5,0.5-6.7,0.5c-39.8-0.1-79.6-0.3-119.4-0.2c-4.2,0-5.9-0.7-7-5.4c-4.2-19.4-13.6-37-21.6-55c-10.7-24.2-20-49-28-74.2
		c-3.6-11.2-3.7-22.5-0.7-33.9C269.5,794.9,273.2,789.6,280.9,788.4z"/>
	<path class="st0" d="M1105.8,826.3c6.6-0.5,13.2-1.7,19.9-0.7c6.6,1,12,2.8,14.6,9.7c0.4,1.1,1.8,1.8,2.8,2.7
		c1.2-6.2,1.8-12.5-0.5-18.6c-1.3-3.3-0.8-5.1,3.3-4.8c3.3,0.3,6.7-0.4,9.9,0.4c5.5-0.4,7.9,2.5,9.2,7.5c2.4,9.5,5.2,18.9,7.8,28.4
		c2.9,10.9-0.7,20.2-7.5,28.6c-6.7,8.3-14.3,15.9-18.8,26.3c-9.3-7.5-19-13.2-31.3-12.1c-2.2,0.5-3.4-0.9-4.2-2.4
		c-3.7-7.4-8.1-14.2-14.1-20c-0.9-0.9-1.6-2.2-0.8-3.6c2.4,0.3,4.6,0.4,3-3.2c-0.7-1.5-1.2-3.1-1.8-4.6c-0.1-6.6-6.2-10.3-7.9-16.2
		c4.5,0,8.9,0.1,13.4-0.2c4.6-0.3,8.3,0.5,10.5,5.1c1.6,3.3,3,3.5,2.7-0.8c2-12.3,2-12.3-9.3-19.4
		C1106.1,828,1105.6,827.4,1105.8,826.3z"/>
	<path class="st4" d="M353.9,486.3c0.3,3.3-1,6-2.9,8.7c-7,9.9-14.3,19.6-20.6,30c-13,21.5-17.6,45.2-18.4,70.1
		c-1,32,3.8,63.4,9.2,94.8c0.5,3,1.6,5.5,3.2,8c3.4,5.4,5.4,11.3,6.4,17.5c-25.7-22-42.1-48.8-44.7-83.3
		c-2.1-27.9,3.7-54.6,13.1-80.3c7.5-20.5,22.3-36.6,37.8-51.7c4.1-4,9.3-7,12-12.5C350.2,485.5,352.2,486.2,353.9,486.3z"/>
	<path class="st5" d="M538.6,872.1c5.8,2.4,11.4,5.4,17.4,7.2c26.5,7.8,51.9,18.6,78.2,27.1c18.9,6.1,48.2-4.7,59.6-19.1
		c24.7-31.3,45.8-65,67.4-98.3c11.1-17.2,22.6-34,32.8-51.8c1.4-0.2,2,0.3,1.4,1.7c-6,14.8-14.9,28.1-23.1,41.7
		c-21.8,36.3-43.7,72.6-69.2,106.5c-12.5,16.5-28.8,25.7-48.8,29.3c-5.2,0.9-10.4,0.9-15.4-0.4c-14.9-3.9-29.9-7.7-44.1-14.1
		c-10.5-4.7-22.1-6.1-32.7-10.3c-19.7-7.9-40.3-13.6-58.9-24.2c-0.5-0.3-1.3-0.2-2.2-0.3c-2.2,17.9-3,35.8-4.3,53.6
		c-1.1,15.6-3.4,31.1-9.4,45.7c-8.1,3.6-8.1,3.6-8.1-6.2c0-0.2,0-0.5,0-0.7c-1.8-1.9-1.6-4.2-1-6.3c7-23.7,7.3-48.5,11.6-72.7
		c1-5.6,3.6-10.9,2.9-16.8c-1.5-1.8-4-3.5-2.3-6.3c1.7-2.9,4.5-3.5,7.6-2.8c2.9,0.6,5.9,1.2,8.1,3.1
		C515.7,865.9,527.4,868.4,538.6,872.1z"/>
	<path class="st0" d="M171.4,639.8c3.4-4.3,6.6-8.7,7.7-14.5c-8.3,12.8-19.8,21.3-34.4,26.8c0-10.4,0-20,0-29.6
		c0-1.6,0.1-3.2,1.7-4.1c8.6-5.1,15.6-12.6,26.4-14c22.9-3.1,45.7-5.4,67.3,5.8c2.8,1.4,5.5,3,8.2,4.5
		c16.3,15.9,20.1,36.4,20.9,57.9c0.2,5.8,0,11.7,0.1,17.5c-0.5,3.3,0.9,7-2.4,9.6c-1.9,0.1-2.8-1.2-3.5-2.6
		c-8.9-16.9-18.6-33.5-16.8-53.7c0.4-4.4-1.6-7.3-6.2-8c-5.2-0.8-9.7-3.5-14.3-5.8c-2-1.1-4-2.2-6.2-3c-2.5-1.1-4.4-2.7-5.1-5.5
		c-0.1-1.8,2.4-4.1-0.3-5.3c-3.2-1.4-2.6,2.2-3.4,3.6c-7.6,14.2-19.9,20.9-35.6,22C173.9,641.8,171.8,643.1,171.4,639.8z"/>
	<path class="st4" d="M1368.6,792.7c1.6-5.2,0.2-10.5-0.2-15.7c-0.3-5.3-1.3-10.5,0.3-16.5c-9.3,8.6-16.7,17.2-20.2,28.9
		c-5.2,17.7-18.9,28.4-33.2,38.3c-5.9,4.1-12.4,7.2-17.9,11.9c-2.5,2.2-2.9,3.7-0.3,5.7c4.8,3.9,5.6,9,5.6,15c0,15.9-2,32,1.5,47.7
		c3.7,16.8,8.3,33.6,19.4,47.5c3.5,4.5,5.8,9.5,7.5,14.8c-4.5,0-9.1-0.1-13.6-0.2c-0.4-0.8-0.9-1.6-1.3-2.4c2.2-0.6,5.3,1.2,6.6-1.9
		c1.3-3.2-1.5-4.8-3.4-6.6c-21.9-20.4-30.2-45.9-28.1-75.3c0.4-5.6,0.3-11.2,0.7-16.8c0.3-3.3-0.3-7.1,4-9.1c3-1.4,0.9-3.9-0.5-5.6
		c-3.3-4.1-7.9-6.5-12.2-9.4c-5-3.4-4.9-6.2,0.3-9.3c1.3-0.8,2.8-1.3,4.3-1.8c25.9-7.3,42.2-25.2,53.7-48.5
		c7.9-16.1,20.2-27.7,35.4-36.7c4.5-2.7,6.1-1.7,4.8,3.5c0.4,1.8-0.1,3.6-0.6,5.3c-5.3,15.5-4.5,31.3-2.1,47.2
		c0.4,2.4,1.2,4.9-0.9,7c-2,0.8-2.9-3.3-5.2-1.2C1370,803.8,1371.2,797.7,1368.6,792.7z"/>
	<path class="st0" d="M459.4,795.3c-1.5,9.5-2.8,19-4.4,28.5c-0.9,5.3-4.7,9-7.8,13.1c-2.1,2.7-4,0.7-5.8-0.2
		c-21.5-11-42.2-23.5-64.9-32.1c-3.7-1.4-2.6-3.3-1.8-5.7c3.3-9.5,5.6-19.3,6.3-29.4c3.5-1.9,5.4,1,7.3,2.9
		c6.2,6,13.3,10.6,20.8,14.5c12.2,6.3,25.1,7.6,38.5,5.7c3.1-0.4,6.2-0.9,9.3-0.8C459.2,791.9,460.2,793,459.4,795.3z"/>
	<path class="st0" d="M193.4,925.8c5.4,8.2,7.5,17.6,10.7,26.6c2.2,6,4.1,12.1,8.7,17.8c-22.9,0-44.8,0-66.7,0
		c-1.8-11.4-0.3-22.9-0.8-34.3c6.4-7.5,13-14.9,22.1-19.5c2-1,4.4-1.4,6.5-0.6C180.7,918.5,188,920.3,193.4,925.8z"/>
	<path class="st0" d="M822.2,710c-0.5,1-0.9,2-1.4,2.9c-4.5-1.9-8.9-4.7-14-4.2c-19,1.8-34.2-6.9-48.9-17.3c-1.5-1-2.9-2-4.4-3.1
		c-2-3.1-0.7-7.1-2.4-10.3c-2-16.9-7.7-32.6-16.7-47c-2.7-4.3-4.7-8.6-5.3-13.6c-0.3-2.5-0.7-4.9,0.8-7.2c7.8-1.8,13.3,0.7,17.1,8
		c1.6,3,2.5,6.2,3.5,9.5c1.8,5.8,4.8,10.8,9.7,14.2c8.2,5.8,13.9,13.2,16.3,23c2.2,3.7,3.7,7.7,5.5,11.5c4.4,9.5,13.5,14,23.8,12.2
		c5.8-1,11.3-2.8,16.8-4.8c2.3-0.9,5-1.6,6.8,0.8c1.6,2.1,0.5,4.3-0.6,6.3c-1.8,3.4-4.1,6.4-6.2,9.6
		C820.5,703.8,819.5,706.8,822.2,710z"/>
	<path class="st0" d="M275.1,888c10.5,28.6,24.9,53.8,32.8,82.1c-19.3,0-38.1,0-57.5,0C260.3,943.7,263.3,915.4,275.1,888z"/>
	<path class="st1" d="M225.9,627.6c5.6,2.7,11,5.8,17.5,6.3c4,0.3,5.7,2.5,5.2,6.8c-1.7,16.9,3.4,32.1,12,46.4
		c2.3,3.8,3.7,8,5.5,12.1c1.4,1.2,1.9,2.9,2.4,4.5c0.8,3.9,0.9,7.9-0.1,11.8c-0.8,3-0.4,5.6,1.6,8c7.1,10.2,6.8,13.3-2,20
		c-0.4,0.2-0.7,0.6-1.1,0.7c-15.6,2-27.6,12.5-42,17.3c-1.7,0.6-3.3,1.3-5.1,1.1c-0.6,0.9-1.2,1.8-1.9,2.7c-1.6,0-3.2,0-4.7,0.5
		c-18.5,6.2-37.2,4.8-55.9,1.4c-4.5-1.3-9.2-2.3-11.8-7c0.5-0.4,1.1-0.8,1.6-1.2c5.3-4,11.1-2.5,16.7-1.4c25.9,5.2,49.8-0.6,73-13
		c-11.5-16.3-10.3-32.8-0.3-49.3c1.3-0.1,1.6,0.8,1.8,1.8c-1.8,6.9-4.8,13.5-5.3,20.7c-0.6,8,1.6,15.2,6.6,21.7
		c2.4-1.4,1.3-2.8,0.8-3.8c-8.1-14.3-4.8-27.2,4.9-39.1c3.6-4.4,4.7-8.4,1.6-13.3c0.5-3.7-0.1-7.1-2.8-9.9l0.1,0.1
		c-1.6-9-1.6-18,0.2-27c-0.9-3.2-3.9-4-6.4-5.5c-5.4-3.4-11.3-6.4-14.4-12.5C224.1,627.6,224.7,627,225.9,627.6z"/>
	<path class="st4" d="M267.4,742.5c7.7-6.3,7.9-8.7,1.7-17.7c-2.8-7.8,0.3-15.9-1.5-23.8c0.6-3.7,1-7.5,0-11.2
		c0.1-14.6-0.4-29.1-3.6-43.5c-2-9.3-6.3-17.2-11.9-24.6c-1.6-2.1-3.2-4.3-3.7-7.1c19.3,14.3,31.6,32.8,33.7,57.2
		c1.5,17.6,3.3,35.3,4.1,52.9c0.8,17.5-4,34.7-5.4,52.1c-0.4,4.5-6.7,3.1-9.9,5.3c-2.5,1.7-2.2-1.9-3.3-2.9
		c-1.5-1.3-2.8-2.9-4.1-4.3c-1.9-2.2-1-4.6-0.7-7C263.6,759.3,265.5,750.9,267.4,742.5z"/>
	<path class="st0" d="M401.3,860.3c2.2-4.7,4.5-9.3,6.6-13.9c1-2.1,1.4-4.6-0.6-6.3c-2.2-1.9-4.8-1.1-6.7,0.7
		c-10.5,10.5-20.2,8.8-30.4-1c-4.8-4.6-11.2-7.5-15.8-12.5c-3.3-3.7-4.8-7.6-0.5-11.7c0.8-0.8,1.3-1.8,2-2.7
		c2.8-3.3,3.8-6.1,10.5-3.6c23.3,8.8,45.5,20,68.8,28.7c6.5,2.4,6.4,3,1.1,7.2c-5.5,4.3-11.1,8.3-16.5,12.9
		C414.2,863.1,408.2,864.1,401.3,860.3z"/>
	<path class="st4" d="M459.4,795.3c-2.1-4.2-5.7-1.7-8.1-1.3c-25.9,5.1-46.9-4.2-65.5-21.4c-1.4-1.3-2.4-3.4-4.8-3.1
		c0-0.2-0.1-0.5-0.1-0.7c0.4-10.9,0.4-10.9,10.4-7.7c21.9,7.1,44.2,11.8,67.5,9.5c5-0.5,6.3,0.7,4.8,5.8
		C461.7,782.6,460.7,789,459.4,795.3z"/>
	<path class="st4" d="M1401.9,719.6c-9.5,5.3-18.1,11.6-23.6,21.3c-2.7,1.2-5.3,2.4-8,3.4c-1.7,0.6-3.6,3.1-5.2,1.2
		c-1-1.2-0.9-4.2-0.1-5.7c5.6-10.9,10.8-22.1,21-30c28.3-21.9,59.6-22.8,92.4-13.6c-21.4,0.2-42.3,2.9-61.7,12.7
		c-3.6,1.8-6.9,4.2-10.3,6.3c-1.8,1.1-2.6,2.4-1.2,4.3C1404.1,720.6,1403,720.6,1401.9,719.6z"/>
	<path class="st4" d="M492.9,863.8c2.3,7.8-1.3,15.2-2.1,22.8c-2.5,24.5-5.4,49-11.5,73c-2.5,3,0.8,8.5-2.3,9.8
		c-3.8,1.6-8.8,0.8-13.2,0.8c-4.3,0.1-8.5-0.1-12.8-0.1v-0.7c3.1-3.7-1.1-7.4-0.1-11.1c9-7.5,13.4-18.3,18.8-28.2
		C481.2,909.4,486.5,886.4,492.9,863.8z"/>
	<path class="st0" d="M259.2,909.8c-5.7,17.2-11.2,34.4-17.1,51.5c-2.9,8.4-10.6,12-18.9,8.8c-3.3-1.3-3.1-5.9-5-8.8
		c-2.9-4.4-3.8-9-0.7-13.8c8.1-12.1,18-22.7,27.9-33.3C248.9,910.5,253.7,908.6,259.2,909.8z"/>
	<path class="st0" d="M267.4,742.5c2.5,6-1.1,11.5-1.6,17.3c-0.4,5.1-1.6,10.1-2.4,15.2c-16.5-5.2-24.8,5.6-32.9,17.9
		c-3.5-10.6-6.4-20.6-10.7-30.1c4.6-3.7,10.5-4.5,15.5-7.3c1.4-0.8,2.9-1.2,4.2-2C248.1,747.8,257.2,743.7,267.4,742.5z"/>
	<path class="st6" d="M490.4,584.7c-3.7,7.8-4.4,16.4-6.9,24.5c-0.1,0.4-0.1,0.9-0.2,1.3c-4.2,18.8-8.1,21.8-26.8,18.4
		c-8.8-1.6-17.5-4.2-26-7c-7.7-2.5-9.5-6.1-7.6-13.9c2.4-10,4.4-20.2,7.4-30c3.6-11.7,7.1-14.1,19-13.6c12.1,0.5,24.1,2.1,35.8,5.9
		c3.7,1.2,6.6,3,9,6c-0.4,1.2-0.8,2.4-1.2,3.6C492,581.5,492.2,583.7,490.4,584.7z"/>
	<path class="st4" d="M1456.6,923.3c-2.8,4.8-5.9,9.1-12.2,9.2c-2.7,0-2.7,1.9-2.4,3.8c1.7,10.4,3.6,20.7,5.1,31.1
		c0.6,4.1,3.5,2.8,5.6,2.8c22.9,0.1,45.9,0,68.8,0.1c2.2,0,4.5,0.1,6.7,0.2c-1.9,1.6-4.3,1.1-6.5,1.1c-33.6,0-67.2,0.4-100.9-1
		c-3.9-0.2-5.3-0.7-3.4-4.8c6.9-14.5,13.8-29.1,20.5-43.7c1.3-2.8,2.9-2,4.8-1.1C1447.2,923.1,1451.9,923.7,1456.6,923.3z"/>
	<path class="st4" d="M224.4,628.9c5.9,4.5,11.1,10.2,18.6,12.5c2.6,0.8,4.2,2.6,1.6,5.3c-4,3.2-8.4,2.3-12.5,0.6
		c-3.7-1.5-7.4-3.1-10.5-5.5c-5.8-4.5-9.3-2.4-12,3.4c-2.4,1-5,1.6-7.3,3c-5.9,2.5-11.9,4.8-17.7,7.5c-6.7,3.1-13.6,5.4-21.1,4.5
		c-0.2-3-1.3-3.4-3.4-1.2c-2.1,2.1-3.2,5.1-6,6.6c-3.5-0.5-5.5,4-9.2,2.8c-1.2-6.5,1.6-9.7,7.3-13.5c8.1-5.4,16.7-5.3,25.4-6.6
		c17.1-2.7,30.1-11.1,37.4-27.2c1.7,1.4,3.5,2.8,5.2,4.1C221.8,626.2,223.3,627.3,224.4,628.9z"/>
	<path class="st4" d="M259.2,909.8c-13,1.8-18.9,12.4-26.5,21c-5,5.6-9.5,11.8-15.3,16.7c0.9-5.3,1.8-10.5,2.8-15.8
		c2-10.1,4.6-20.1,4.1-30.5c-0.1-1.7-0.9-4.1,2.7-3.9c11.2,0.5,22.3-1.3,33.3-3.5c1.7-0.3,3.9-1,5.2,0.3c1.4,1.6-0.5,3.3-1.1,4.8
		C262.7,902.6,260.9,906.2,259.2,909.8z"/>
	<path class="st4" d="M1457.9,855.8c-2.2-4.7-7.8-4.2-11.2-7.5c-17.5-16.8-32.8-35-38.1-59.4c-0.8-3.8-2.5-5.7-6.2-6.7
		c-6.9-1.8-12-6.8-17.5-10.9c-1.6-1.2-2.6-3.3-5-3c-1.1-5.5-0.9-10.6,3.8-14.6c4.7,13.1,11.9,23.6,27.2,25.3
		c3.7,0.4,3.1,3.4,3.7,5.5c4.2,15.3,10.9,29.3,21.8,41.1c8,8.7,18.4,13.3,30,17.7C1463.3,847.4,1460.6,851.6,1457.9,855.8z"/>
	<path class="st4" d="M156.7,765.5c19,2.9,38,4.7,56.8-1.6c1.9-0.6,3.5-0.4,4.5,1.5c0.2,6.3,0.5,12.6,0.7,19
		c-2.7-1.4-5.2-1.3-8.2-0.5c-10.9,3.2-22,4-33.2,1.8c-3.1-0.6-6.1-1.6-8.2-4.2c-1.3-2.8-2.4-5.8-4-8.4c-1.9-2.9-4.2-5.7-8-2.2
		C155.1,769.2,155.3,767.4,156.7,765.5z"/>
	<path class="st4" d="M193.4,925.8c-4.4-1.9-8.9-3.8-13.3-5.8c-9.4-4.4-13-3.6-20.7,3.6c-4.1,3.9-7.1,9.3-13.1,11
		c-2.1-9.4-0.6-18.9-0.8-28.3c10.1-3.3,20-7,29.9-10.8c1.1-0.4,2.2-0.2,3.1,0.7l-0.1-0.1c3.8,6.8,7.8,13.5,11.4,20.3
		C191.3,919.4,193.3,922.3,193.4,925.8z"/>
	<path class="st0" d="M169,781.6c16.1,5.4,31.9,4.6,47.8-1.8c0.6,1.4,1.3,3,1.9,4.5c1.9,13,0.5,15.1-12.5,18.5
		c-2.6,0.7-5.2,1.3-7.9,1.5C181.3,805.9,174.9,800.9,169,781.6z"/>
	<path class="st4" d="M484.8,646.8c-18.6,4.4-37.3,7.5-56.5,3.4c-6.5-1.4-13.2-1.8-19.8-3c-11.3-2.2-11.5-2.7-7.5-14
		c15.1,3.2,30.2,6.2,45.2,9.5C458.9,645.4,471.7,647.3,484.8,646.8z"/>
	<path class="st7" d="M449.8,840.4c0.2-0.8,0.1-1.4,0.4-1.7c7.4-6.4,11.8-14.3,12.5-24.1c0.4-5.2,3.3-5.6,7.4-4.5
		c1.5,0.4,3,0.8,4.5,1.2c8.6,2.4,10.6,6.6,7.4,14.8c-1.1,2.7-3.1,2.1-5,1.9c-2.7-0.3-5.6-1.1-7.2,1.9c-1.6,3.2,0.9,5,3.1,6.6
		c3,2.1,3.1,4.8,1.8,7.7c-1.4,3.1-4.1,1.9-6.4,1.3c-2-0.5-3.9-1-5.8-1.6C458.2,842.8,454,841.6,449.8,840.4z"/>
	<path class="st1" d="M148.7,831.4c9.1,4.3,18.2,8.6,26,15.1c10.2,8.7,11.1,17.2,3.1,27.8c-1.1,1.4-1,2.9-1.4,4.3
		c-0.5,0.5-1.1,0.8-1.7,1c-7.7,4-15.4,8.1-24.5,5.4c-4.1-4.3-4-6.4,0.8-9.1c1.8-1,3.8-1.4,5.7-1.9c4.1-1.2,8-2.7,11.3-5.6
		c5.2-4.7,5.6-7.6,1.4-13.2c-5-6.8-12.4-10.8-18.1-16.8c-1.5-1.6-4.5-2.4-3.9-5.6C147.8,832.3,148.3,831.9,148.7,831.4z"/>
	<path class="st4" d="M1096.2,867.8c8.3,7.3,12.7,17.4,19.1,26c-0.6,0.2-1.3,0.7-1.8,0.6c-4-0.5-8.1,3.9-11.2,1.7
		c-2.6-1.9-3.2-6.6-4.8-10.1c-3.8-8.9-10.9-12.5-20.2-12.5c-4.2,0-8.6,0.1-12.5-1.9c-2.8-1.5-4.7-3.3-0.3-5.3
		c3.4-1.6,6.8-3.3,10.2-4.9c8.2-1,15.3,1.2,21.6,6.5L1096.2,867.8z"/>
	<path class="st4" d="M228.1,814.2c5.2,0.4,6.6,3.4,4.9,7.8c-3.1,8.3-5.8,16.8-10.6,24.5c-4.1,6.6-3.7,13,1.4,19.1
		c1.7,2,2.2,4.3,3,6.6c-4.4,0-8.5-1.1-12.3-3c-8.1-4-10.6-12.5-6-20.3c1.5-2.5,3-5.1,4.9-7.2C220.8,833.8,225.8,824.7,228.1,814.2z"
		/>
	<path class="st8" d="M156.7,765.5c0.1,1.8,0.2,3.7,0.3,5.5c-0.1,10.6,6.1,19.3,10.2,30c-8.3-3.4-14.9-0.7-22.5,2.2
		c0.6-14.8-1-28.9,0.9-43C149.4,761.7,152.4,765.1,156.7,765.5z"/>
	<path class="st9" d="M231,891.8c-2.2-0.2-4.5-0.5-6.7-0.4c-5.6,0.1-6.7-2.5-5.7-7.6c0.6-2.9,1.2-3.5,4.2-3.1
		c15.2,2.2,30.3,2.9,44.4-5.1c4.6-2.6,3.4,2.4,4.4,4.2c1.4,2.5,3.1,6.3-1.4,6.8C257.1,888,244.4,892,231,891.8z"/>
	<path class="st10" d="M147.4,832.8c7.5,6.7,15.5,13,22.4,20.2c7.3,7.6,6.1,12.8-2.9,18.4c-4.4,2.8-9.5,3.9-14.4,5.5
		c-3.8,1.2-6.2,3.1-2.6,7.1c-3.5,6-2.1,12.4-1.7,18.7c0,1.1-0.2,2.1-1.1,2.9c-2.7,9.6-0.9,19.3-0.9,29c-0.1,11.9-0.1,23.7-0.2,35.6
		c-2.5-1.3-1.3-3.6-1.3-5.4c-0.2-41.2-0.3-82.5-0.1-123.8C144.6,838.4,142.1,834,147.4,832.8z"/>
	<path class="st4" d="M351.1,662.9c1.3,5.3,3.3,10.8-3.1,14.5c-0.8-2.5-1.1-5.7-4.8-5.1c-3.1,0.5-3.7,3.5-4.2,6.1
		c-0.3,1.7,0.2,3.5-1.2,5c-1.5-0.8-1.9-2.3-2.4-3.7c-0.3-0.6,0.2-1.4-0.6-1.9c0,0.4-0.2,0.7-0.6,1c-0.2,0.1-0.5,0.2-0.7,0.2
		c-7.4-5.3-12.2-11.8-10.7-21.5c0.5-3.2,1-6.3,5-6.9C334.5,656.9,342.8,660,351.1,662.9z"/>
	<path class="st11" d="M1142.2,962.2c-5.1,0.5-10.2,0.9-15.3,1.6c-2.4,0.3-4.8,1.1-6.8,2.5c-1.4,1-0.5,4.4-3.1,3.5
		c-2.3-0.8-1.6-3.4-1.7-5.4c-0.8-11.2-0.8-11.2,9.9-15.7c3.3-1.4,6.6-2.9,10.3-2.5C1140.2,950.5,1142.2,955.9,1142.2,962.2z"/>
	<path class="st12" d="M1117.8,903c9.4-2.5,22.2,1.8,28.2,9.4c-0.8,2.2-0.8,4.5,0,6.7c0.1,1.7,2.1,3.4,0.7,4.9
		c-1.4,1.6-3.2-0.1-4.8-0.6c-3.1-1-6.2-2-9.3-3c-2.2-1.1-4.6-0.2-6.9-0.6C1120,915.6,1118.5,909.5,1117.8,903z"/>
	<path class="st13" d="M1383.6,753.6c-2.8,4.5-2.9,9.7-3.8,14.6c-0.1,0.9-0.1,1.8-0.2,2.7c-1,6.1-0.3,10,7.4,11.6
		c9,1.9,15,8.5,17.6,17.7c0.4,1.5,1.3,3.2-0.6,4.1c-1.7,0.7-2.4-0.8-2.8-2.1c-3.7-9.7-12.4-12.8-21.3-16.5c-0.9,7.4,1.5,14,2,20.8
		c0.2,2.4,1.3,6.1-3.6,3.5c-0.7-10.4-3.3-20.6-2.6-31.1c0.6-9.8,1.4-19.5,6.3-28.3C1383.4,751.1,1383.7,752.2,1383.6,753.6z"/>
	<path class="st14" d="M1142.2,962.2c-2.3-5.3-4.5-10.6-6.8-15.9c15.5-1.1,22.1,4.1,25.4,19.8
		C1154.7,963.6,1148.4,963.2,1142.2,962.2z"/>
	<path class="st10" d="M440.4,860c-6,4.8-9.5,11.5-13.9,17.6c-4.6-2.6-9.9-2-14.7-3.1c0.9-3.5-2.5-3.4-4-4.9
		c7.6,1,13.1-3.1,18.6-7.5c4.6-3.8,9.3-7.4,15-12C441.2,854.3,442.2,857.2,440.4,860z"/>
	<path class="st4" d="M1105.8,826.3c2.9,1.2,5.9,2.1,8.6,3.5c6.8,3.6,7.3,8.9,1.8,18c-3.7-10-10.5-14.9-21.4-13.5
		c-3,0.4-5.8-0.4-7.7-4C1093.4,828.6,1099.4,826.8,1105.8,826.3z"/>
	<path class="st10" d="M173,808.5c-7,5.2-14.8,8.5-23.5,9.8c-6.7,1-2.6,6.9-3.5,10.5c-2.9-6-3.3-14,0.3-17.5c5.3-5.3,13.1-9.5,22-7
		C170.6,805,172,806.4,173,808.5z"/>
	<path class="st15" d="M1117.8,903c3.3,5.1,4.1,11.4,8,16.2c0.5,0.2,0.7,0.5,0.5,0.7c-0.1,0.3-0.3,0.4-0.4,0.4
		c-4.4,0.5-8.9,1.1-13.3,1.6c-3.1,1.7-3.2-1.1-4.1-2.7c-0.4-0.8-0.9-1.6-1.1-2.4C1104,904.5,1104.5,903.9,1117.8,903z"/>
	<path class="st16" d="M1128.7,927.5c0.4-0.1,0.9-0.2,1.3-0.2c16-1.8,19.1,0.6,21.3,18.1c-6.1-4-12.7-4.2-19-5.6
		C1130,936,1126.8,932.5,1128.7,927.5z"/>
	<path class="st17" d="M1128.7,927.5c0.7,4.2,3.8,7.8,3.7,12.3c-4.1,1-8.2,2.5-12.3,2.9c-2.4,0.2-6.1,5.6-7.7-1
		c-1.1-4.7-3.7-9.8,4-11.4C1120.5,929.3,1124.4,927.5,1128.7,927.5z"/>
	<path class="st4" d="M574,686c1.7-8.2-2.2-10.3-9.8-11.4c-7.5-1-16.6-0.8-20-10.5c6.3-0.6,12.4,1,18.5,2.1
		c4.3,0.8,11.9,0.1,12.3,2.8C575.7,674.3,576.8,680.5,574,686z"/>
	<path class="st18" d="M1155.8,815c-4.2,0.2-8.4,0.4-13.1,0.6c5.1,7.5,4.1,14.9,0.4,22.3c-0.7-9.9-6.3-16.6-15.3-22.7
		C1138,814.4,1146.8,812.9,1155.8,815z"/>
	<path class="st19" d="M1089.6,843.8c4.6,4.4,9.8,8.5,7.9,16.2c-4.1-10.9-14.9-8.3-23.8-11.5C1078.8,844.7,1084,843.6,1089.6,843.8z
		"/>
	<path class="st4" d="M464.6,851.9c-0.1,2.5,0.4,5.3-2.7,6.3c-6.1,1.9-10.1-2.1-14.2-6.1c-0.7,2-1.3,3.5-1.9,5.1
		c-0.1-1.8-0.2-3.5-0.3-5.3c-0.1-3.5,1.3-4.9,4.9-3.8C455.1,849.5,459.9,850.7,464.6,851.9z"/>
	<path class="st20" d="M1096.3,867.9c-7-2.9-14.2-5-21.6-6.5c0.4-0.2,0.7-0.5,1.1-0.7C1087.4,854.4,1090.6,855.5,1096.3,867.9z"/>
	<path class="st21" d="M617.3,486.3c4.8,6.6,6.1,13.5,1.1,21c1-7.6-6.3-13.1-4.6-20.9C615,486.3,616.2,486.3,617.3,486.3z"/>
	<path class="st22" d="M337.5,707.6c-5.8-4.3-5.8-10.3-4.9-16.7c0.6-3.9,0.6-7.9,0.9-11.8c0.2,0.2,0.5,0.3,0.8,0.3
		c1.1-0.1,1.8,0.5,2.4,1.4c0.6,2.5-0.6,5.2,0.7,7.6c0,1.9,0,3.8,0.1,5.6c-1.1,2.7-1.1,5.4,0,8C337.6,703.8,337.5,705.7,337.5,707.6z
		"/>
	<path class="st10" d="M183.5,897.8c7.3,4.3,14.1,9,13.5,18.9C192.5,910.5,188,904.2,183.5,897.8z"/>
	<path class="st23" d="M1404,970.5c-0.8-5.4,0.9-9,6.9-9.3C1408.4,964.2,1410.4,970.5,1404,970.5z"/>
	<path class="st24" d="M1156.8,968c1.8-0.3,3.3,0.2,5.4,2.3c-6.3,0-11.8,0-17.4,0c-0.7-0.6-2.1-0.8-1.1-2.2c1.3-0.1,2.6-0.1,3.8-0.2
		C1150.7,968.8,1153.7,968.7,1156.8,968z"/>
	<path class="st25" d="M144.9,668.3c3-1.2,5.2-5,9.2-2.8c-2.1,1.9-4.4,3.6-7.1,4.6C144.8,670.9,144.6,669.9,144.9,668.3z"/>
	<path class="st26" d="M752,677.6c2.4,3.3,1,7.2,1.5,10.8c-0.6,0.6-1.1,1.1-1.7,1.7c-0.3-2.8-0.6-5.6-1-8.4
		C751.9,680.5,750.6,678.7,752,677.6z"/>
	<path class="st27" d="M1143.7,968.1c0.4,0.8,0.8,1.5,1.1,2.2c-3.5,0-7,0-10.5,0c-0.1-0.3-0.1-0.6-0.2-0.9
		C1137.4,969,1140.6,968.6,1143.7,968.1z"/>
	<path class="st28" d="M490.4,584.7c0.6-1.7,0.8-3.6,2.5-4.7c0.2,3.1,0.3,6.1-1.3,8.9C491.2,587.5,491.8,585.8,490.4,584.7z"/>
	<path class="st29" d="M742.5,682.6c1.4-1.3,2.8-2.5,4.1-3.8c0,3.1-2.1,4.4-4,5.8C742.6,683.9,742.5,683.3,742.5,682.6z"/>
	<path class="st9" d="M1156.8,968c-3.1,1.6-6.2,1.8-9.2-0.1C1150.7,968,1153.7,968,1156.8,968z"/>
	<path class="st30" d="M337.5,688.3c-2.8-2.2-0.8-5.3-1.5-7.9c-0.3-0.6-0.2-1,0.6-1.2c1.5,1.1,0.8,2.8,1.3,4.2
		C337.8,685,337.6,686.7,337.5,688.3z"/>
	<path class="st31" d="M171.4,639.8c0.9,1.9,3,0.6,4.3,1.5c-1.9,1-4,1.8-5.8,0.6C169.2,641.5,170.5,640.3,171.4,639.8z"/>
	<path class="st32" d="M337.6,702c-1.9-2.7-2.1-5.4,0-8C337.6,696.6,337.6,699.3,337.6,702z"/>
	<path class="st33" d="M480.2,551.5c-1.9,0.9-3.4,1.1-3.9,0.2c-1.2-2.2,0.6-1.1,1.4-1C478.4,550.8,478.9,551.1,480.2,551.5z"/>
	<path class="st34" d="M491.5,551c-0.4,0.8-0.9,1.7-1.3,2.5c-1,0-2.1,0-3.9,0C488.1,551.5,489.7,551,491.5,551z"/>
	<path class="st35" d="M618.4,579.2c0.1-0.5,0.2-1,0.3-1.5c2.1-0.5,3.8-0.1,5.2,1.6c-0.2,0.4-0.2,0.8,0,1.2
		C621.9,580.5,619.9,581,618.4,579.2z"/>
	<path class="st36" d="M1145.9,919.2c-1.8-2.2-1.7-4.5,0-6.7C1146,914.7,1146,916.9,1145.9,919.2z"/>
	<path class="st37" d="M1108.5,919.3c1.3,1,2,2.9,4.1,2.7C1108.9,924.5,1108.2,922.6,1108.5,919.3z"/>
	<path class="st38" d="M1125.9,920.4c-0.1-0.4-0.1-0.8-0.1-1.2c2.3,0.3,4.8-0.8,6.8,1.2C1130.3,920.4,1128.1,920.4,1125.9,920.4z"/>
	<path class="st39" d="M795.5,738.9c-0.5-0.6-1-1.1-1.4-1.7c0.2-1.3,0.8-2.3,2.1-2.8c0.5,0,1,0,1.6,0
		C796.9,735.8,796.2,737.4,795.5,738.9z"/>
	<path class="st40" d="M1538.6,971.4c-1.1,0.2-1.9,0.5-2.6,0.4c-0.6,0-2,0-0.9-1.2c0.5-0.5,1.4-0.8,2.2-0.9
		C1537.5,969.7,1537.9,970.5,1538.6,971.4z"/>
	<path class="st0" d="M1267.6,113.8c1.6-0.1,3.1-0.3,4.7-0.3c161.4-0.2,322.9-0.3,484.3-0.6c5.3,0,6.7,1.3,6.7,6.7
		c-0.2,94.6-0.3,189.2-0.3,283.9c0,4.4-0.6,6.1-5.7,6.1c-102.8-0.2-205.5-0.1-308.3-0.1c-1.1,0-2.2-0.2-3.3-0.3
		c-1.1-1.2-0.8-2.6-0.1-3.7c4.4-6.5,9.3-12.6,12.7-19.8c1.2-2.5,4.2-2.5,6.6-2.4c9.1,0.4,16.7-2.7,22.7-9.6c2-2.2,4.6-3.5,7.5-4.3
		c13.9-4.1,17.7-15.8,17.2-27.2c-0.3-9.5-3.7-18-8.9-26.4c-10.8-17.6-24.1-32.2-42.6-41.9c-3.1-1.6-6.5-3.4-7.3-7.4
		c-0.6-4.2,0-8.5-0.4-12.7c-1.2-10.5-6-17-17.1-22.9c13.4,6.7,18.4,15.5,14,35.4c-5.5,0.8-9.3-1.5-12.1-6.1
		c-1.5-2.6-1.9-5.6-2.9-8.5c-3-9.8-5.8-14.1-12.5-18.4c7.9,10.2,14.3,20.6,4.3,33c-12.2,5.3-25.1,8.5-37.3,13.6
		c-14.4,6-27.3,14.5-39,25c-4.7,4.2-7.6,9.2-8.5,15.6c-0.9,6.8-2.7,7.7-8.9,4.9c-2.1-0.9-4.3-1.2-6.2-2.4c-8.4-3.9-15.8-9.2-23-14.9
		c-0.4-7,1.7-13.5,3-20.2c0.3-1.6,1.7-2.6,3-3.4c5.1-3.3,8.9-8,12.8-12.5c7.6-4,16.1-3.4,24.2-4.6c16.8-2.6,33.6-5.3,50.4-8.1
		c-6.5-0.7-12.7,0.8-18.9,2c-13.2,2.5-26.5,4.5-39.8,6.7c-2.7,0.5-5.3,0.5-8,0c-3.1-0.9-4.1-3.3-2.4-5.6
		c11.4-15.9,6.5-33.4,5.6-50.6c-0.1-2.3-0.3-4.4,1-6.4c17.1-10.3,35-19.1,51.5-30.5c13.2-9.1,24.8-20,36.6-30.7c1.1-1,2.9-2.4,2-3.9
		c-1.2-1.9-3.2-0.7-4.8,0.1c-7.1,3.7-12.4,9.6-18.3,14.8c-20.1,17.9-43.3,31.1-66.7,43.9c-0.2,0-0.6,0.2-0.6,0.1
		c-5.9-10.5-18-17.6-17-31.8c5.7-9.8,13.6-17.7,22.1-25c5.1-4.4,10.2-8.7,14.4-15.3c-2.7,0.5-3.8,1.8-4.9,3
		c-8.8,9.2-18.7,17.6-26.6,27.6c-1.6,2.1-3.4,4.3-6.6,4.2c-2.7-0.9-3.2-3.5-4.2-5.7c-8-16.4-19.2-29.4-36.7-36.3
		C1272.1,118.6,1268.1,118.2,1267.6,113.8z"/>
	<path class="st0" d="M1208.1,144.7c3-3,6.4-5.7,7.5-11.1c8.4,10,19.3,16,28.7,23.8c15.9,13.2,24.7,31.6,33.4,49.9
		c1.2,2.4-0.2,3.1-1.6,4.3c-1.7,1.4-3.3,3-4.9,4.6c-0.7,0.7-0.8,1.7,0.2,2.3c0.4,0.3,1.4,0.3,1.7,0c3.7-3.7,5.7-5.1,11.3-0.4
		c5.4,4.6,2.5-3.9,4.2-6.1c2.7-0.4,5.4,0.2,7.1,2.5c5.4,7.3,8.5,15.5,6.9,24.6c-0.9,5.2-4.7,8.1-10.4,7c-1.3-0.2-2.6-0.7-3.9-1
		c-8.6-2.1-9.2-1.7-9.1,7.3c0.1,26.6-6.5,50.6-26.8,69.4c-14.7,13.7-32.1,21.9-51.6,25.9c-26.2,5.4-52.1,5-77.6-4.4
		c-10-3.7-19.2-8.7-27.2-15.7c-11.6-9.4-21.1-20.6-29.4-32.9c-0.2-2.5,3-5.1,0-7.4c-2.9-2.1-5.5,0-8.1,1.1c-1.4,0.6-2.7,1.5-4.1,2.2
		c-6.4,1-10-1-10.9-7.2c-1.2-8-0.8-16-0.2-24c0.2-2.3,0.7-5.3,4.5-3.9c1.7,0.6,3.3,1.5,5,1.9c3.3,0.9,4.9-0.1,3.1-3.7
		c-0.2-0.7-0.1-1.5,0.1-2.2c-3-15.8-2.7-31.6-1.3-47.6c1.2-2.5,3.7-3.1,5.9-4c10.9-4.6,21.2-10.3,30.9-16.9c2.9-2,5.9-5.1,10.2-3.1
		c7.6,3.7,15.2,0.1,22.9,0.1c-1.8,6.6-4.4,8.4-10.2,7.4c-3-0.1-4.4,2.2-5.5,4.3c-5.4,10-13.9,16.2-24.3,20.1
		c10.6-2,19.7-6.4,25.9-15.7c1.1-1.6,1.7-3.7,3.9-4.4c3.4,1.7,6.7,2.8,10.7,3c27.9,1.2,50.5-10,69.9-29.1c0.5-0.5,1.1-0.7,1.8-0.9
		c5.1,3.4,9.2,8.1,15.8,9.4c5.9,1.2,11.4,3.8,17.4,5.3c-4.5-3.9-10.2-5.8-15.3-8.7c-5.2-2.9-11-5-15.1-9.8c-0.7-4.4,3.1-6.7,4.8-10
		C1205.4,148.8,1207.2,147,1208.1,144.7z"/>
	<path class="st3" d="M1439.1,259.5c2.3,4.2,7.1,4.4,10.6,6.7c1.9,5,3.6-0.7,5.3-0.1c2,4.8,6.7,6.6,10.7,8.6
		c21.3,10.9,33.9,29.8,44.6,49.8c4.7,8.8,5.5,19.3,2.6,29.4c-2.6,8.9-8.4,14.9-17.3,17.1c-3.3,0.8-5.7,2.4-7.8,4.8
		c-5.7,6.6-12.8,9.7-21.4,9c-4.3-0.3-7,0.7-8.5,5.2c-2.5,7.2-9.3,12-12.2,19.1c-6.9,0.1-13.9,0.2-20.8,0.2c-2.1,0-4.8,0-3.4-3
		c4.2-9.2,4.5-19.5,9.1-28.5c2.3-1.1,2.4-2.9,1.9-5.1c0.1-1.1,0.6-2.1,1.7-2.6c8.1-3.5,6.1-10,5.1-16.3c1-1.3,2.1-2.6,3.9-2.9
		c2.9,2.8,5.6,5.8,8.8,8.3c3.4,2.6,7.3,3.6,11.2,0.7c3.7-2.7,3.6-6.6,2.4-10.4c-2-6.3-4.4-12.6-5.5-19.7c4.1,3,8.1,5.9,12.2,8.9
		c5.3,3.9,10.9,7.1,17.7,7.6c7,0.5,10.1-3.3,8-10.1c-1.7-5.7-5-10.5-9.1-14.8c-13.4-14.1-28.9-25.5-44.5-37
		c-7.7-5.7-16.5-3-24.7-1.2c-8.6,1.9-16.9,5.1-24.2,9.9c-9.5,6.1-19.3,11.1-29.8,15.4c-3.8,1.5-8.5,3.6-7.5,9
		c0.9,5.2,5.7,6.9,10.1,7.5c5.1,0.6,10.2,0.1,16.6,0.1c-9.8,17.9-19.8,34.7-27.6,52.7c-2.8-0.4-2.3-2.8-3-4.1
		c-1.9-3.8-3.2-7.9-5.4-11.5c-11.5-19-26.3-24.7-47.6-18.3c-18,5.5-36.1,11-51.9,21.8c-3.4,2.3-5.2,2-6.7-2
		c-2-5.4-6.9-10.8-6.6-15.9c0.3-5.3,8.5-5.9,12.7-9.3c12.9-10.4,24.3-22,31-37.4c1.4-3.3,2.4-4.9,5.8-1.7c5,4.8,10.5,9.1,15.7,13.6
		c1.9,2.6-0.5,5-0.7,8c4.2,0.9,8.6-0.4,12.7,0.7c9.9,6.4,19.9,12.8,29.8,19.1c2.4,1.6,4.9,3,7.5,4.4c1.6,0.8,3.5,1.6,4.8-0.2
		c1.5-2.1-0.6-3.3-1.8-4.4c-5.5-5-12.1-8.4-18.3-12.3c-2.8-1.8-5.6-3.6-8.4-5.4c4.4-0.8,8.9,4.1,12,1.8c2.4-1.9,1.5-7.6,3-11.1
		c3.9-9.3,12.4-14.4,20-20.3c16.9-12.9,36.9-19,56.7-25.6c2.7-0.9,5.5-1.8,8.3-2.6c1.9,1.7,0.9,5.1,3.7,6.2c4.7,1.2,5.7-2.2,6.8-5.4
		C1438.3,263.8,1437.1,261.2,1439.1,259.5z"/>
	<path class="st0" d="M973.1,408.1c-1.7-1.7-0.9-3.8-0.9-5.7c-0.1-24.7,0.1-49.4-0.2-74.1c0-4.7,1.4-6,5.8-7.5
		c7.8-2.6,15.1-6.8,22.6-10.2c3-1.4,6.1-2.6,9.2-3.9c2.2-1.2,4.1-0.2,5.4,1.3c7.1,8,16.7,10.6,26.5,12.9c2.2,3.7-1.2,5.3-3,7.1
		c-17.6,17.7-34.8,35.7-54,51.7c-1,0.9-2.2,1.6-2.5,3.7c3,0.3,4.8-1.9,6.6-3.4c17.9-14.5,32.7-32,48.2-48.8
		c3.9-4.3,7.2-9.3,13.1-11.3c4-1.2,7,0,9.3,3.4c5.1,7.5,11.8,13.4,18.5,19.5c4.8,4.3,5.1,6,0.2,9.4c-11.2,7.9-15.4,19.5-17.8,32
		c-1.3,6.6-2.6,13.2-2.2,20c0.2,3-1,4.5-4.3,4.5C1026.9,408.2,1000,409.2,973.1,408.1z"/>
	<path class="st0" d="M1055.7,252.9c0,0.2,0.1,0.4,0.2,0.7c-3.3-3.6-8.1-4.2-12.1-6.4c3.5-6.3,1.9-12.4-0.2-18.6
		c-7.2-20.7-7.3-41.8-4.5-63.2c1.3-9.6,5.5-18.1,10.4-26.1c4.6-7.5,8.9-15.1,13.1-22.8c1.7-2,3.6-3,6.4-3c47,0.1,94,0.1,141,0.1
		c0.4,0,0.9,0.2,1.6,0.4c-0.9,3.4-3.5,6.3-3.3,10c0.5,8.9-5,13.5-11.8,17.9c-19.4,12.4-39.6,22.9-62.7,26.6
		c-2.3,0.4-4.6,1.2-7.2,0.2c9.5-6.9,16.5-15.3,17.2-27.4c-0.2-4-1.1-8,2.7-12c-4.8-0.7-7.6,1.3-10,3.3c-21.4,18-45.4,32-69.8,45.4
		c-0.4,0.2-0.8,0.5-1.1,0.7c-19.4,12.4-19.1,12.3-15.7,35.1c1.8,11.9,2,24.1,6.8,35.5C1057,250.6,1056.7,251.9,1055.7,252.9z"/>
	<path class="st3" d="M973.1,408.1c25.4-0.1,50.8-0.3,76.2-0.3c4.9,0,6.5,0.1,7-6.8c1.4-20.3,3.7-41.2,24.8-53.1
		c-9.3-8.2-18.4-15.7-24.8-25.9c-2-3.2-5,0.4-7.4-0.5c0.1-5.5,5.5-7,7.6-10.1c-5.1,2.1-7.5,9-14.1,10.2
		c-10.6-0.3-19.9-3.6-27.2-11.5c-1.5-1.6-3-3.3-5.5-3.4c5.1-2.3,10.1-4.6,15.2-6.9c-6.2-1.6-10.9,2.5-16.4,3
		c-7.3-4.6-8.5-12.4-9.5-19.8c-1.4-10.8-0.6-21.6,5.5-31.1c2.4-3.7,1.6-6.2-1.1-9.5c-9.6-11.8-9.5-26-9.6-40.1c0-2.2,1-4.4,2.6-6.1
		c1.5-0.2,3.1-0.6,4.6-0.7c14.8-1.6,14.7-1.6,17.3,12.7c2.7,15.2,10.9,27.3,21.6,38.7c-14.7,6.9-16.8,20.5-17.7,33.9
		c-1.4,19.9,17.2,31.2,34.8,21.9c1.6-0.8,3.1-1.8,4.4-2.6c17.6,36.8,48.6,54.4,87.2,60.4c7.6,1.2,10,4,10,10.8
		c0,1.5,0.4,3.1,0.7,5.6c-7-2.1-13.4-4.2-19.9-6.1c-7.3-2.2-14.7-3.9-22.3-5.1c-24.6-3.9-39.2,7.5-40.7,32.3
		c-0.7,10.9-0.7,10.9-11.7,10.9c-28.1,0.1-56.2,0.4-84.3,0.5C977.8,409.1,975.2,410.1,973.1,408.1z"/>
	<path class="st0" d="M1331.1,356.4c7,4.5,10.4,11.5,13.5,18.7c2,4.7,3,9.8,6.1,14.1c2.4,3.4-0.9,6.3-1.9,9.3
		c-3.6,10.7-3.7,10.7-14.8,10.7c-33-0.1-66-0.1-99-0.2c-1.7,0-3.4,0-6.5,0c7.7-9.9,12.1-20.1,16.2-30.6c0.3,0,0.6,0,0.9,0
		c4.8,1.2,9.3,3.1,14.1,4.3c6.8,1.6,7.6,5.1,3.2,10.7c-1.4,1.8-3.2,3.1-5.1,4.3c-1.8,1.1-3.9,2-4.4,4.7c7.5-0.5,15.4-8,16.4-14.5
		c0.7-4.7-4-4.9-5.5-7.6c-0.2-3.2,2.2-4.3,4.5-5C1289.6,368.9,1309.3,359.3,1331.1,356.4z"/>
	<path class="st0" d="M996.3,196.1c-2.9,10.7,0.2,21.2,1.6,31.7c0.9,6.3,4.2,11.9,9.3,15.9c2.4,1.9,2.5,3.3,1,5.5
		c-11.5,17.9-10.6,35.7,0.3,53.5c-10.2,4-20.4,7.9-30.5,12.2c-4.7,2-5.9,1.2-5.9-4c0.1-34.4,0-68.7-0.1-103.1c0-4.2,0-8.5,0-13
		C980.2,198.2,988.3,195.2,996.3,196.1z"/>
	<path class="st0" d="M1450,297.1c12.7,9.5,25.6,18.8,35.8,31.1c2.7,3.3,7.7,7.6,4.8,11.1c-2.2,2.6-7.6-1.3-11.2-3.4
		c-0.9-0.5-1.7-1.4-2.5-2.2c-3.5-5.9-9.3-8.3-15.3-10.5c-9.2-2.5-10.3-1.2-8.9,10.5c-0.6,4.7,0.2,9.7-2.8,13.8
		c-3.6-2.6-5-6.8-7.5-10.2c-2.3-3.2-4.2-7.7-9.3-5.6c-4.9,2.1-3.5,6.7-2.9,10.6c1,6.6,3.3,13,3.3,20c-4.2-1.2-5.1-4.6-6.5-7.5
		c-1.8-3.6-3.1-7.5-5-11c-1.9-3.4-4.6-6.5-9-6c-4.4,0.5-6.4,4-7.4,7.8c-1.3,4.8-2,9.7-2.9,14.5c-0.9,4.3-1.1,8.8-4.5,13.5
		c-1.8-6-0.6-11-0.2-15.8c1.2-12.8,2.2-25.5-3.6-37.6c1.7-3.7,5.4-4.6,8.6-6c8.1-3.4,16-7.2,24.6-8.9
		C1435.5,303.9,1442.1,298.8,1450,297.1z"/>
	<path class="st3" d="M1334.9,205.1c1,9,2.1,18,2.8,27.1c0.8,10.6-0.5,20.9-7.3,29.7c-1.4,1.8-3.2,3.8,0.8,4.6
		c-0.9,3.2-3.8,2.7-6,3.1c-9,1.6-18.2,2.1-27.2,4.1c5.3-0.9,10.7-1.2,16-2c3.1-0.5,6.2-1.2,9,1.2c-0.9,4.9-4.8,8.1-8.3,10
		c-6.4,3.5-7.2,9-7.8,14.9c-0.4,3.6-1.4,7-2.8,10.3c-6-4.6-12-9.3-18.1-13.8c-1.6-1.2-2.5-2.2-1.7-4.4c3.7-10.2,4.2-21,4.9-31.7
		c0.1-2,0.1-2.9,2.9-2.8c12.7,0.3,23.2-10.2,19.3-21.9c-4.4-12.9,1.5-17.4,11.1-21.7C1326.7,209.7,1330.7,207.3,1334.9,205.1z"/>
	<path class="st0" d="M1286.1,205.3c-5.8-15.7-14.1-28.4-23.2-40.6c-5.7-7.7-12.8-13.8-21.3-18.3c-8-4.3-15.3-9.4-21.8-15.7
		c-2.7-2.7-4.3-13.2-2.5-16.1c0.3-0.4,1.1-0.9,1.6-0.8c7,0.6,14.3-1.9,21,2.3c28.3,17.8,43.9,43.5,47.5,76.5
		C1288,196.2,1287.9,200,1286.1,205.3z"/>
	<path class="st4" d="M1166.4,362.2c21.7-1.5,43.2-3.7,63.4-12.4c1.7,5.6,2.1,11.8,6.6,16.3c0,0.5,0,0.9,0.1,1.4
		c0.8,8.3-3.8,13.5-10.1,17.5c-5.9,3.7-12.4,6.1-19.3,7.8c-14.1,3.3-24.8-3.2-34.6-12.1c-2-1.8-3.4-4.2-6.1-5.1
		c-1.9-1.9-1.2-4.4-1.5-6.7C1165.4,366.6,1164.4,364,1166.4,362.2z"/>
	<path class="st3" d="M1267.6,113.8c7.2,5.4,16.1,7.4,23.3,12.9c10.5,8,17.2,18.5,22.7,30.2c0.8,1.6,1.2,3.4,3,4.3
		c0.7,1.4,0.3,2.7-0.5,3.8c-6.9,9.1-12.5,19-19.1,28.3c-1,1.5-2.2,2.9-4.2,3.1c-1.7-0.6-1.7-1.9-1-3.3c3.2-33.7-14.2-57.6-37.2-79.3
		C1258.9,113.8,1263.3,113.8,1267.6,113.8z"/>
	<path class="st4" d="M1197.3,165.1c-18.4,19.6-40.2,31.7-67.8,31c-5.3-0.1-11.8,3.4-15.4-3.9c-1.7-2.6-0.7-4.8,1-6.9
		c1.3,1.3,2.5,3.3,4.4,0.6c1.6-2.1,3.3-4,5-6c7.4-1.6,14.8-3.1,22.2-4.7c23-5,42.3-17.6,61.4-30.6c0.7,4.8-2.9,7.8-5,11.3
		c-1,1.7-3,2.8-2.9,5.1C1200.6,163.4,1198.9,164.2,1197.3,165.1z"/>
	<path class="st1" d="M1055.7,252.9c-6.7-17.1-6.5-35.4-9.9-53.1c-1-4.9,0.3-8.3,3.7-11.3c6.1-5.6,12.9-10.5,20.2-14.4
		c22.8-12.1,44.7-25.5,64.6-42.2c2.7-2.3,6-3.8,9.2-5.5c1.4-0.7,3-1.1,4.4,0.2c1.6,1.5,0.6,3.2-0.5,4.1c-3.4,2.8-1.7,7.3-3.6,10.6
		c-0.4-0.6-0.8-1.2-1.2-1.8c-4.9,0.6-7.3,4.8-10.7,7.5c-15.7,12.9-33,23.4-50.9,32.9c-5.4,2.9-10.4,6.2-15.5,9.5
		c-5,3.2-9.4,6.9-9.7,13.5c1.8,15.5-2.7,31.3,2.3,46.7C1058.7,251.6,1058.3,253.1,1055.7,252.9z"/>
	<path class="st0" d="M996.3,190.4c-7.9,1.1-15.9-1.6-24.1,1.1c0-20.1,0-40.2,0-61.1c10.2,5.8,20.3,10.7,29.5,17.3
		c2.1,3.5,0.8,7.1,0.2,10.5c-1.8,9.1-3.8,18-3.7,27.3C998.2,187.4,997.7,189.1,996.3,190.4z"/>
	<path class="st4" d="M1062.4,116.5c0.2,7.1-4.4,12.2-7.9,17.5c-10.2,15.4-15.1,31.9-15.4,50.6c-0.3,17.2,2.6,33.3,7.9,49.3
		c1.8,5.3,2.3,10-3.4,13.3c-19.2-36.1-23.7-72.6-3-109.7C1045.8,128.4,1052.9,121.1,1062.4,116.5z"/>
	<path class="st7" d="M1149,380.7c2.9,0,5.7,0.8,8.5,2c-3.9,6.7-10.4,10.9-15.5,16.3c-2,2.1-4.3,4-3.8,7.3c0,3-2.3,2.1-3.9,2.2
		c-8.8,0.1-17.5-0.1-26.2,0.1c-4.2,0.1-5.7-1.9-5.5-5.7c0.4-8.2,3.7-14.8,11.1-18.7c7.5-3.9,15.3-6.5,23.9-4.8
		C1141.4,380.2,1145.3,380.1,1149,380.7z"/>
	<path class="st3" d="M1318.9,166.6c0.5,7.2,1.3,13.9,8.2,18.6c4.5,3.1,4.6,9.5,8,13.6c-8.6,5.3-17.2,10.5-25.6,15.8
		c-2.1,1.3-3.3,1.7-4.8-0.8c-3-5.2-7.5-8-13.7-8.2c-2.6-0.1-2.1-1.7-0.5-3c7.6-11,15.2-22,23.4-32.6
		C1315.1,168.4,1315.9,165.8,1318.9,166.6z"/>
	<path class="st7" d="M1166.3,375.6c0.5-2.2,0.8-3.5,3.1-1c3.1,3.5,6.7,6.5,10.2,9.6c8.8,7.8,19,9.4,30,6.1c5.6-1.7,10.9-3.9,16-6.8
		c6.2-3.5,9-9.5,10.8-16c6.2,10.8,1.7,19.2-6.1,26.9c-1.9,1.9-3.5,3.8-4.7,6.4c-4.4,10.1-19.6,12-27.2,3.8
		c-5.1-5.5-12.1-8.4-18.5-12.1C1173.2,388.6,1167,384.3,1166.3,375.6z"/>
	<path class="st4" d="M1055.7,202.8c-2.4-4.6-0.7-7.8,3.2-10.9c6.4-5,13.2-9.3,20.3-13.1c21.8-11.6,42.6-24.6,60.8-41.4
		c0.9-0.8,1.7-2.4,3.1-1.2c0.4,0.3-0.4,2-0.7,3.1c-3.7,13.9-13.1,22.3-26.3,26.9c-3.8,1.3-7.5,2.9-11.2,4.3
		c-4.7,1.8-6.4,4.7-3.3,9.2c-6.4,1.3-11.1,5.7-16.3,9C1076,194.7,1066.4,200,1055.7,202.8z"/>
	<path class="st41" d="M1043.4,117.8c-11.3,9.9-16.9,23.3-21.5,37.6c-7.5-4.1-14.3-7.8-20.2-12.9c-1.4-4,0.7-7.5,2.3-10.7
		c3-6.2,5-12.8,10-17.9c9.5,0,18.9,0,28.4,0C1043.4,114.9,1043.2,116.4,1043.4,117.8z"/>
	<path class="st4" d="M1450,297.1c-5.7,4.4-12.1,7.3-19.1,9.1c-12.8,3.2-24.8,8.3-36.6,14.1c-7.9-2.7-16.2-0.8-26-1.6
		c8.3-4.5,15.2-8.2,22-12c13.7-7.7,28.6-12.3,43.3-17.3C1440.7,288.6,1444.9,293.8,1450,297.1z"/>
	<path class="st4" d="M1331.1,356.4c-0.2,1.5-1.2,2.5-2.6,2.6c-16.5,1.5-31.3,8.9-46.7,13.8c-4,1.3-8.1,2.5-12.1,4
		c-1.9,0.7-4.7,0.6-4.6,3.8c-5.1,2.6-9.8,0.4-14.6-1.3c-1.2-1-2.1-2-1.6-3.7c17.8-11.2,37.2-18.7,57.4-23.6
		C1314.8,350,1324.1,347.9,1331.1,356.4z"/>
	<path class="st4" d="M1149,380.7c-10,0.9-20.2-1.2-29.9,3c-9.4,4-14.5,10.4-14.7,19.7c-0.1,2.5,0.1,4.5,3.4,4.4
		c9.4-0.1,18.9,0,28.3-0.2c0.7,0,1.5-0.9,2.2-1.3c1.7,2.2,0.3,2.8-1.6,2.8c-15.3,0-30.5-0.1-45.8-0.1c-2,0-2.8-0.9-2.8-2.8
		c-0.1-6.5-0.7-13.1,1.7-19.3c3.5-8.8,10.4-12.6,19.6-12.6C1122.9,374.3,1136.1,377,1149,380.7z"/>
	<path class="st42" d="M1397.6,409.7c-14.8,2.6-25-9-36.9-15.9c-3.3-1.9,0.9-4.6,1.7-6.8c1.7-5,3.7-6.5,9.3-2.9
		c12.2,7.9,26.9,9.3,40.7,12.8c3.9,1,4.1,1.7,2.6,5C1411.3,409.6,1411.5,409.7,1397.6,409.7z"/>
	<path class="st43" d="M1394.6,379.4c6.8,1.5,10.3-2.1,12.1-8.1c1-3.4,2.1-6.6,6.6-3.8c3.4,2.3,5.4,6.4,9.4,8
		c-0.3,1.7-0.5,3.5-1,5.2c-4,15.9-4,15.9-19.6,9.8c-10.4-4-21.3-6.9-30.3-14c-2.4-1.9-3.7-3.4-2.2-6.6c1.9-3.8,3.1-7.9,4.7-11.8
		c0.9-2.2,2.1-4.1,5-2.6c3,3.9,2.3,8.8,3.7,13.2C1385,374.7,1387.7,379.2,1394.6,379.4z"/>
	<path class="st3" d="M996.3,190.4c-1.1-14.6,3.2-28.6,5.4-42.7c5.5,2.9,10.9,6,16.5,8.7c2.5,1.2,2.4,2.6,2.1,4.8
		c-1.5,9-3.9,17.9-3.5,27.1c0.1,2.1-0.6,3.1-3.1,2.9C1007.9,190.7,1002,190.7,996.3,190.4z"/>
	<path class="st0" d="M1013.9,113.8c-3.3,9.9-9.6,18.5-12.3,28.6c-9.2-5.9-18.3-11.8-27.6-17.6c-3.9-2.4-2-6-2.1-9.1
		c0-3.7,3.3-2.2,5.1-2.2C989.3,113.6,1001.6,113.7,1013.9,113.8z"/>
	<path class="st8" d="M1193.4,408.6c-15.4,0-29.3,0.1-43.1-0.1c-5.2-0.1-6.4-2.6-3.3-6.8c4.2-5.8,8.8-11.3,13.5-17.3
		C1170.9,392.2,1181.6,400,1193.4,408.6z"/>
	<path class="st4" d="M1047.7,255.3c-2.8,0.2-2.8,2.1-2.8,4.3c0.1,6.9,0.2,13.8,0,20.7c-0.2,6.6,2.7,10.1,9.4,10.2
		c-4.6,3.7-9.7,5.7-15.4,2.7c-5.8-3-6.7-8.4-6.4-14.3c0.3-6.5,1.5-12.9,4.2-18.8C1038.9,255.7,1041.9,252,1047.7,255.3z"/>
	<path class="st44" d="M1318.9,166.6c-8.9,9.6-15.2,21.1-23.2,31.2c-1.4,1.8-2.1,4.6-5.1,4.9c0-1,0.1-1.9,0.1-2.9
		c0.9-1.2,0.7-3.1,2.6-3.7c7.8-11.6,15.6-23.2,23.4-34.8c9.5-10.8,19.5-21.1,29.8-31.1c0.7-0.6,1.2-1.4,1.9-1.9
		c2.4-1.5,4.4-6.5,7.3-3.5c2.8,2.8-1.8,5.5-3.7,7.4c-9.6,9.8-20.1,18.7-28.9,29.1C1321.7,163.1,1320.3,164.8,1318.9,166.6z"/>
	<path class="st45" d="M1394.6,379.4c-6.1,2.7-9.2,0.6-11.4-5.6c-2.1-6-3.6-11.9-3.7-18.2c7.7,2.1,12.9,6,10.9,15.1
		C1389.6,374.5,1392.4,376.9,1394.6,379.4z"/>
	<path class="st46" d="M1425.9,367.3c-3.2-1.4-5.3-2.4-7.5-3.3c-10.3-4.3-10.8-5.4-6.9-15.8c0.4-1.2,0.3-3,2-3.2
		c1.9-0.3,2.8,1.4,3.5,2.7C1419.8,353.9,1422.6,360.1,1425.9,367.3z"/>
	<path class="st47" d="M1382.2,345.5c1.9-5.5,5.3-10,9.3-15.8c0.1,9.6,3.6,17.9-0.7,26.3c-3.5-1.1-5.7-4-8.5-6.1
		C1381.2,348.4,1381.5,347,1382.2,345.5z"/>
	<path class="st48" d="M1433.6,289.3c-7.5,3.4-14.7,7.7-22.6,10.1c-7.1,2.1-13.7,5.4-20.8,7.3
		C1403.2,296.9,1416.9,289.3,1433.6,289.3z"/>
	<path class="st49" d="M1066.6,294.5c8.1,5.2,12,14.1,18.1,21c3.6,4.1,9.6,6,11.3,11.8c-9.5-6.3-18.2-13.6-25.4-22.6
		C1068.3,301.9,1066.2,298.6,1066.6,294.5z"/>
	<path class="st50" d="M1355.8,398.7c5.3,4.4,11.6,6.5,18.5,10.3c-9,0-16.7,0-25.4,0C1351.3,405.3,1353.5,402.1,1355.8,398.7z"/>
	<path class="st51" d="M1449.8,347.5c0.2-4.8-0.7-9.8,2.8-13.8c2.1,5.4,4.2,10.7,6.2,16.1c0.6,1.6,1.6,3.8-0.2,4.8
		c-1.7,1-3.3-0.9-4.5-2.1C1452.5,350.9,1451.2,349.2,1449.8,347.5z"/>
	<path class="st52" d="M1313.5,321.7c-4.2,2.6-9.1,0.3-13.5,2.2c-2.1,0.9-2.4-1-1.7-2.8c1.1-2.6,2.1-5.3,3.2-8
		C1305.9,315.3,1309.7,318.5,1313.5,321.7z"/>
	<path class="st53" d="M1422.8,375.5c-6.5,1.2-7.1-4.4-9.4-8c2.2-0.2,4.3,0.5,6.5,0.8C1425.6,369.1,1425.9,371.5,1422.8,375.5z"/>
	<path class="st54" d="M1461.5,323.2c6.9,0.9,13.8,1.7,15.3,10.5C1471.7,330.2,1466.6,326.7,1461.5,323.2z"/>
	<path class="st55" d="M1236.4,366.1c-7.4-3.3-6.6-10-6.6-16.3C1233.5,354.7,1235,360.4,1236.4,366.1z"/>
	<path class="st56" d="M1443.2,351.1c-0.7,1.8-1.9,2.8-3.9,2.9c-0.3-2.5-1.9-4.9-1.2-7.9C1441.4,346.2,1441.7,349.4,1443.2,351.1z"
		/>
	<path class="st57" d="M1166.4,362.2c-0.5,2.2,0.9,4.9-1.6,6.6C1164.7,366.5,1159.3,362.8,1166.4,362.2z"/>
	<path class="st58" d="M1043.4,117.8c-3.5-0.4-0.6-2.7-1.1-4c1.5-0.1,3-0.2,4.9-0.3C1046.6,115.9,1044.9,116.8,1043.4,117.8z"/>
	<path class="st59" d="M1432.6,372.9c1.2,2.4,2.5,4.8-1.9,5.1C1431.3,376.2,1432,374.5,1432.6,372.9z"/>
	<path class="st60" d="M1293.3,196.1c-0.3,1.6-1.2,2.8-2.6,3.7c-0.2-2.3-0.4-4.6,1.1-6.6C1292.3,194.1,1292.8,195.1,1293.3,196.1z"
		/>
	<path class="st61" d="M1248.9,375.7c0.4,0.8,0.8,1.6,1.3,2.4c-1.8,1.9-3.7,1.2-5.6,0.2c0,0,0,0.2,0,0.2
		C1245.4,376.6,1247.2,376.3,1248.9,375.7z"/>
	<path class="st62" d="M1382.2,345.5c0,1.5,0.1,2.9,0.1,4.3C1376.8,348.5,1381.4,347,1382.2,345.5z"/>
	<path class="st0" d="M522.4,405c-2.2,0.1-4.5,0.2-6.7,0.2c-109.3,0.1-218.5,0.1-327.8,0.3c-24.3,0-48.6,0.2-72.8,0.6
		c-5,0.1-6.4-1.2-6.4-6.3c0.2-36,0.2-71.9,0.1-107.9c-0.1-59.1-0.2-118.2-0.5-177.3c0-4.2,0.2-6.3,5.6-6.3
		c121.9,0.2,243.7,0.1,365.6,0.1c0.9,0,1.8,0.2,2.7,0.2c13,1,26,0.2,39,0.4c7,0.1,7.6,1.2,4,7.3c-6.9,11.6-10.5,24.3-13.3,37.3
		c-1.6,7.6-1.1,15.2,0.4,22.8c1.2,5.7,0,10.5-3.3,15.2c-7.3,10.3-12,21.5-11.6,34.5c0.4,16.6,9.3,28.4,25.4,32.1
		c5.8,1.3,8.8,4.1,10.7,9.6c6.5,18.8,19.5,33.1,33.5,46.6c0.8,0.8,1.8,1.4,2.7,2.1c5.3,4.5,5,6.8-1.7,9.2
		c-12,4.3-23.3,9.5-32.7,18.4c-6.8,6.5-12.3,13.6-13.8,23.3c-0.8,4.9-2.4,9.6-3.3,14.4C516.3,390.1,519.2,397.5,522.4,405z"/>
	<path class="st0" d="M757.6,150c6.1,1.3,12,4,20,3.9c-5.9-4.8-11.5-6.6-17.1-8.4c-10.2-3.3-20.8-5.9-27.3-15.6
		c1.4-1.2,3-0.9,4.5-0.4c12,3.8,24.2,6.9,35.5,12.7c5.9,3.1,10.3,7.9,15.2,12.2c6.6,5,9.1,13.8,16.8,17.9c1.5,0.8,0.9,2.9,0.8,4.4
		c-0.7,9.2-1.5,18.3-2.4,27.5c-0.5,5.1-0.4,8.6,6.6,6.6c5-1.3,8.6,1.9,10.6,6.4c3.5,7.8,3.4,15.6,0.2,23.5c-2.3,5.8-6.3,7.2-11.9,5
		c-1.9-0.7-3.7-1.7-5.5-2.4c-3.9-1.7-6-0.8-7.3,3.7c-9.4,31.7-29.7,54.4-59.3,68.3c-30.2,14.2-61.8,15.9-94,7.4
		c-16-4.2-32.3-7.6-47.2-15.5c-25.3-13.5-38.4-36.1-44.4-62.6c-1.7-7.3-4.4-8.4-9.8-9.2c-3.3-2.1-4.3-5.6-5.1-9.1
		c-1.5-6.4-1.1-12.8-0.5-19.2c0.2-2.6,1.1-5.3,4.5-5.6c0.2,0.1,0.4,0.2,0.6,0.3c2.7,2.1,3.5,7.6,8.3,5.9c4.6-1.7,2.1-6.6,3.2-9.9
		c2.4-6.7,3.7-13.8,6.3-20.5c1.7-4.4,4.6-7.7,9.2-7.7c11.6-0.1,22.4-3.8,33.4-6.5c17.1,6.1,40.8-2.2,45.2-17.1
		c-10.6,6.3-18.4,16.2-30.8,17c-2-0.1-4.8,0.2-5.3-1.9c-0.7-2.7,2.3-3.5,4.2-4.4c14.3-7.1,27.7-15.7,41.6-23.4
		c2.3-1.3,4.8-3.5,7.4-1.7c2.7,1.9,1,5,0.6,7.5c-0.8,5.6-2.9,10.8-6.1,15.5c-1.8,2.7-4.6,5.7-1.2,8.9c3.2,3,7,3.7,11.2,1.9
		c10-4.2,19.3-9.5,26.7-17.6c1-1.2,2.1-2.3,3.2-3.4c0.8-0.7,1.7-1.1,2.8-0.7c2.2,8.4-3.5,13.4-8.3,18.5c-2.8,2.9-6.1,5.3-9.4,7.6
		c-0.9,0.8-1.8,1.4-2.4,2.5c1.7,4,4.5,1.5,6.6,0.8c13.1-4.3,22.9-17.6,23.8-31.8c0.1-2.4-0.2-4.9,0.6-7.3c0.3-0.6,0.7-1.1,1.3-1.5
		c2.8-0.9,4.6,1.2,6.7,2.4C731.5,141.7,744.2,146.9,757.6,150z"/>
	<path class="st0" d="M900.6,236.8c0,54.3-0.2,108.7-0.1,163c0,4.3-1,5.6-5.5,5.6c-17.5-0.3-35-0.3-52.5-0.4
		c-1.2-6.2,1.9-11.8,2.4-17.7c1.2-12.7,2.5-25.4-2.7-37.6c-0.7-1.6-1.2-3.4,0.1-5.1c3.9-1.8,5.7,1.5,7.9,3.5c3.5,3.1,6.6,3,10-0.1
		c15.6-14.1,24.8-32.2,32.3-51.3c2-5.2,0-9.6-4-13.3c-3.7-3.6-7.9-4.9-12.9-3.2c-7.2,2.4-11.8,7.9-15.9,13.9
		c-1.5,2.2-2.5,4.8-4.2,6.9c-2,2.5-4.3,3.1-5.2-0.8c-2.2-10.3-5.5-19.8-13.8-27c-0.4-0.4-0.2-1.3,0-2c3.4-6.3,7.5-12.2,10.9-18.6
		c8.1-15.5,11.5-31.2,0.9-47.1c-2.2-3.3-3-7.1-2.5-11c2.2-17.7-1.4-34.9-4.8-52c-1.8-9-4.3-17.9-7.3-26.6c-2.2-6.2-1.9-6.6,4.5-6.6
		c19.1,0,38.2,0.1,57.3-0.1c3.9,0,5.5,0.9,5.5,5.2c-0.2,40-0.1,80-0.1,119.9C901.1,235.1,901,235.9,900.6,236.8z"/>
	<path class="st3" d="M843.7,344.5c-1.1,0.8-1,1.8-0.5,2.9c8.3,19.3,5.2,38.4-0.7,57.6c-8.1,0-16.3,0-24.4,0
		c-2.3-3.1-1.1-5.5,1.4-7.8c5-1.1,5.9-4.9,6.1-9.2c0.3-7-0.2-13.8-1.8-20.6c0.8-4.3-1.8-7.4-3.5-10.9c-3.7-6.9-7.7-13.5-15.8-16.1
		c-1.3-0.4-2.5-1-3.8-0.3c-13.1-3.8-25.8,0.1-38.5,2.5c-14.3,2.7-28.4,6.5-42.9,8.6c-5,0.7-6.3-0.3-6.7-5.9
		c-0.5-8.1,2.7-10.2,9.7-12.2c39.2-10.9,65.7-36.3,81.4-73.4c1.5-3.6,2.6-5.6,7.5-4.5c7.2,1.6,13-1.8,16.4-8.9
		c5.9-12.2,5.5-24.3-1.7-35.9c-1.2-1.9-2.5-3.2-1.5-6c12.6-33.9,8-65.5-13.8-95.9c8.4,0,16.1,0,23.8,0c20.7,0,41.4,0.1,62-0.1
		c4,0,5.5,0.9,5.4,5.2c-0.3,40-0.3,80-0.5,120c0,1.1-0.5,2.1-0.7,3.2c-0.1-38.8-0.1-77.7-0.2-116.5c0-2-0.1-4.1,0-6.1
		c0.2-3.1-1.1-4.4-4.3-4.4c-20.6,0.1-41.3,0-62.4,0c9.3,23.1,14.1,46.9,14.8,70.9c0.4,12.8,1.5,24.1,7.2,35.7
		c4.6,9.2,1.2,19.6-2.4,28.7c-3.9,10-9.4,19.3-16.4,27.7c-1.1,1.1-2.5,0.8-3.8,0.8c-13.1,0.1-18.8,6.4-18.2,19.6
		c0.1,1.3,0.2,2.7-0.6,3.9c-0.6,1.6-2-1.9-3.6,1.2c-3.3,6.5-9.8,10.9-15.7,16.6c12-2.2,22.2,2.1,32.2,7.1
		C833.7,328.8,840,335.7,843.7,344.5z"/>
	<path class="st0" d="M819.5,397.2c-0.5,2.6-0.9,5.2-1.4,7.8c-10.3,0.1-20.7,0.2-31,0.2c-77.8,0-155.6-0.1-233.4-0.2
		c3.5-12.7,6-25.6,14.5-36.3c11.3-14.3,26.2-18.7,43.6-16.4c5.5,1,13.6-0.1,15.2,5.5c1.3,4.3-6.4,6.9-10.4,9.9
		c-13.4,10.1-13.7,12.3-2.2,25c2,2.1,3.9,4.4,6.1,6.2c1.7,1.4,3.4,4.5,6.1,2.4c2.8-2.3,0-4.5-1.4-6.2c-3.2-4.1-6.5-8-10-11.8
		c-2.8-2.9-2.8-5,0.5-7.5c4.1-3.2,8-6.5,11.6-10.2c2.6-2.6,4-1.7,6.5,0.4c10,8.5,19.4,17.8,32.3,22.5c7.5,2.7,13.6,1.4,19.5-2.8
		c8.2-5.8,15.6-12.8,22.8-19.8c3.7,0.3,6.3,3.1,9.6,4.4c1.8,2.2,4,4.3,5.5,6.8c2.6,4.4,3,8.7-1.5,12.6c-2.5,2.1-4.6,4.9-6.7,7.4
		c-1,1.1-1.2,2.4,0.1,3.6c1,0.9,2,0.7,3.1,0.3c14.8-4.7,18.6-19.5,7.9-30.9c-1.8-3.6,1.3-3.7,3.2-4.1c8.3-1.8,16.6-4.1,25-5.4
		c21.2-3.4,42.9,9.9,50.4,30.5c0.5,1.3,0.8,2.6,1.2,3.9c1.4,4.2,3.5,6.4,7.8,2.8c1.3-1.1,2.7-1.6,4.3-0.9
		C818.8,396.8,819.2,397,819.5,397.2z"/>
	<path class="st3" d="M522.4,405c-4.4-3.1-6.4-7.9-6.4-12.8c-0.1-14.9,1.9-29.5,11-42c9-12.3,21.9-19.5,35.9-24.8
		c2.1-0.8,4.2-1.6,6.3-2.2c3.5-1,3.4-2.2,0.7-4.2c-14.2-10.4-24.1-24.3-33.4-38.9c-3.6-5.6-3.3-13.3-7.8-17.6
		c-4.3-4-11.7-3.1-17.3-6.3c-11.9-6.9-18.4-23.8-15.6-39.4c1.7-9.3,5.2-17.8,10.9-25c4.5-5.7,4.8-11.3,3.4-17.4
		c-3-12.4-0.2-24.1,3.5-35.6c2.7-8.7,5.3-17.6,11.1-25c2.9-3.7,0.5-4-2.5-4c-11,0-22,0.1-33,0c-2.4,0-5,0.8-7.1-1.1
		c20.7,0,41.3,0,62.5,0c-18.8,24.7-17.4,52.5-13.8,80.6c0.4,3.3,0.1,5-2.7,7.1c-10.2,7.6-14.4,24.2-9.6,36c3.5,8.5,10.3,13,19,12.2
		c7.9-0.7,9,2.2,10.2,9.2c6.4,38.9,29.8,62.6,67.3,73.1c0.2,0.1,0.5,0.1,0.7,0.1c13.4,3.8,13.3,3.8,12,17.4c-0.4,4-1.5,4.9-5.4,3.5
		c-15.7-5.5-31.9-7.1-48.5-6c-23.4,1.5-34.1,11.5-36.6,34.9c-0.6,5.6-1,11.2-1.3,16.8c-0.2,3.9-0.6,8,2.6,11.5
		C532.8,405,527.6,405,522.4,405z"/>
	<path class="st0" d="M671,121.9c0.5-1,0.8-2.1,1.5-2.9c1.1-1.3,2-2.7,0.8-4.2c-1.1-1.5-2.9-1.2-4.4-0.7c-3.2,1-6.5,1.9-9.5,3.5
		c-30.3,15.8-63.3,23.8-95.8,32.9c-7.9,2.2-8.9,7-11.6,11.9c-2,3.6-2.8,8-4.1,12c-2.8-0.3-2.7-2.7-2.9-4.6
		c-0.4-4.9-0.7-9.9,0.7-14.7c4.1-14.1,9.2-27.7,17.3-40c2.3-3.6,4.9-6,9.7-6c46.5,0.2,93-0.2,139.5,0.2c2.3,4.6-0.8,7.3-3.6,10.1
		c-4.4-1.4-7.5,1.8-11.2,3.1c-4.8,1.7-9.3,4-13.8,6.2c5.4-3,11.3-5.1,17-7.6c2.2-1,4.5-3.4,7.4-1.5c1,3-0.8,5.2-2.3,7.3
		c-7.6,10.5-16.8,19.1-28.9,24.3c-2,0.9-4.3,2.3-6.3,0.6c-2.2-1.9-0.1-4.1,0.5-6.1c1.9-6.3,3.1-12.6,0.6-19
		C671,125.1,670.7,123.5,671,121.9z"/>
	<path class="st0" d="M797.9,109.7c16.6,14.7,23,34.2,25.5,55.4c1.3,11.6,0.5,23.3-2.7,34.7c-0.5,1.7,0.2,5.3-3.6,4
		c-2.5-0.9-6.2-0.3-5.8-5.4c0.9-12.1,0-24.2-3.9-35.9c-0.9-2.7-0.9-5.8-5.1-5.8c-1,0-2.1-1.5-2.9-2.5
		c-12.6-16.7-30.2-25.5-49.8-30.9c-9.5-2.6-18.9-5.5-28.3-8.2c-5.1-2-5.6-3.2-2.6-5.9c24.2,0,48.5,0,72.8,0
		C793.5,109.1,795.8,108.6,797.9,109.7z"/>
	<path class="st4" d="M671,121.9c1.9,0.7,1.6,2.3,1.4,3.8c3.7,13.6-4,23.4-11.7,33.8c4.4,1.2,7.5-0.9,10.8-1.9
		c7.6-2.3,14.4-6.1,21-10.5c2-1.3,3.7-3.6,6.5-2.5c-8.2,12.4-20.5,19-34,23.4c-3.8,1.3-7.9-0.9-10.5-4.4c-2.5-3.4-0.5-6.4,1.6-9.1
		c4.9-6.7,7-14.2,7.5-23.2c-18.3,9.1-34.4,20.6-53.8,29.3c3,0.4,4.5,0.6,6.1,0.8c-3.7,5.1-8.8,2.7-13.5,2.5
		c-10.7,3.8-21.5,7.3-33.1,7.1c-4.7-0.1-7.3,2.5-9.1,7.1c-2.5,6.5-2.2,14.2-7.7,19.6c-2.2-13.7,0.9-26.6,5.2-39.4
		c0.8-2.5,2.6-3.5,4.9-3.8c37.5-5,73.5-14.6,107.1-32.4C670,121.7,670.5,121.8,671,121.9z"/>
	<path class="st4" d="M818.4,396.8c-0.2,0.1-0.5,0.1-0.6,0.2c-9.9,7.7-9.5,7.5-14.3-4.9c-5.4-13.8-13.4-24-29.7-28
		c-13.8-3.3-26-0.5-38.7,2.5c-2.8,0.7-7.1-1.3-8.6,3.3c-4.4-4-9.6-7.2-14.1-13.2c14.8,0.2,28.4-2.1,42-4.1
		c8.2-1.2,16.5-2.2,24.7-3.4c20.9-3,33,6.8,34.8,28.1c0.3,3.1,0.3,6.3,0.1,9.4C813.7,391,815.1,394.3,818.4,396.8z"/>
	<path class="st4" d="M797.9,109.7c-27.2,0-54.3,0.1-81.5,0.1c-0.9,1.3-2,2.1-3.7,1.2c-1.6-2.4-4.1-1.4-6.2-1.4
		c-44-0.1-88,0-132-0.2c-4.5,0-6.9,1.6-9.1,5.2c-7.9,12.4-13.7,25.7-17.5,39.8c-1.8,6.5-1.6,13.2-0.1,19.9
		c-1.3,6.8-3.2,13.5-2.6,20.6c-6.7,0.1-8.2-3.1-8-9.1c0.4-12.6,0.7-25.1,2.3-37.6c1.5-11.6,5.7-21.8,12.2-31.6
		c3.6-5.5,6.1-8.2,13.3-8.2c38,0.4,76,0,114-0.1c37.1-0.1,74.2,0,111.3,0C792.9,108.3,795.8,107.2,797.9,109.7z"/>
	<path class="st0" d="M700.9,348.7c0.6,6.9-2.2,12-7.8,16c-3.4,2.5-6.6,5.4-9.7,8.3c-5.5,5.3-11.5,6.6-18.2,2.4
		c-9.6-5.9-18.7-12.4-26.4-20.6c-0.8-0.9-1.2-2.3-1.7-3.5c-0.6-6.8,0-7.2,6.1-4.9c17.4,6.7,34.8,6.6,52.2-0.2
		C697.9,345.3,701.4,342.8,700.9,348.7z"/>
	<path class="st4" d="M611.8,352.3c-4.6,0.9-9.3,0.5-14,1.2c-20.8,3.3-32,16.4-37.8,35.4c-1.7,5.5-2.7,11.4-6.4,16.1
		c-3.6,0-7.2,0-11.4,0c4-3.8,4.3-8.5,4.4-13.2c0.2-9.2,0.7-18.4,4.4-27.1c2.4-5.6,5.9-10.1,12.2-11.6
		C579.4,349.3,595.6,348.5,611.8,352.3z"/>
	<path class="st4" d="M700.9,348.7c-0.6-1.4-0.8-2.9-3.2-1.8c-19.9,9.6-39.8,8-59.8-0.3c-1.2,1.2,0,3.2-0.7,4.7
		c-2.5-5.9-0.2-12.3-2.9-19.1c13,3,24.7,6.8,37,6.7c7.6,0,15.3,0.5,22.8-0.5c10-1.3,7.7-0.1,7.7,7.7
		C701.8,347.1,701.2,347.9,700.9,348.7z"/>
	<path class="st1" d="M712.8,111c1.2-0.4,2.4-0.8,3.7-1.2c1.6,1.7,3.2,3.5,4.8,5.2c-0.6,0.1-1.1,0.1-1.7,0.1
		c-0.7,6.4-1.8,12.7-6.4,17.7c-0.2,0.4-0.3,0.8-0.3,1.2c-1.5,10.3-6.5,18.9-12.5,27.1c-4.2,5.7-9.6,10.1-16.5,12.3
		c-2.1,0.6-5.6,2.2-4.6-2.8c0.9-0.5,1.8-0.9,2.6-1.4c12.8-7,19.8-18.9,24.8-30.6c-1,1.2-2.4,4-5.8,4c-0.6,0.6-1.3,1.2-1.9,1.9
		c-10.3,7.7-21.5,13.6-33.9,16.9c-2.6,0.7-5.5,2.3-7.2-0.9c-1.4-2.6,1.7-3.6,3.2-5.2c7.9-8.4,11.7-18.2,11.2-29.8
		c5.1,9,1.4,17.3-2.2,26.3c6.9-1.7,12.5-5.2,17.7-9.2c8.2-6.4,16.6-12.8,19.5-23.6l-0.1,0.1C710.5,117.4,710.2,113.2,712.8,111z"/>
	<path class="st4" d="M540.3,201.2c-5.7,9-3,18.4-1.1,27.7c0.4,2.1,1.5,4.2,2.2,6.2c-10.7,1.8-16.4-2.3-17.3-12.8
		c-0.6-6.5,1.3-12.3,5-17.6C532,200.9,535.6,199.4,540.3,201.2z"/>
	<path class="st4" d="M713.2,132.9c1.9-6,3.4-12.1,6.4-17.7c5.5,5.2,6.7,12.9,11.4,18.6c7.1,8.5,17.2,11.8,26.7,16.2
		c-15.2-1.2-28.6-7.1-41-15.6C715.5,133.7,714.7,132.6,713.2,132.9z"/>
	<path class="st10" d="M788.2,154.4c-6.6-3.7-11.8-9.2-19-12.3c-11.7-5.1-24.1-8-36.1-12.1c-2.5-1.2-3-3.7-5.4-7.4
		C750.4,131.3,773.5,134.6,788.2,154.4z"/>
	<path class="st63" d="M800.6,340.1c6.1-2.6,10.6,1.1,14,4.9c2.8,3.1,5.6,7,6.3,11.6c-0.4,0.5-0.8,0.5-1.2,0
		C815.3,348.9,809.1,343.2,800.6,340.1z"/>
	<path class="st64" d="M718.2,370.2c-4.1,0.5-7.3-0.9-9.6-4.4c0.7-1.8,1.5-3.6,2.4-5.9C713.5,363.5,715.8,366.8,718.2,370.2z"/>
	<path class="st65" d="M819.7,356.6c0.4,0,0.8,0,1.2,0c2.2,3.3,5.6,6.2,3,10.8C822.5,363.8,821.1,360.2,819.7,356.6z"/>
	<path class="st1" d="M752,677.6c-0.4,1.3,0.3,3-1.1,4c-5-18.1-13.7-34.5-23.7-50.3c-5.4-8.5-6.3-17.9-3.3-27.5
		c0.7-2.1,1.7-4.9,3.3-5.7c6.9-3.3,3.7-7.4,1.6-11.7c-0.7-1.4-1.4-2.8-2-4.2c-5-11.2-3.3-15.3,7.5-20.9
		c23.9-12.4,49.4-21.3,73.8-32.5c3.4-1.6,5.9-1.1,7.9,2.3c20.2,34.2,41.1,67.9,56.6,104.6c2.2,5.3,2.1,11.2,6,16.2
		c2.3,3-1.3,5.8-3.9,7.5c-9.8,6.2-19.4,12.9-30.1,17.8c-4.3,2-8.6,2.4-9.6,9.5c-1,7.4-6.4,14.2-10.9,20.6c-0.6,0.9-1.3,1.8-1.9,2.8
		c-6.7,0.2-4.5-4.1-3.1-7c1.9-4,4.9-7.5,7.2-11.3c1.2-2,4-4.4,2.5-6.5c-1.7-2.4-4.5,0.1-6.7,0.8c-4.9,1.6-9.7,3.3-14.8,4.3
		c-13,2.4-22.3-2.4-27.6-14.4c-1.5-3.5-3.2-6.8-4.9-10.2c0-8.8-4.6-15.8-9.3-22.6c-5.9-8.5-11.5-17.2-15.1-26.9c-0.4-1-1-2-1.5-3
		c-6.1-11.2-9.9-11.8-18.2-2.7c-0.4,6.6,0.9,12.6,4.5,18.4c6.2,10.1,11.4,20.8,14.8,32.3C751.6,666.6,750.9,672.2,752,677.6z"/>
	<path class="st1" d="M623.9,579.3c-1.9,0-3.7-0.2-5.2-1.6c-1.7-4.6,0.8-8.7,1.5-13c1.7-10.3,1.2-20.3-3.2-30
		c-3-4.1-6.1-3.7-10.9-1.9c-22.6,8.6-45.5,8.8-68.3,0c-1-0.4-2.1-0.9-3.1-1.4c-11.7-5.9-23.3-9.7-37.2-7.5
		c-12.8,2.1-25.7-2.7-38.4-5.6c-3.3-0.7-5.5-3-5-6.8c1.8-3.5,5.1-2.7,8.1-2.9c1.5,0,2.9,0.1,4.3,0.5c2.3,0.8,4.7,1,7,1.5
		c1.3,0.3,2.6,0.7,3.9,0.8c3,0.7,6.1,0.8,8.7,2.9c20.8,4.1,40.3-1.3,59.5-9c-3,5.8-9.3,6.4-13.8,9.9c12.1,6.5,24.6,6.5,37.3,3.1
		c1.3-0.5,1.9-0.1,1.8,1.3c-6.4,2.8-13.1,3.8-20,4.3c-1.1-0.8-2.5-0.8-3.7-0.5c-0.6,0.2-1.6-0.8-1.8,0.5c0,0.1,1,0.6,1.4,1.1
		c21.8,6.6,43.6,7.3,65.1-1.4c3.9-1.6,5.5-0.6,7.7,2.3c4.1,5.4,6.6,11.5,9.3,17.9c5.3-9.4,5.4-24.6,0.9-34.8
		c-1.7-3.7-6.3-8.7-0.5-11.6c5.8-2.9,8,3.2,9.8,7.4c6.1,14.6,5.5,28.6-5.7,40.6c-3.5,3.8-3.7,7.6-3.9,12.1
		C629.4,565.2,630.7,573.4,623.9,579.3z"/>
	<path class="st1" d="M374.2,548.3c-1.5,11.1,1.7,22.4-1.5,33.5c-4.1,14.3-6.4,29.3-15.2,41.9c-1.1-0.1-1.9-0.3-1.2-1.7
		c4.1-13.5,5.6-27.6,8.7-41.3c2.9-12.6,3.9-25.5,6.3-38.2c1.4-7.8,5.3-9.8,10.8-11.7c14.8-5.1,29.6-10.2,44.5-15
		c9.4-3.1,18.4-6.8,26.4-12.9c2.3-1.7,4.9-3.2,7.6-4.3c1.9-0.8,4.6-3.3,5.9-0.7c1.5,2.9-2.6,2.7-4,4.2c-1,1.1-2.9,1.3-3.4,3
		c-0.1,0.3-0.1,0.6-0.2,0.9c-1.5,2.9-4.9,3.9-6.8,6.4c-6.3,5.8-13.9,9.2-21.8,11.8c-16.6,5.7-32.9,12.3-49.8,17
		C376.4,542.3,376,545.6,374.2,548.3z"/>
	<path class="st6" d="M356.4,622c0.4,0.6,0.8,1.1,1.2,1.7c-1,2.6-2.6,2.1-4.8,1.4c-7.6-2.3-14.8,1.2-16.7,7.8
		c-2.5,8.7,1.7,17,9.7,19c2.6,0.6,5.3,1,7.9,1.4c2.2,0.3,4.8,0,5.4,2.9c0.6,3.2-2.1,4.1-4.2,5.2c-1.2,0.6-2.5,1-3.7,1.5
		c-9.6-0.5-18.1-3.2-23.2-12.3c-0.7-3.1-1.5-6.1-2-9.2c-1.2-9,2.1-15.7,9.4-21.5c6.7-5.4,11.8-1.6,17.4,0.9
		C354,621.4,354.8,622.6,356.4,622z"/>
	<path class="st6" d="M576.6,737.3c-3.1,0.4-4.9,0-5.3-2.1c-0.4-2.2,1.1-3.1,3.1-3.5c22.5-4.3,45-8.2,68.1-8.2c2,0,4.4-0.3,4.7,2.6
		c0.2,2.4-1.5,3.7-3.5,4.3c-1.9,0.6-3.9,1.3-5.9,1.3c-19.8,0-39.4,2-58.9,5.5C577.7,737.2,576.6,737.3,576.6,737.3z"/>
	<path class="st66" d="M619.5,804.9c0,1.9-1.2,2.5-2.5,2.8c-2.1,0.4-4.1-0.1-5.7-1.4c-13.5-11.4-29.5-19.6-42-32.4
		c-0.8-0.8-1.7-1.5-2.3-2.4c-0.8-1.1-1.5-2.2-0.3-3.6c1.2-1.2,2.3-1.3,3.5-0.1c13.1,12.8,30.8,19.2,44.5,31.1
		C616.7,800.6,618.8,802.4,619.5,804.9z"/>
	<path class="st66" d="M577.7,746.4c0.8,0.3,1.2,0.5,1.6,0.7c13.4,8.3,28.7,12.3,42.5,19.8c2.5,1.4,4.8,3.3,7,5.1
		c1.2,1,2.3,2.3,1.3,4.1c-0.9,1.7-2.5,1.8-4.1,1.5c-1.5-0.3-3.1-0.7-4.4-1.4c-13.7-7.1-27.3-14.2-41-21.5c-1.8-0.9-3.4-2.2-4.8-3.6
		c-1-1-1.1-2.5-0.1-3.7C576.2,746.9,577.2,746.7,577.7,746.4z"/>
	<path class="st13" d="M701.6,638.3c-8.8,2.3-15.4,0.1-20.2-7.1c-4.9-7.2-8.2-14.9-9-23.5c-0.2-2.6-0.1-6.3,3.1-6.5
		c2.8-0.2,3.1,3.3,3.5,5.6c0.9,5.3,2.1,10.5,4.3,15.5C687,630.2,691.6,637.2,701.6,638.3z"/>
	<path class="st44" d="M675.3,653c2.9,0.7,7.1-1.9,7.6,1c0.6,3.7-4.1,2.7-6.5,3.4c-3.2,1-6.5,1.7-9.8,2.3c-7.6,1.5-13.7,5-17.8,11.9
		c-1.3,2.3-3.4,6-6.5,3.8c-2.6-1.8-0.7-5.4,0.8-8c4-7.1,10.1-11.2,18.1-12.6C665.9,654.1,670.8,653.6,675.3,653z"/>
	<path class="st67" d="M689.6,649c-6.8,1.7-12.1-1.1-16.2-5.4c-8.5-8.7-12.3-19.6-13.3-31.6c-0.1-1.4-0.8-3.5,1.2-4
		c2-0.6,2.5,1.4,3.1,2.8c0.9,2.3,1.8,4.6,2.5,7C670.3,631,674.3,643.9,689.6,649z"/>
	<path class="st68" d="M349.2,598c3.8-17,2.5-34.3,4.5-51.4c0.2-1.4-0.4-3.5,1.9-3.7c1.7-0.2,2.3,1.3,2.2,2.7
		C356.9,563.4,355.4,581,349.2,598z"/>
	<path class="st67" d="M684.4,665.8c-0.4,2.9-2.1,2.7-3.3,2.9c-10.5,1.8-19.6,6-25.7,15.3c-0.5,0.7-1.2,1.3-2,1.8
		c-1.4,1-2.8,2.8-4.6,1.1c-1.5-1.5,0.1-3,0.8-4.2c4-6.7,9.3-12.2,17-14.4C672.3,666.8,678.1,664.8,684.4,665.8z"/>
	<path class="st69" d="M631.1,640.4c-2,0.2-3.1-0.2-3.3-1.5c-0.3-1.6,1.1-2.4,2.2-3c5-2.7,9.3-6.1,13.1-10.2
		c4.5-5,8.4-10.4,10.7-16.8c0.3-0.9,0.7-2.3,2.2-1.9c1.3,0.4,1.5,1.6,1,2.8c-4.9,11.7-11,22.5-22.2,29.3
		C633.5,639.8,631.9,640.1,631.1,640.4z"/>
	<path class="st70" d="M627,674.6c1.8-10-1.5-18.4-7.5-26c-0.8-1.1-1.1-2.5,0.5-3.4c1.8-0.9,2.9,0.3,4.2,1.3
		C632.7,652.9,634.2,664.4,627,674.6z"/>
	<path class="st21" d="M476.9,513c-1.2,0.2-2.2,0-3-1c-1.6-2.2-4.3,0-6.1-1.4c-1.6-0.1-3.2-0.2-4.8-0.2c-1.1-2-6.2-1-3.9-5.4l0,0.1
		c8.9,0.5,17.5,3.6,26.4,4c7.5,0.4,14.7-0.9,21.8-3c1.4-0.6,1.8,0.1,1.7,1.4c-4.2,2.2-8.7,3.7-13.4,4.5
		C489.4,513,483.1,512.6,476.9,513z"/>
	<path class="st71" d="M571,519.6c-0.6-0.4-1.2-0.9-1.8-1.3c5.4-2.5,10.8-5.1,16.2-7.6c0.3,0.6,0.6,1.2,0.9,1.9
		C581.3,514.9,576.2,517.2,571,519.6z"/>
	<path class="st72" d="M476.9,513c6.1-2.5,12.5-0.1,18.6-1c-2.7,2.5-6.6,0.1-9.4,2.3C483,515,480.1,513,476.9,513z"/>
	<path class="st73" d="M509,507.5c-0.6-0.5-1.1-0.9-1.7-1.4c2.4-1.1,4.8-2.3,7.2-3.4c0.6,0.2,1.3,0.3,1.5,1.1
		C514.2,506,511.6,506.7,509,507.5z"/>
	<path class="st74" d="M546.9,525c-1.6-0.5-3.2-1-4.8-1.4c3-1,6-0.9,8.9,0.3C549.7,524.2,548.3,524.6,546.9,525z"/>
	<path class="st75" d="M344.4,609.3c0.3-3.3,0.9-5.3,4.1-8.1C348,605.1,347.4,607.2,344.4,609.3z"/>
	<path class="st75" d="M518.4,500.9c1.5-0.7,2.8-3.8,4.4-1c0.7,1.2-1.8,1.7-3.1,2.2C519.1,501.9,518.7,501.5,518.4,500.9z"/>
	<path class="st76" d="M518.4,500.9c0.5,0.4,0.9,0.8,1.3,1.2c-1.2,0.6-2.5,1.1-3.7,1.7c-0.5-0.4-1-0.7-1.5-1.1
		C515.8,502.1,517.1,501.5,518.4,500.9z"/>
	<path class="st6" d="M450.9,958.4c1,2.2,2.1,4.4,2.9,6.7c0.8,2.4,0.6,4.6-2.8,4.4c-0.9-0.6-1.8-1.2-2.6-1.8
		c-10.5-12.2-20.2-25.1-28.5-39c-7.6-12.7-15.7-25-23.4-37.6c-0.9-1.5-3.4-3.3-1-5.2c2.8-2.1,3.7,1,5.1,2.5c0.6,0.7,1.1,1.4,1.6,2.2
		c3.5,5.5,6.3,11.5,15.2,8.5c3.5-1.2,8.7-0.5,9.4,5c0.7,5.2-1.5,9.2-7.6,10.1C428.5,930,439.3,944.5,450.9,958.4z"/>
	<path class="st67" d="M411.7,874.5c5.5-1.6,10.8-2.7,14.7,3.1c-1.6,8.5-6.5,11.8-13.3,8.9C406.9,883.7,406.3,879,411.7,874.5z"/>
	<path class="st6" d="M1437.4,719.4c0.3-3,0.9-6.2,4.5-6.4c3.4-0.2,4.9,2.6,6.1,5.3c2.5,5.7,4.9,11.4,7.2,17.2
		c3.8,9.9,11.3,16.3,20.3,21.3c2.1,1.1,6.3,1.6,4.8,5.1c-1.6,3.7-4.6,0.6-6.9,0c-1.1-0.3-2.1-0.6-3.2-0.8
		c-9.5-1.9-16.4-7.6-21.9-15.3c-4.4-6.2-7.5-13.1-10.5-20.1C1437,723.8,1436.1,721.6,1437.4,719.4z"/>
	<path class="st4" d="M1437.4,719.4c6.2,17.7,14.2,33.9,32.8,41.8c-21.9-2-34.5-14.4-36.6-33.7
		C1433.3,724.2,1432.9,720.5,1437.4,719.4z"/>
	<path class="st77" d="M1401.9,719.6c1.1,0,2.2,0,3.3,0c0.2,1.1,0.8,2.2,0.5,3.2c-3.8,11.4-2,22,4.7,31.9c0.7,1.1,2.5,2.7,0.6,4
		c-2.3,1.7-3-1-3.9-2.1C1397.8,745.3,1396.1,733,1401.9,719.6z"/>
	<path class="st1" d="M1313.5,761.4c-12.7-0.8-13.8-2.1-11.8-14.7c1.7-10.4,3.2-20.8,8.1-30.2c4.1-7.9,9.5-9.5,16-5.2
		c3.2,2.4,3.4,5.8,2.2,9.1c-4.3,11.8-7.2,23.9-10.8,35.9C1316.6,758.3,1316,760.5,1313.5,761.4z"/>
	<path class="st78" d="M1313.5,761.4c5.2-13.8,7.7-28.5,13.2-42.3c1-2.5,0.5-5.3-0.9-7.8c6-1.4,8.6,1.2,7.9,7.1
		c-1.3,11.3-2.2,22.8-6.8,33.4c-1.1,2.6-1,5.3-1.9,7.8c-0.9,2.6-2.3,5-5.3,5.6C1316.7,765.8,1314.7,764.1,1313.5,761.4z"/>
	<path class="st1" d="M1290.7,789.5c-6.1-4.4-3.9-8.6-0.2-13.5c4.4-6,8.7-3.7,13.4-0.9c2.1,1.4,3.5,3.4,4.3,5.8
		c2.6,7.1-1.1,12.1-8.7,11.4C1296.4,792,1293.2,791.7,1290.7,789.5z"/>
	<path class="st78" d="M1290.7,789.5c2.8,0.3,5.7,0.5,8.5,1c6.6,1.2,9.7-2.4,7.4-8.8c-0.8-2.3-1.8-4.5-2.8-6.7
		c4.8,0.1,7.5,2.9,8.2,7.2c0.8,4.4,0.9,9.1-3.3,12.2c-3.9,2.9-8.3,2.8-12.6,0.6C1293.8,793.8,1291.6,792.2,1290.7,789.5z"/>
	<path class="st1" d="M511.6,683.8c-6,5-13.1,4.3-19.5,2.8c-7.6-1.7-9.1,0.3-10.4,7.8c-5.4,31.8-35.9,49.8-67.4,40.3
		c-5.1-1.5-10.1-3.6-15.1-5.8c-15.1-6.5-23.8-18.3-23.5-34.5c0.2-15.7,10.7-25.7,24.1-32.1c13.6-6.5,27.2-4.1,40.2,2.3
		c16.8,8.2,34.3,14.3,52.8,17.6C499,683.4,505.1,684.4,511.6,683.8z"/>
	<path class="st4" d="M374.2,548.3c-0.7-4.9,0.3-7.2,6.2-9c20.5-6.3,41-12.8,60.6-21.7c4-1.8,7.5-4.9,11.2-7.4
		c1.1,0.1,2,0.5,2.7,1.4c0.5,3,2.1,4.7,5.2,5.3c17.4,3.1,34.7,7.8,52.6,3.5c2.8-0.7,4.7,1.1,6.8,2.1c15.6,7.6,31.3,14.9,49.2,14.5
		c14.6-0.3,29-0.9,42.3-8.7c6-3.5,3.8,4.2,5.9,6.3c-26.3,15.6-55,14.2-83.6,10.5c-11.7-1.5-22.7-7.1-31.2-16
		c-1.5-1.6-3.3-2.3-5.4-2.2c-15.7,0.9-31.2-1.1-46.8-2.7c-4-0.4-7.1,2.2-9.9,4.7c-7.6,3.8-15.3,7.3-22.8,11.4
		c-8.8,4.7-18.4,5.5-28,6.2C384.3,547,379.5,549.9,374.2,548.3z"/>
	<path class="st77" d="M490.7,657.9c3.5-1.7,5.5,0.3,7.6,1.1c6.8,2.6,13.7,3.7,21,2.8c2.9-0.4,7.4-1.8,7.9,2.3
		c0.5,4.4-4.3,4.1-7.5,4.6C508.2,670.2,499.4,665.3,490.7,657.9z"/>
	<path class="st1" d="M1324.8,886.2c-5.8-2.4-12-4.2-16.6-9c6.7,1.2,12.8,4.3,19.4,5.6c13.4,2.5,26.9,0.3,40.3,0.7
		c15.9,0.3,25,7.1,29.2,21.8c2.5,8.8-0.6,17.9-7.9,23.3c-5.9,4.4-12.6,7.1-19.9,7.3c-17.6,0.4-31.9-6.8-42.6-20.4
		C1319.5,906.2,1319.2,893.9,1324.8,886.2z"/>
	<path class="st1" d="M1368.6,792.7c5.9,4.1,4.4,10.3,4.6,16c-1.7,7.8-4.5,15-11.2,20c-4.7,3.4-9.9,4.6-15,1.1
		c-5-3.5-5.8-8.7-4-14.4c2-6.2,5.3-11.9,9.4-16.8C1356.4,793.7,1361.9,791.1,1368.6,792.7z"/>
	<path class="st21" d="M1362.2,850.8c-4.1-0.1-7.5-1.6-10.4-4.2c-1-0.9-2.3-1.9-1.4-3.3c0.8-1.3,2.2-1,3.5-0.2
		c6.1,3.8,12.4,2.7,18.8,1.1c1.6-0.4,3.8-1.4,4.5,1.1c0.8,2.5-1.7,2.8-3.2,3.2C1370.1,849.3,1366.1,850,1362.2,850.8z"/>
	<path class="st6" d="M589.4,653.4c-8.8-1.3-17.8-2-26.2-5.6c-5.1-2.2-7.6-5.4-5.8-11.6c4.2-14.4,7.9-28.9,11.7-43.4
		c0.8-3.2,1.3-4.7,6-4.7c8.9,0,16.8,2.1,24.5,5.8c8.2,3.9,10.8,9.7,9.4,18.5c-1.8,11.3-5.1,22.2-9,33
		C598.4,650.2,595.8,654.4,589.4,653.4z"/>
	<path class="st79" d="M247,683.4c4.6,2.7,6.3,5.9,2.4,10.6c-2,2.4-3.6,5.1-5.5,7.7c-8.1,11.2-8.7,22.6-1.5,34.5
		c1.1,1.8,3.8,3.8-0.1,5.9c-3.6,1.9-4.3-1.2-5.4-3.1c-8.7-14.2-5.8-28.3,0.9-42.3c0.4-3.5,3.3-5.2,5.4-7.4
		C243.2,686.5,246.1,685.6,247,683.4z"/>
	<path class="st44" d="M209.1,730.3c-8.3,0.9-16.3,2.5-23.6,6.8c-1.1,0.7-2.2,1.5-3.4,2.2c-2.5,1.4-5.6,3.7-7.7,0.7
		c-2-2.9,1-5.4,3.2-7.3c8.5-7.2,18.7-7.8,29.2-7.2c0.9,0,1.8,0.3,2.6,0.6c2,0.5,5.3,0.2,4.9,3.1C213.9,731.9,210.9,730,209.1,730.3z
		"/>
	<path class="st13" d="M244.3,673.6c-0.7,5.5-3,8.1-9.2,7c-7.3-1.3-14.7,1.3-22.1,1.4c-2,0-4-0.1-6-0.2c-1.7-0.1-3.2-0.6-3.1-2.7
		c0-1.6,1.2-2.3,2.6-2.6c1.1-0.2,2.2-0.3,3.3-0.5c7.2-1.1,15.8,1,19.1-10.8c2,5.7-1.5,6.9-2.3,9.2c4.3,2.9,5.3-2.3,8-3.3
		c0.6,6.7,1.3,6.9,9.8,2.5C244.4,673.7,244.3,673.6,244.3,673.6z"/>
	<path class="st13" d="M202.2,648.2c0.4-5.7,4.1-3.9,7.3-3c7.4,5.2,15.3,9.2,24.5,9.6c1.2,0.1,2.2,0.5,2.3,1.8
		c0.1,1-0.6,1.5-1.5,1.9C225.5,662.4,208.7,657.1,202.2,648.2z"/>
	<path class="st80" d="M152,692.2c7.1,3.2,9.2-3.5,13.3-6.6c1.5-1.2,2.3-4.9,5-2.7c2.7,2.2-0.4,4-1.5,5.5
		c-2.8,4.3-6.1,8.3-10.1,11.5c-1.3,1-2.7,2.8-4.6,0.9c-1.2-1.2-4.1-2.2-0.2-4.3C155,696,151.3,695.1,152,692.2z"/>
	<path class="st21" d="M192.6,712c5.1-1,9.1-1.2,12.8-3c1.3-0.6,3.2-1.2,3.9,0.9c0.6,2-1,2.8-2.5,3.3
		C202.4,714.9,198.1,714.4,192.6,712z"/>
	<path class="st81" d="M243.3,689.3c-1.8,2.5-3.6,5-5.4,7.4c-0.4-0.5-0.8-0.9-1.1-1.4C238.3,692.7,239.3,689.4,243.3,689.3z"/>
	<path class="st44" d="M147.2,905.7c0-0.9,0-1.8,0-2.8c0.3-4.2,4.1-4.3,6.7-5.4c6-2.4,12.2-4.3,18.3-6.6c4.5-1.7,7.2-3.6,3.7-8.6
		c-0.6-0.9-2-2.7,0.4-3.7c0,0,0-0.1,0-0.1c4.8,1.5,6.8,6,8.5,9.8c2.1,4.9-4.1,5.3-6.4,7.8c-7.6,2.9-15.3,5.8-22.9,8.7
		C152.8,905.9,150.1,907.2,147.2,905.7z"/>
	<path class="st82" d="M267.6,689.7c2.2,3.5,0.8,7.4,1,11.1c-0.8,0.8-0.1,2.2-1.3,2.8c-1.1-1.3-1.2-2.8-1.1-4.4
		C268.7,696.4,266.7,692.8,267.6,689.7z"/>
	<path class="st83" d="M224.4,628.9c-1.9-0.7-3.6-1.7-4.1-3.8c2.5-0.6,4.1,1,5.7,2.5C225.4,628,224.9,628.5,224.4,628.9z"/>
	<path class="st4" d="M730.6,610.4c0.7-3.8,1.5-8,5.9-8.9c4.7-1,8.8,2,10.6,5.7c7.9,16.6,18.4,31.7,26.8,48c1.7,3.3,2,6.9,0.9,10.5
		c-2-10-7.8-17.1-16.2-22.6c-5.9-3.9-8.8-10-10.4-16.7C745.9,617,741.1,610.6,730.6,610.4z"/>
	<path class="st7" d="M253.3,693c8.4,12.1,6.1,31.7-5,43.2C238,720.4,239.4,712.7,253.3,693z"/>
	<path class="st84" d="M258.9,738.1c2.3-4.8,4.2-9,6.3-13.4C270.8,733.7,269.2,737.1,258.9,738.1z"/>
	<path class="st85" d="M267.3,703.6c0.5-0.9,0.9-1.9,1.3-2.8c0.1,8,0.3,16,0.5,23.9c-2.1-1.8-3.6-3.7-2.7-6.8
		C267.7,713.3,267,708.4,267.3,703.6z"/>
	<path class="st0" d="M466.6,624.1c-12.6-0.7-23.6-4.4-34.8-7.8c-2.5-0.8-4.7-2.2-3.7-5.3c3.2-10.9,4.3-22.4,8-33.2
		c2-5.7,5.5-8.1,11.6-7.8c11.7,0.6,23.2,1.7,34.4,5.2c1.5,0.5,3.8,0,2.8,3.1c-3.9,13-6.1,26.6-10.6,39.5
		C473,621.7,471.3,625.5,466.6,624.1z"/>
	<path class="st86" d="M176.4,878.7c-0.3,4.1,6.4,7,3.1,10.7c-2.3,2.7-7.2,3-10.9,4.6c-7.1,3.1-15.1,4-21.4,8.9
		c-2.5-5.3-0.7-10.9-1.1-16.3c-0.2-2.8,2.4-2,3.9-2.5c7.5,1.6,14.1-1.1,20.6-4.3C172.4,878.9,173.9,876.1,176.4,878.7z"/>
	<path class="st7" d="M145.7,856.1c0-4.7,0-9.4,0-14.2c0-3.5,1.3-4.1,3.9-1.9c5,4.2,10.2,8,13.9,13.6c3.1,4.8,3.4,8.9,0.1,13.7
		c-3.7,5.4-8.8,7.4-15,7.4c-2.7,0-2.6-1.9-2.6-3.8c0-4.9,0-9.9,0-14.8C145.9,856.1,145.8,856.1,145.7,856.1z"/>
	<path class="st1" d="M336.5,679.2c-0.1,0.4-0.3,0.8-0.6,1.2c-0.5-0.3-1-0.7-1.6-1c0.1-1.7,0-3.4,1.5-5.4
		C336.2,676,336.4,677.6,336.5,679.2z"/>
	<path class="st87" d="M1323,272.9c-8.3-0.1-16.4,1.9-24.6,2.6c-1.9,0.2-5.2,1.4-5.4-1.8c-0.2-2.8,2.9-1.8,4.8-2.1
		c11.2-1.7,22.4-3.4,33.6-5.2c18.8-1.8,37.1-6,55.7-8.9c4.2-0.7,8.4-1,12.7-1.3c1.6-0.1,4.1-0.4,4.2,2c0.1,2.4-2.3,2.3-4,2.6
		c-14.2,2.2-28.3,4.5-42.4,6.7C1345.9,269.4,1334.5,271.1,1323,272.9z"/>
	<path class="st13" d="M1429.4,272.7c-4.7-1.4-1.5-5.2-2.3-7.8c6.4-12,2.4-21.9-6.3-30.9c-1.2-1.2-3.3-2.4-1.3-4.3
		c1.4-1.3,3-0.1,4.2,1c6.3,5.5,11.9,11.6,12.9,20.5c0.2,3.7,1.6,7.3,0.7,11.1C1436.2,266.9,1434.6,271.2,1429.4,272.7z"/>
	<path class="st70" d="M1455.1,266.1c-0.1,0.2-0.2,0.4-0.4,0.5c-1.4,2,0.8,6.5-2.9,6.2c-3.6-0.3-0.9-4.5-2.1-6.6
		c1.3-7.8,1.3-15.5-2-23c-3.3-7.6-11.5-9.7-18.5-15.3c14.6,1.1,25,12.5,25.9,26.7C1455.4,258.5,1455.1,262.3,1455.1,266.1z"/>
	<path class="st48" d="M1429.4,272.7c6.8-5.7,6.9-13.6,7.2-21.5c0.8,2.8,1.7,5.5,2.5,8.3c-0.3,2.6,0.9,5.2-0.1,7.9
		C1437.3,272.2,1434.7,274.7,1429.4,272.7z"/>
	<path class="st1" d="M1189.3,286.5c2.1,2.7,2.1,5.8,1.6,9c-4.8,26.9-39.7,39.8-56.1,34.4c-23.6-7.9-35.3-37.8-22.5-58.9
		c2.8-4.6,6.4-5.9,11.4-4c2.9,1.1,5.9,2.1,8.7,3.5c21.7,11.3,44.9,10.9,68.3,9.2c1.1-0.1,2.2-0.3,3.3-0.3c0.4,0,0.8,0.4,1.8,0.8
		c-5.1,3.9-11.3,2.8-16.4,5c-3.6,0.9-7.2,1.6-10.7,2.5c-17.3,2-33.9,0.6-49.8-7.4c-7.2-3.6-7.5-2.9-10.8,4.7
		c-1.7,3.9-1.5,7.8-0.3,11.7c2.3,10.8,7.9,19,18.4,23.4c13.6,5.6,24.1-2.1,36.4-8.3c-3.9-1.5-6.9-1.5-9.3-2.9
		c-1.2-0.7-2.4-1.5-2.1-3.1c0.3-1.9,1.8-2.4,3.6-2.3c2.3,0,4.4,0.8,6.6,1.1c4.7,0.8,7.6-1,9.6-5.4c1.9-4.3,1.7-9.3,4.6-13.2
		C1186.7,285.8,1188.1,285.5,1189.3,286.5z"/>
	<path class="st44" d="M1130.2,224.1c-13.3,0.9-26.6,5.4-36.9,16.6c-1.3,1.4-2.4,3.8-4.8,1.9c-2-1.5-1.5-3.5-0.9-5.5
		c1.5-4.9,5.1-7.8,9.3-10.1c12.3-6.6,25.3-8.7,39.1-6.6c1.9,0.3,4.9-0.4,4.8,2.4c-0.2,3-3.2,1.4-4.9,1.6
		C1134.5,224.5,1133.1,224.2,1130.2,224.1z"/>
	<path class="st44" d="M1228.5,200.8c-12.2,0.8-22.4,3.4-31.7,9.3c-2.1,1.3-4.8,4.1-7,1.2c-1.9-2.5,0.6-5.1,2.4-6.9
		c1.5-1.6,3.4-3.1,5.4-3.9c13.6-5.8,27.6-6.8,41.9-3c1.6,0.4,3.3,0.9,3.1,2.8c-0.3,2.3-2.1,2.3-4.1,1.9
		C1234.7,201.5,1230.9,201.1,1228.5,200.8z"/>
	<path class="st13" d="M1197.3,165.1c0.9-1.3,1.9-2.7,2.8-4c10.5,5.4,21,10.9,31.4,16.3c1.7,0.9,3.2,2.2,2.1,4.2
		c-1,1.9-2.6,0.6-4.1,0.1c-6.5-2.3-13-4.7-19.7-6.6C1204.2,173.5,1199.9,170.6,1197.3,165.1z"/>
	<path class="st44" d="M1115.1,185.3c-0.3,2.3-0.7,4.6-1,6.9c-5.4,13.8-17.3,18.4-30.2,22c-1.5,0.4-2.8,0.3-3.4-1.1
		c-0.8-1.8,0.8-2.5,2-2.8c12.4-3.6,21.1-11.3,26.9-22.7C1110.3,185.8,1111.8,182.8,1115.1,185.3z"/>
	<path class="st21" d="M1159.5,254c2-1.5,4-0.1,5.5,0.4c4.9,1.7,9,1.2,12.7-2.9c1.3-1.5,3.5-3.8,5.6-1.4c1.9,2.2-0.4,4.1-1.9,5.6
		C1176.2,261,1166,260.2,1159.5,254z"/>
	<path class="st88" d="M1178.3,286.3c3.5-1.8,7.3-1,11.1-1.1c0,0.4,0,0.9-0.1,1.3c-1.2,0-2.4,0-3.6,0
		C1183.2,288.1,1180.7,288.7,1178.3,286.3z"/>
	<path class="st66" d="M1042.4,321.6c5.6-5,11.2-10,16.8-15c0.2-0.2,0.8,0,2.2,0c-2.9,6.4-9,9.7-12.5,14.9
		c-13.4,12.6-25,26.9-37.7,40.1c-7.9,8.3-16.1,16.2-25.6,22.8c-1.7,1.2-3.7,3.6-5.8,1.1c-2.2-2.7,0.9-4.1,2.3-5.3
		c19.4-17,37.4-35.5,55.8-53.6C1039.5,325,1040.9,323.2,1042.4,321.6z"/>
	<path class="st66" d="M1244.6,378.2c1.9-0.1,3.7-0.1,5.6-0.2c4.9,1.1,9.8,2.6,14.9,2.7c7.2,1.6,8.5,4.2,5.6,10.7
		c-3.1,7-8.4,11.5-15.7,13.6c-1.5,0.4-3.3,1.1-4.4-0.4c-1.2-1.8-0.1-3.7,1.2-4.8c2.4-1.9,5.3-3.3,7.8-5.2c2.6-1.9,5.3-4.7,4.9-7.6
		c-0.3-2.6-4.4-2.3-6.9-3.1C1253.1,382.4,1248,382.3,1244.6,378.2z"/>
	<path class="st6" d="M647.9,249.9c17.2,1.5,34.5,2.6,51.6,4.5c11.2,1.2,19,7.3,22.1,18.7c1.1,4.1,3.2,7.9,4.7,11.8
		c0.6,1.5,1.1,3.3-0.7,4.1c-1.7,0.8-2.8-0.5-3.6-2.1c-2.1-4.5-4.3-8.8-6.5-13.3c-3.2-6.8-8.1-11.4-15.9-11.7
		c-22.6-0.8-45-5.2-67.8-2.5c-6.8,0.8-11.9,2.6-14.4,9.7c-1.1,3.2-3.2,8-7.3,6c-4-2-0.9-6.2,0.1-9.5c2.9-9.7,9.6-14.1,19.5-14.2
		C635.8,251.2,641.8,249.7,647.9,249.9z"/>
	<path class="st6" d="M742.3,208.4c-1,6.7-2.4,14-6,20.5c-3.4,6.1-11.9,7-16.7,2.2c-8.6-8.7-5.5-29.1,5.4-34.8
		C735.2,191,742.4,195.8,742.3,208.4z"/>
	<path class="st6" d="M633.2,205.1c-0.5,5.9-2.5,13-8,18.5c-5.4,5.4-10.8,4.9-15.4-1.1c-9.1-11.8-3.2-29,11.3-32.8
		C628.2,187.9,633.1,193.6,633.2,205.1z"/>
	<path class="st44" d="M602.3,163.7c4.1-3,9.4,0.5,13.5-2.5c7.2-0.8,13-4.5,18.6-8.8c1.8-1.4,3.3-3.2,5.1-4.4c3-1.9,6.2-7.1,9.4-3.5
		c2.9,3.3-1.9,6.8-4.4,9.4c-10.8,10.9-24.2,13.8-39,12.6C603.7,166.4,602.7,165.4,602.3,163.7z"/>
	<path class="st66" d="M755.3,171.1c-11.1-1.9-21.8-6.2-30.3-14.8c-2.2-2.3-5.6-5.3-3-8.6c3.1-3.8,6.2,0,8.5,1.9
		c8.6,7.2,17.2,14.4,28.5,16.9c1.4,0.3,2.7,1.2,2.1,2.8C760.2,171.8,757.9,170.9,755.3,171.1z"/>
	<path class="st44" d="M728.3,246.6c-9.5-0.2-17.2-4.5-24.3-10.2c-1-0.8-2.4-1.8-1.5-3.3c0.8-1.2,2.3-1.3,3.6-0.7
		c2.9,1.3,5.8,2.4,8.5,3.9c8.9,4.9,18.2,5.8,27.9,2.6c1.5-0.5,3-0.9,4.5-1.3c1.3-0.3,2.8-0.6,3.4,1c0.6,1.7-1,2.4-2.1,2.8
		C741.8,243.9,735.4,246.7,728.3,246.6z"/>
	<path class="st4" d="M679.3,170.6c0,3,1.6,2.3,3.5,1.7c7-2.5,12.3-7.1,16.7-12.9c5.9-7.7,9.2-16.7,13.4-25.3
		c1.7,19.9-10.3,36.6-27.4,41.2c-2.4,0.6-4.9,1.5-6.8-0.8C677.5,173.1,677.4,171.6,679.3,170.6z"/>
	<path class="st67" d="M758.8,186.9c-0.1,2.4-1.4,3.1-3.1,1.8c-10-7.7-21.3-4.7-32.3-3.9c-1.8,0.1-4.4,1.8-5.3-0.8
		c-1.1-3.2,2.3-3.5,4.1-4c10-2.8,19.9-2.5,29.6,1.1C754.8,182.2,757.5,183.9,758.8,186.9z"/>
	<path class="st69" d="M635.8,183.8c-11.8-4.9-23.4-2.5-34.9,0.6c-1.9,0.5-4.2,2-5.1-0.6c-0.8-2.1,1.8-3,3.3-3.6
		c10.8-4.3,21.7-5.2,32.6-0.6C633.4,180.3,635.7,180.6,635.8,183.8z"/>
	<path class="st89" d="M632.3,233.1c-10.1,8.6-24.1,10.5-33.9,5c-1.8-1-5-1.8-3.5-4.6c1.1-2.2,3.6-0.9,5.4,0
		c9.1,4.4,18.1,3.9,27.2-0.1c1-0.4,2.1-0.7,3.2-0.9C630.9,232.4,631.3,232.7,632.3,233.1z"/>
	<path class="st77" d="M673.3,237.8c-5.3-0.7-9.6-2.1-13.4-4.4c-0.9-0.6-2.1-1.1-1.6-2.6c0.6-1.7,2.2-1.6,3.3-0.9
		c6.3,3.5,12.5,2.4,18.8,0.2c1.6-0.6,4.4-1.5,5.3,0.9c0.9,2.5-1.8,3.4-3.5,4.1C679.1,236.3,675.8,237.1,673.3,237.8z"/>
	<path class="st90" d="M700.9,142.6c2.8-3.1,5.6-6.2,8.3-9.3c-4.9,15.2-11.4,29.2-27.3,35.8c4.4-4.7,10.4-7.6,14.1-13.1
		C698.7,151.9,701.2,147.8,700.9,142.6z"/>
	<path class="st91" d="M655.3,279.1c8-3,14.7-1.9,21.2-2.8c1-0.1,1.7,0.7,1.8,1.6c0.1,1-0.5,1.7-1.5,1.8
		C670.2,279.9,663.6,281.8,655.3,279.1z"/>
	<path class="st1" d="M843.7,344.5c-5.5-7.2-11-14.4-16.5-21.6c-7.1-7.2-12.5-15.2-13.3-25.6c0-3.7-1.3-7.2-0.3-11.1
		c3-11.9,11-16.7,23.5-13.4c11.5,6.1,13,17.5,15.3,28.9c3.5-2.9,4.6-7.2,7.1-10.4c4.3-5.5,8.6-10.9,15.7-13.1
		c6.1-2,11.1-0.3,15.3,4.1c4.2,4.4,5.9,9.3,3.5,15.4c-7.1,18.4-15.9,35.6-30.4,49.4c-7.8,7.5-9.4,7.7-17,0.1
		C845.7,346.2,844.7,345.4,843.7,344.5z"/>
	<path class="st7" d="M813.9,297.2c2.8,9.4,8.7,17.2,13.3,25.6c-0.7,0-1.5,0.2-2-0.1c-9.8-5.5-20.2-8.4-32-7.6
		c6.1-6.4,12.1-12.9,18.2-19.2C812.7,294.7,812.9,297.1,813.9,297.2z"/>
	<path class="st83" d="M707.4,119.1c-8.9,4.3-17.6,9.1-27.5,11c8.2-5.4,17.1-9.3,26.4-12.6c0.8-0.3,1.5,0.7,1,1.8
		C707.2,119.2,707.4,119.1,707.4,119.1z"/>
	<path class="st0" d="M783.3,672.1c-0.6-1.4-1.8-2.9-1.7-4.3c1.2-11.9-5.6-20.2-12-28.9c-5.3-7.2-6.6-16-9.6-24.2
		c-3.3-9-7.8-16.5-17-20.5c-5-2.2-5.2-8-7.3-12.2c-5.1-10.3-4.8-10.1,5.3-15.1c20.2-10.1,41-18.8,62-27c2.5-0.6,3.6,1.3,4.8,2.8
		c11.8,15.6,18.9,33.8,27.2,51.3c0.4,0.8,0.3,1.8,0.1,2.6c-0.3,1-1,1.7-2.1,1.9c-3.2-0.9-4.2-3.8-5.7-6.3c-5-8.5-9.6-17.3-14.8-25.7
		c-3.6-5.9-6.2-6.8-12.9-4.8c-2.8,0.8-5.5,2.1-7.9,3.7c-11.3,7.4-23.7,12.8-36.4,18.4c12.7,20.4,20.3,43.3,32.1,64.2
		c8.7,15.3,8.6,15.4,23.3,6.5c9.3-5.5,18.7-10.8,29.1-14c2.3-0.7,4.6-1.9,7.2-1.2c3.3,2.6,2.7,6.2,1.3,9.2
		c-2.4,5.1-5.8,9.6-11.8,11.2c-8.3-4.2-12.5,1.7-16.9,7C808.4,673.8,796.7,678.5,783.3,672.1z"/>
	<path class="st4" d="M836,658.7c9.3-4,13.4-11.3,10.5-18.8c1.5-6.2-0.8-11.6-3.5-17.1c-2.6-5.1-6-9.9-6.3-16
		c-0.5-3.4-2.3-6.6-2.2-10.1c-9.2-19.6-16.7-40.2-31.2-56.8c4.8-3.7,7.5-2.6,10.8,2.7c19.2,31.9,37.1,64.5,55.5,96.9
		c5.2,9.2,5.1,9.3-3.6,15c-7,4.5-14,8.8-21.2,13c-3,1.8-6.2,3.8-10,3.4C834.7,666.8,836.5,662.9,836,658.7z"/>
	<path class="st4" d="M783.3,672.1c9.8,2.8,19.2,0.4,28.5-2.5c2.8-0.9,5.5-2,7.5-4.2c2.2,1.8,3.5,4.5,6.1,5.9c0.9,1,2.8,1.5,2,3.5
		c-7.2,2.3-14,5.6-21.5,7.1C795.9,683.9,789,681,783.3,672.1z"/>
	<path class="st67" d="M824.8,672.4c-3.2-1.2-5.8-3-5.5-7c1-4.4,5.6-5.8,8-9.2c1.8-2.5,6.1-0.1,8.7,2.5c3.2,4.5,0.9,8.4-1.5,12.2
		c-0.5,0.5-1,1-1.5,1.5C830.2,673.3,827.5,673.5,824.8,672.4z"/>
	<path class="st92" d="M824.8,672.4c2.7,0,5.4,0,8.1,0c-1.5,1.7-3.7,1.7-5.6,2.5C826.5,674,825.7,673.2,824.8,672.4z"/>
	<path class="st93" d="M454.9,511.7c-1.1-0.1-2.2-0.2-2.7-1.4c2.3-1.8,4.6-3.6,6.9-5.3c-1.1,3.5,5.2,1.7,3.9,5.4
		C460.3,510.6,457.3,509.5,454.9,511.7z"/>
	<path class="st94" d="M467.8,510.6c2.2,0.1,4.4-0.8,6.5,0.3c0.1,0.1,0.2,0.4,0.1,0.5c-0.1,0.2-0.3,0.3-0.4,0.5
		C471.9,511.4,469.5,512.3,467.8,510.6z"/>
	<path class="st95" d="M420.9,904.8c-0.6,1.6-0.7,3.8-3.4,3c-1.6-0.4-3.1-1.1-3.2-3c-0.1-2.7,2.3-2.3,3.8-2.7
		C420.3,901.5,420.9,902.9,420.9,904.8z"/>
	<path class="st96" d="M417,882c-1.8-0.4-4.3-0.5-4.1-2.7c0.2-2.7,3-2.8,5.1-3.2c1.6-0.3,2.5,0.5,2.5,2.1
		C420.4,880.6,419.4,882,417,882z"/>
	<path class="st0" d="M427.1,730.3c-11.6-1.2-23.7-5.2-34.1-12.9c-8.7-6.4-13.6-20.5-10.1-28.8c5.5-13,15.1-22.1,29.7-23.1
		c17-1.2,23.3,2,30.5,17c5.5,11.3,9.9,22.9,11.7,35.5c0.6,4.5-0.6,7-5.2,8.4C442.6,728.5,435.6,729.9,427.1,730.3z"/>
	<path class="st0" d="M1330,893.7c-2-7,2.8-5.7,7.3-5c9.1,1.5,18.3,0.8,27.5,1c11,0.2,19.5,3.8,23.9,14.7c2.9,7.2,1.3,14-5.2,18.3
		c-6.1,4.1-12.9,6-20.3,4.8c-10.5-1.7-19.4-6.7-26.8-14.1C1331.1,908.2,1329.1,901.7,1330,893.7z"/>
	<path class="st79" d="M1366.7,806.2c-1.7,3.2,0.2,8.7-5.5,8.6c-2.8,0-6.5-0.7-6.1-5.4c0.4-4,5.2-9.2,8.8-8.8
		C1367.9,801,1365.4,804.5,1366.7,806.2z"/>
	<path class="st7" d="M572.5,591.3c5.7,5,12.7,4,18.7,6.4c11,4.2,13,7.5,9.8,18.5c-2.2,7.7-4.5,15.3-6.5,23
		c-1.3,4.9-3.3,7.5-9.2,6.3c-5.7-1.1-11.4-2-17-3.4c-3.3-0.9-4.8-2.7-3.8-6.3C568.4,621.4,571.1,606.7,572.5,591.3z"/>
	<path class="st6" d="M446.5,605.8c0.4-12.8,11.1-22,21.9-18.9c3.6,1,5.8,3.3,6.6,6.8c1.7,7.9-5.6,20.2-13.3,22.7
		C453.6,618.9,446.3,613.8,446.5,605.8z"/>
	<path class="st0" d="M1178.3,286.3c2.5,0.1,4.9,0.2,7.4,0.2c-1.6,4.9-1.7,10-3.9,14.9c-2.2,4.8-5.2,6.2-10,5.1
		c-3.4-0.8-6.7-2.1-11.6-1.5c4.9,4.6,10.2,3.8,16.5,4.8c-10.8,8.6-21.7,15.1-34.6,13.5c-14.7-1.8-23.1-11.7-26-26.2
		c-0.5-1-0.3-2.2-0.4-3.3c-0.6-5.1,1.3-6.1,5.6-3.6c3.9,2.2,8.2,3.4,13.4,5.2c-5.2-2.2-9.6-3.5-13.7-5.7c-2-1.1-4.9-1.5-4.9-4.8
		c3.3-10.4,3.8-11.4,13.3-6.4C1145.2,286.9,1161.6,287,1178.3,286.3z"/>
	<path class="st22" d="M1116.2,285.1c6,4.3,13,6.3,19.6,9.2c1.3,0.6,3.8,0.6,3.2,2.6c-0.8,2.8-3.1,0.8-4.4,0.3
		c-6.1-2-12.5-3.4-17.7-7.8c-2.2,2.6-0.2,5.3-0.7,7.7C1114.3,293.2,1114.2,289.2,1116.2,285.1z"/>
	<path class="st97" d="M735.4,207.9c-1.5,2.6,0.8,7.4-4.9,7.1c-4.5-0.2-5.6-3.3-5.4-6.8c0.2-4.1,3.2-6.7,6.9-6.8
		C736.4,201.2,734.2,205.6,735.4,207.9z"/>
	<path class="st98" d="M620,207.7c-2.5-0.2-6,0-5.2-3.5c0.8-4.2,4.6-7.1,8.6-7.5c3.5-0.4,3.1,3.6,3.4,6.1
		C627.4,208.6,622.5,206.5,620,207.7z"/>
	<path class="st0" d="M822.3,289.3c0.6-4.4,1.7-8.3,6.6-10c4.8-1.7,8.4,0.6,11.4,3.7c4.7,4.9,6.5,11.3,7.3,17.7c0.7,4.9,3.1,8,7.5,9
		c5.2,1.2,7.5-2.7,9.4-6.8c2.6-5.5,6.2-10.4,11.2-14.1c2.2-1.6,4.6-2,6.9-0.4c2.3,1.6,2.8,3.9,1.7,6.5
		c-6.3,15.7-13.6,30.7-26.1,42.6c-1.3,1.2-2.4,3.5-4.7,1.1c-13-13.5-23.8-28.5-30.7-46.1C822.4,291.6,822.5,290.4,822.3,289.3z"/>
	<path class="st1" d="M838.4,606.5c0.4,8.1,5.9,14.1,8.6,21.2c1.6,4.2,3.6,8.3-0.6,12.2c-16.2,5.1-30.8,13.3-44.8,22.6
		c-4.2,2.8-6,0.4-8.1-2.4c-8.5-11.2-14.4-23.7-19.9-36.5c-5.3-12.3-11.2-24.4-17.9-36.1c-2.4-4.2-1.9-3.5,1.4-5.7
		c8.8-5.6,19.3-7.7,27.8-14.1c4.7-3.5,10-5.9,15.5-8c5.9-2.3,9.9-1.5,13.2,4.7c6.1,11.5,13,22.5,19.5,33.7
		C835.9,600.2,836.3,603.8,838.4,606.5z"/>
	<path class="st99" d="M838.4,606.5c-3.1-1.9-4.1-5.2-5.3-8.4c0.4-0.5,0.9-0.9,1.3-1.4C836.4,599.7,837.6,603,838.4,606.5z"/>
	<path class="st100" d="M831.8,661.3c2.8,4.4-0.4,6.3-3.6,6.9c-2.1,0.4-6,0.5-4.7-4.1C826.2,663.2,828.7,661.2,831.8,661.3z"/>
	<path class="st101" d="M831.8,661.3c-2.5,1.7-5,3.7-8.3,2.8C825.8,661.8,827.6,658.1,831.8,661.3z"/>
	<path class="st6" d="M598.2,615.8c0,10.5-6.2,19.1-14.7,21c-8.9,2-15.5-4.3-13.3-13c1.7-6.6,4.2-12.8,10.6-16.5
		c4.1-2.4,8.3-3.5,12.7-1C597.6,608.5,598,612.6,598.2,615.8z"/>
	<path class="st102" d="M465.2,592c2.2,0.5,5.5,0.5,4.4,4.1c-0.8,2.7,0.5,7.8-4.8,7.2c-3-0.4-6.9-1.1-7.5-5.2
		C457,595.2,461.5,591.9,465.2,592z"/>
	<path class="st0" d="M758.9,586.2c10.5-1,18.6-6.6,27.1-11.6c5.4-3.2,10.5-6.8,16.5-8.9c2.8-1,4.3-0.6,5.9,2.1
		c11.8,20.3,23.6,40.6,32.5,62.4c0.8,2.1,2.9,4.4-1.4,5.5c-13.4,3.6-24.8,11.3-36.5,18.2c-3.5,2.1-5,1.9-7.3-1.5
		c-7.8-11.6-13.7-24.1-19.7-36.6C771,605.6,765.1,595.8,758.9,586.2z"/>
	<path class="st103" d="M588.2,624c-2.9-1.6-7.8-0.5-8-4.9c-0.2-3.8,3.6-4.6,6.8-4.8c2.6-0.1,5.1,0.6,4.6,4.1
		C591.2,620.7,591,623.2,588.2,624z"/>
</g>
<g id="speech1">
	<g class="st104">
		<ellipse class="st105" cx="273.5" cy="264.4" rx="143.5" ry="139"/>
		<ellipse class="st106" cx="453.2" cy="287.9" rx="23.1" ry="23.5"/>
		<ellipse class="st106" cx="501.5" cy="287.9" rx="13.9" ry="14.1"/>
		<ellipse class="st106" cx="536.7" cy="282.4" rx="10.1" ry="10.2"/>
	</g>
	<g>
		<g>
			<ellipse class="st107" cx="269.5" cy="252.4" rx="143.5" ry="139"/>
			<ellipse class="st108" cx="449.2" cy="275.9" rx="23.1" ry="23.5"/>
			<ellipse class="st108" cx="497.5" cy="275.9" rx="13.9" ry="14.1"/>
			<ellipse class="st108" cx="532.7" cy="270.4" rx="10.1" ry="10.2"/>
		</g>
	</g>
	<text transform="matrix(1 0 0 1 189.5168 179.9382)" class="st109 st110">No, its</text>
	<text transform="matrix(1 0 0 1 152.3368 221.9382)" class="st109 st110">too risky!</text>
	<text transform="matrix(1 0 0 1 189.5167 263.938)" class="st109 st110">theyll</text>
	<text transform="matrix(1 0 0 1 145.6299 305.938)" class="st109 st110">disown me!</text>
	<text transform="matrix(1 0 0 1 205.5253 334.5757)" class="st111 st112">my hearts</text>
	<text transform="matrix(1 0 0 1 205.5753 354.5757)" class="st111 st112">beating so</text>
	<text transform="matrix(1 0 0 1 239.0453 374.5757)" class="st111 st112">fast!</text>
</g>
<g id="speech2">
	<g class="st104">
		<path d="M1643.6,391.7c8.7-1.6,50.5-10.3,79.5-45.9c36.5-44.9,22.4-95.9,19.4-105.8c-2.9-9.4-10.5-33.3-34.1-54.1
			c-54.8-48.2-142.4-32.6-174.5-17c-25.8,12.5-39.6,26.7-39.6,26.7c-2.8,2.9-15.3,16.2-15.3,16.2l0,0c-7.5-4.8-19.6-11.3-35.9-14.9
			c-16-3.5-34-3.7-34.9-0.6c-0.8,2.9,21.6,5.5,43.5,23.7c6.4,5.3,19.8,17.8,19.8,17.8c-0.8,6.9-7.9,76.1,50.7,122.2
			C1530.9,367,1579.6,403.7,1643.6,391.7z"/>
		<path class="st113" d="M1643.6,391.7c8.7-1.6,50.5-10.3,79.5-45.9c36.5-44.9,22.4-95.9,19.4-105.8c-2.9-9.4-10.5-33.3-34.1-54.1
			c-54.8-48.2-142.4-32.6-174.5-17c-25.8,12.5-39.6,26.7-39.6,26.7c-2.8,2.9-15.3,16.2-15.3,16.2l0,0c-7.5-4.8-19.6-11.3-35.9-14.9
			c-16-3.5-34-3.7-34.9-0.6c-0.8,2.9,21.6,5.5,43.5,23.7c6.4,5.3,19.8,17.8,19.8,17.8c-0.8,6.9-7.9,76.1,50.7,122.2
			C1530.9,367,1579.6,403.7,1643.6,391.7z"/>
	</g>
	<g>
		<path class="st114" d="M1639.6,379.7c8.7-1.6,50.5-10.3,79.5-45.9c36.5-44.9,22.4-95.9,19.4-105.8c-2.9-9.4-10.5-33.3-34.1-54.1
			c-54.8-48.2-142.4-32.6-174.5-17c-25.8,12.5-39.6,26.7-39.6,26.7c-2.8,2.9-15.3,16.2-15.3,16.2l0,0c-7.5-4.8-19.6-11.3-35.9-14.9
			c-16-3.5-34-3.7-34.9-0.6c-0.8,2.9,21.6,5.5,43.5,23.7c6.4,5.3,19.8,17.8,19.8,17.8c-0.8,6.9-7.9,76.1,50.7,122.2
			C1526.9,355,1575.6,391.7,1639.6,379.7z"/>
		<path class="st113" d="M1639.6,379.7c8.7-1.6,50.5-10.3,79.5-45.9c36.5-44.9,22.4-95.9,19.4-105.8c-2.9-9.4-10.5-33.3-34.1-54.1
			c-54.8-48.2-142.4-32.6-174.5-17c-25.8,12.5-39.6,26.7-39.6,26.7c-2.8,2.9-15.3,16.2-15.3,16.2l0,0c-7.5-4.8-19.6-11.3-35.9-14.9
			c-16-3.5-34-3.7-34.9-0.6c-0.8,2.9,21.6,5.5,43.5,23.7c6.4,5.3,19.8,17.8,19.8,17.8c-0.8,6.9-7.9,76.1,50.7,122.2
			C1526.9,355,1575.6,391.7,1639.6,379.7z"/>
	</g>
	<text transform="matrix(1 0 0 1 1541.4218 191.8186)" class="st109 st110">no, of</text>
	<text transform="matrix(1 0 0 1 1519.2218 233.8186)" class="st109 st110">course </text>
	<text transform="matrix(1 0 0 1 1513.0217 275.8186)" class="st109 st110">not! why</text>
	<text transform="matrix(1 0 0 1 1539.1617 317.8186)" class="st109 st110">would</text>
	<text transform="matrix(1 0 0 1 1549.5618 359.8186)" class="st109 st110">you--</text>
</g>
<g id="speech3">
	<g class="st104">
		<path d="M1140.6,494.8c13.2-0.4,77.4-1,128.4,35.1c64.3,45.5,54.8,112.2,52.6,125.3c-2.2,12.4-8.1,44-38.5,76
			c-70.6,74.3-204.3,78.7-255.6,68.2c-41.1-8.4-64.8-22.3-64.8-22.3c-4.8-2.8-26.4-15.8-26.4-15.8l0,0c-10.1,8-26.6,19.3-50,28
			c-23,8.6-49.8,13.7-51.7,10.2c-1.9-3.3,30.8-12.6,59.3-41c8.3-8.3,25.4-27.3,25.4-27.3c-2.8-8.3-28.8-91.8,48-164.6
			C978.6,555.9,1042.7,497.4,1140.6,494.8z"/>
		<path class="st115" d="M1140.6,494.8c13.2-0.4,77.4-1,128.4,35.1c64.3,45.5,54.8,112.2,52.6,125.3c-2.2,12.4-8.1,44-38.5,76
			c-70.6,74.3-204.3,78.7-255.6,68.2c-41.1-8.4-64.8-22.3-64.8-22.3c-4.8-2.8-26.4-15.8-26.4-15.8l0,0c-10.1,8-26.6,19.3-50,28
			c-23,8.6-49.8,13.7-51.7,10.2c-1.9-3.3,30.8-12.6,59.3-41c8.3-8.3,25.4-27.3,25.4-27.3c-2.8-8.3-28.8-91.8,48-164.6
			C978.6,555.9,1042.7,497.4,1140.6,494.8z"/>
	</g>
	<g>
		<path class="st114" d="M1136.6,482.8c13.2-0.4,77.4-1,128.4,35.1c64.3,45.5,54.8,112.2,52.6,125.3c-2.2,12.4-8.1,44-38.5,76
			c-70.6,74.3-204.3,78.7-255.6,68.2c-41.1-8.4-64.8-22.3-64.8-22.3c-4.8-2.8-26.4-15.8-26.4-15.8l0,0c-10.1,8-26.6,19.3-50,28
			c-23,8.6-49.8,13.7-51.7,10.2c-1.9-3.3,30.8-12.6,59.3-41c8.3-8.3,25.4-27.3,25.4-27.3c-2.8-8.3-28.8-91.8,48-164.6
			C974.6,543.9,1038.7,485.4,1136.6,482.8z"/>
		<path class="st115" d="M1136.6,482.8c13.2-0.4,77.4-1,128.4,35.1c64.3,45.5,54.8,112.2,52.6,125.3c-2.2,12.4-8.1,44-38.5,76
			c-70.6,74.3-204.3,78.7-255.6,68.2c-41.1-8.4-64.8-22.3-64.8-22.3c-4.8-2.8-26.4-15.8-26.4-15.8l0,0c-10.1,8-26.6,19.3-50,28
			c-23,8.6-49.8,13.7-51.7,10.2c-1.9-3.3,30.8-12.6,59.3-41c8.3-8.3,25.4-27.3,25.4-27.3c-2.8-8.3-28.8-91.8,48-164.6
			C974.6,543.9,1038.7,485.4,1136.6,482.8z"/>
	</g>
	<text transform="matrix(0.9838 -0.1791 0.1791 0.9838 996.628 594.8497)" class="st109 st110">when did</text>
	<text transform="matrix(0.9838 -0.1791 0.1791 0.9838 948.2189 640.2531)" class="st109 st110">we teach you</text>
	<text transform="matrix(0.9838 -0.1791 0.1791 0.9838 989.3159 669.362)" class="st109 st110">to lie? we</text>
	<text transform="matrix(0.9838 -0.1791 0.1791 0.9838 952.6141 712.6341)" class="st109 st110">already know</text>
	<text transform="matrix(0.9838 -0.1791 0.1791 0.9838 964.3939 747.0802)" class="st109 st110">that you are!</text>
</g>
<g id="heart" class="st116">
	<path class="st117" d="M854.7,299.7c0.7-0.4,1-1.1,1.3-1.8c2.2-4,4.4-8,7.2-11.7c3.3-4.5,7.2-8.4,12.3-10.8c4.2-2,8.5-2.7,12.9-0.8
		c6,2.6,9.7,7.2,10.5,13.8c0.3,2.5-0.6,4.9-1.5,7.2c-3.4,8.4-6.9,16.7-11.4,24.6c-4.9,8.6-10.7,16.7-17.7,23.8
		c-1.8,1.8-3.6,3.7-5.5,5.4c-3.7,3.3-7.3,3.2-11-0.1c-9.1-8.5-16.6-18.1-23.2-28.6c-4.1-6.5-8.3-12.9-11.5-19.8
		c-2-4.4-3.3-9-3.2-13.9c0.1-4.2,1.2-8.2,3.5-11.8c4.7-7,13-9.5,20.8-6.2c5.6,2.4,9.3,6.7,11.7,12.2c2.3,5.2,3.3,10.7,4.3,16.3
		c0.1,0.7,0.2,1.4,0.4,2.1C854.5,299.5,854.6,299.6,854.7,299.7z M832.9,275c-1.6,0.1-3.2,0.4-4.6,1.3c-3.2,2-4.5,5.1-4.8,8.6
		c-0.4,4.6,1.2,8.8,3.4,12.8c4.2,7.8,9.1,15.2,14.1,22.5c4.6,6.7,9.9,12.8,15.9,18.4c0.4,0.4,0.7,0.7,1.3,0.1
		c3.1-3.1,6.3-6.1,9.1-9.5c6.2-7.8,11.2-16.3,15.3-25.2c2.1-4.5,4.3-9,5.7-13.8c0.2-0.6,0.3-1.2,0-1.8c-2.2-4.3-4.6-5.4-8.8-3.2
		c-3.1,1.6-5.3,4.3-7.4,7c-2.6,3.3-4.5,7.1-6.4,10.8c-1.2,2.5-3.1,4.3-5.9,4.7c-2.6,0.4-4.8-0.2-6.3-2.6c-0.2-0.3-0.5-0.4-0.8-0.4
		c-1.2-0.1-1.8-0.8-2.1-2c-0.5-2.6-1-5.2-1.6-7.8c-1.1-4.9-2.6-9.6-5.6-13.7C840.8,277.5,837.4,275.4,832.9,275z"/>
</g>
</svg>
