<?xml version="1.0" encoding="utf-8"?>
<!-- Generator: Adobe Illustrator 24.1.3, SVG Export Plug-In . SVG Version: 6.00 Build 0)  -->
<svg version="1.1" id="Layer_1" xmlns="http://www.w3.org/2000/svg" xmlns:xlink="http://www.w3.org/1999/xlink" x="0px" y="0px"
	 viewBox="0 0 1895.1 1074.7" style="enable-background:new 0 0 1895.1 1074.7;" xml:space="preserve">
<style type="text/css">
	@import url("https://fonts.googleapis.com/css2?family=Permanent+Marker");
	.st0{fill:#FEFEFB;}
	.st1{fill:#2B2B2B;}
	.st2{fill:#A1A19F;}
	.st3{fill:#2C2C2B;}
	.st4{fill:#EFCCE0;}
	.st5{fill:#202020;}
	.st6{fill:#212121;}
	.st7{fill:#EAE200;}
	.st8{fill:#FDFDFA;}
	.st9{fill:#E0531F;}
	.st10{fill:#9BC52A;}
	.st11{fill:#EF9D02;}
	.st12{fill:#71E0F9;}
	.st13{fill:#222222;}
	.st14{fill:#C4BAFC;}
	.st15{fill:#FBFBF8;}
	.st16{fill:#F6F6F3;}
	.st17{fill:#FCFCF9;}
	.st18{fill:#EBC9DC;}
	.st19{fill:#F8F8F5;}
	.st20{fill:#CD714F;}
	.st21{fill:#EAEAE8;}
	.st22{fill:#E4E2E0;}
	.st23{fill:#616160;}
	.st24{fill:#9EB859;}
	.st25{fill:#555554;}
	.st26{fill:#B4B4B2;}
	.st27{fill:#E8A82B;}
	.st28{fill:#97828E;}
	.st29{fill:#2F2F2F;}
	.st30{fill:#343434;}
	.st31{fill:#2D2D2D;}
	.st32{fill:#313131;}
	.st33{fill:#343433;}
	.st34{fill:#292928;}
	.st35{fill:#464646;}
	.st36{fill:#636362;}
	.st37{fill:#A6A6A4;}
	.st38{fill:#96828D;}
	.st39{fill:#FBF3F5;}
	.st40{fill:#313130;}
	.st41{fill:#373737;}
	.st42{fill:#464645;}
	.st43{fill:#858583;}
	.st44{fill:#5E5E5D;}
	.st45{fill:#7D7D7B;}
	.st46{fill:#F9F9F6;}
	.st47{fill:#2C2C2C;}
	.st48{fill:#E1E1DE;}
	.st49{fill:#95818C;}
	.st50{fill:#F2F2EF;}
	.st51{fill:#696968;}
	.st52{fill:#2E2E2D;}
	.st53{fill:#3A3A3A;}
	.st54{fill:#3F3F3F;}
	.st55{fill:#3D3D3D;}
	.st56{fill:#393939;}
	.st57{fill:#3C3C3C;}
	.st58{fill:#383838;}
	.st59{fill:#A2A2A0;}
	.st60{fill:#232323;}
	.st61{fill:#2E2E2E;}
	.st62{fill:#242424;}
	.st63{fill:#9C9C9A;}
	.st64{fill:#947F8B;}
	.st65{fill:#DEDEDC;}
	.st66{fill:#FAFAF7;}
	.st67{fill:#6A6A69;}
	.st68{fill:#F4F4F1;}
	.st69{fill:#E5E5E2;}
	.st70{fill:#E8E8E5;}
	.st71{fill:#F09D00;}
	.st72{fill:#E1531E;}
	.st73{fill:#71E0FA;}
	.st74{fill:#C5BAFE;}
	.st75{fill:#FEFDFB;}
	.st76{fill:#EAE201;}
	.st77{fill:#9BC629;}
	.st78{fill:#131313;}
	.st79{fill:#A0A09E;}
	.st80{fill:#262626;}
	.st81{fill:#8C3B1E;}
	.st82{fill:#9EB958;}
	.st83{fill:#E5A72E;}
	.st84{fill:#E7A82E;}
	.st85{fill:#9FBB55;}
	.st86{fill:#A1BD53;}
	.st87{fill:#9FBA55;}
	.st88{fill:#A6C64D;}
	.st89{fill:#A0BC56;}
	.st90{fill:#A6C554;}
	.st91{fill:#A2BE54;}
	.st92{fill:#CB7252;}
	.st93{fill:#363636;}
	.st94{fill:#F6F6F4;}
	.st95{fill:#323232;}
	.st96{fill:#2D2C2C;}
	.st97{fill:#FBFAF7;}
	.st98{fill:#262525;}
	.st99{fill:#FAF9F7;}
	.st100{fill:#F7F7F4;}
	.st101{fill:#95818D;}
	.st102{fill:#A3A2A1;}
	.st103{fill:#F8F6F4;}
	.st104{fill:#E8CCDB;}
	.st105{fill:#FCFBF9;}
	.st106{fill:#A3A2A0;}
	.st107{fill:#282627;}
	.st108{fill:#313031;}
	.st109{fill:#3B3B3B;}
	.st110{fill:#4C4C4C;}
	.st111{fill:#50504F;}
	.st112{fill:#F4ECEE;}
	.st113{fill:#9B9497;}
	.st114{fill:#978C92;}
	.st115{opacity:0.5;}
	.st116{stroke:#F4FF00;stroke-width:15;stroke-miterlimit:10;}
	.st117{opacity:0.39;}
	.st118{fill:none;stroke:#000000;stroke-width:8;stroke-miterlimit:10;}
	.st119{fill:#FFFFFF;}
	.st120{font-family:'Permanent Marker';}
	.st121{font-size:56.4893px;}
	.st122{stroke:#000000;stroke-width:7;stroke-miterlimit:10;}
	.st123{stroke:#000000;stroke-width:5;stroke-miterlimit:10;}
	.st124{fill:#FFFFFF;stroke:#000000;stroke-width:7;stroke-miterlimit:10;}
	.st125{fill:#FFFFFF;stroke:#000000;stroke-width:5;stroke-miterlimit:10;}
	.st126{font-size:40px;}
	.st127{stroke:#000000;stroke-width:6.9996;stroke-miterlimit:9.9992;}
	.st128{stroke:#000000;stroke-width:4.9996;stroke-miterlimit:9.9992;}
	.st129{fill:#FFFFFF;stroke:#000000;stroke-width:6.9996;stroke-miterlimit:9.9992;}
	.st130{fill:#FFFFFF;stroke:#000000;stroke-width:4.9996;stroke-miterlimit:9.9992;}
	.st131{font-size:30px;}
</style>
<g id="drawing">
	<path class="st0" d="M945,0.1c315.9,0,631.9,0,947.8-0.1c5.1,0,6.2,1.1,6.2,6.2c-0.1,354.1-0.1,708.2,0,1062.3
		c0,5.1-1.1,6.2-6.2,6.2c-631.9-0.1-1263.7-0.1-1895.6,0c-5.1,0-6.2-1.1-6.2-6.2C-8.8,714.4-8.8,360.3-9,6.2c0-5,1.1-6.2,6.2-6.2
		C313.2,0.1,629.1,0.1,945,0.1z"/>
	<path class="st1" d="M1382.7,95.9c115.2,0,230.4-0.1,345.5,0.1c20.4,0,40.8,0.7,61.2,0c6.7-0.3,9.6,2.4,9.7,9.2c0.1,13,0,26,0,39
		c0,90.2,0,180.4,0,270.6c0,28.7,0,57.4,0,86.1c0,7.9-1.9,10-9.9,10.1c-10.8,0.1-21.6,0-32.3,0c-90.2,0.1-180.5,0.3-270.8,0.5
		c-58.4,0.1-116.7,0.2-175.1,0.5c-57,0.2-114,1.2-171,0.7c-53.7-0.5-107.3,0.6-160.9,0.2c-12.3-0.1-14.6-2.2-14.5-14.4
		c0.1-108.4,0.3-216.7,0.4-325c0-22,0.1-44,0.2-66c0-10.5,2-12.4,12.7-12.4c134.9,0,269.9,0,404.8,0
		C1382.7,95.4,1382.7,95.7,1382.7,95.9z"/>
	<path class="st1" d="M1385.8,569.9c54.3,0,108.7-0.1,163,0c59.7,0.1,119.4,0.3,179.2,0.5c21.6,0.1,43.1,0.3,64.6,0.4
		c7.7,0.1,9.3,1.7,9.3,9.6c0,131.7,0,263.4,0,395.1c0,8-1.6,9.4-10.3,9.4c-45.3,0.2-90.7,0.4-136,0.5c-76.6,0.2-153.1-0.2-229.7,0.6
		c-112,1.1-224.1,0.6-336.1,0.8c-36.4,0.1-72.7,0.2-109.1,0.2c-10.5,0-12.6-1.9-13.3-12.2c-0.2-2.2-0.1-4.5-0.1-6.7
		c0-63.5,0-127,0-190.5c0-35.7-0.5-71.3-0.4-107c0-30.7,0.5-61.4,0.8-92.2c0.1-6.5,2.9-9.4,9.3-9.9c1.8-0.1,3.6,0,5.4,0
		c74.3,0,148.6-0.1,223,0c51.6,0.1,103.3,0.3,154.9,0.5c8.5,0,17,0,25.6,0C1385.8,569.3,1385.8,569.6,1385.8,569.9z"/>
	<path class="st1" d="M83,847c-0.6-39.5-1.2-78.9-1.8-118.4c-1-61.6-2.1-123.3-3.1-184.9c-0.8-44.4-1.6-88.8-2.2-133.2
		c-1-77.6-1.8-155.2-2.8-232.8c-0.3-24.7-0.9-49.3-1.3-74c-0.1-8,2.3-10.5,10.2-10.6c42.8-0.6,85.7-1.1,128.6-1.8
		c57.6-0.9,115.3-2.1,172.9-3.1c40.6-0.7,81.2-1.5,121.8-2.3c74.9-1.4,149.8-2.7,224.7-4.1c47.5-0.9,95.1-1.8,142.6-2.7
		c9.8-0.2,11.5,1.9,11.7,11.8c1.4,72.8,2.8,145.7,4.2,218.5c0.9,45.9,1.8,91.9,2.7,137.8c1.4,74.2,2.7,148.4,4,222.6
		c0.9,53.3,1.8,106.7,2.7,160c0.8,44.6,1.7,89.2,2.4,133.8c0.2,9.8-2.4,12.3-12.1,12.5c-53.8,0.9-107.7,1.7-161.5,2.7
		c-71.5,1.3-143.1,2.7-214.7,4c-52.7,1-105.4,1.7-158.1,2.7c-40.6,0.8-81.2,1.7-121.7,2.6c-1.7,0.9-3.4,0.5-5.2,0.3
		c-1.1-3.4,1.9-3.3,3.5-3.3c12.8-0.1,23-7.1,33.6-12.8c4-2.2,6.8-2.7,9.8,1.2c3.5,4.4,8.1,5.3,13.3,3.2c6.8-2.8,14.5-2.3,21.4-5.5
		c-3.2-1-7.1,0.9-9.4-2.6c0.1-0.8,0.5-1.4,1.2-1.8c5.2-1.8,10.6-1,16-1c1.4,0,2.7-0.2,4-0.2c37.9,0.7,75.8-1.3,113.8-1.7
		c27.4-0.3,54.8,0.1,82.1-1.3c23.1-1.2,46.2-0.1,69.3-1.2c19.5-0.9,39-1.5,58.5-1.2c15.9-0.4,31.8,1,47.7-0.8
		c18.4-1.3,36.8,0,55.2-0.6c33-1.1,66-1.2,98.9-1.5c9.4-0.1,18.8-1.5,28.2-1.2c4.6,0.1,6.5-2,6.5-6.5c-0.2-9.2,0.6-18.4-0.7-27.6
		c-0.4-2.7-0.7-5.3-0.6-8c0.9-41.5-1.2-83-1.7-124.5c-0.3-27.6,0-55.2-1.4-82.7c-1.2-22.7,0-45.3-1.2-67.9
		c-1.5-29.4-0.1-58.8-1.5-88.1c-1.3-26.3,0.1-52.5-1.2-78.7c-1.5-28.5,0-57-1.5-85.4c-1.3-26,0-52-1.2-78
		c-1.5-35.2-0.1-70.4-1.5-105.6c-1.3-31.9-0.4-63.7-1-95.5c0-1.8-0.1-3.6-0.1-5.4c-0.2-4.2-2.4-6-6.6-5.7c-26.2,2-52.5-0.4-78.7,1.2
		c-25.2,1.5-50.3-0.1-75.4,1.3c-27.4,1.6-54.8-0.1-82.1,1.4c-26.9,1.5-53.9-0.2-80.8,1.3c-29,1.6-57.9-0.2-86.8,1.4
		c-26.7,1.4-53.4-0.2-80.1,1.3c-29,1.6-57.9-0.1-86.8,1.4c-23.4,1.2-46.7-0.2-70,1.3c-24.7,1.5-49.4,0.3-74,1.3
		c-13.2,0.5-26.4,1.9-39.6,0.6c-0.8-0.2-1.6-0.6-2.2-1c-1.8-1.5-2.5-3.7-3.8-5.5c-2.8-3.8-6.7-4.3-10.8-3.5
		c-4.2,0.8-6.8,3.7-7.1,7.9c-0.5,7.1-1.8,14.2-0.1,21.4c3.9,16.6,3.4,33.8,5.2,50.7c1,9.7-0.2,19.7,2.8,29.2
		c2.1,8.2,1.6,16.4,0.5,24.6c-3.7,10.7-2.8,22.1-4.5,33.1c-3,19.9-0.3,39.8,1,59.6c0.5,7.8,0.7,15.7,0,23.5c-2,23.8-1.9,47.4,1.9,71
		c0.8,4.7,1,9.3,1,14.1c-0.1,24.9,0.1,49.7-1.2,74.6c-1.3,24,2.5,47.8,4.5,71.7c1,11.4,1.5,22.8-1.2,34.1
		c-4.2,17.6-1.2,35.2-0.3,52.9c1.2,24,3.8,47.9-1.9,72.2c-5.4,22.7-4.7,46.2-3,69.6c0.9,12.2,2.3,24.6-1.9,36.6
		C84.7,847,84,847.2,83,847z"/>
	<path class="st2" d="M227,988.2c1.8,0.1,3.6,0.2,5.4,0.3c-14.6,4.5-29.4,7.4-44.6,7.7c-23.9,0.4-47.8-0.3-71.7,2.4
		c-4,0.5-8.2-0.4-11.6-2.5c-4.4-2.6-8.8-5-13.6-6.4c1.3-1.5,3-1.8,4.8-1.9c0.9-0.2,1.8-0.3,2.7-0.3c39.2,0.9,78.4-1.7,117.7-1.3
		C219.7,986.2,223.7,985.5,227,988.2z"/>
	<path class="st3" d="M94.9,989.7c-1.4,0-2.7,0.1-4.1,0.1c-4.8-2.3-5.5-6.5-5.6-11.2c-0.4-26.4-0.9-52.8-1.4-79.2
		c-0.3-17.4-0.6-34.9-0.9-52.3c0.4,0,0.7,0,1.1,0c2,1.9,1.9,4.4,2,6.9c0.3,9.9,2,19.7,4.5,29.2c2.6,9.8,4.2,19.7,3.6,29.9
		c-0.7,13.6,1.3,27.2-1.1,40.8c-1.7,9.5,0.2,19.2,1.8,28.7C95.4,984.9,96.6,987.3,94.9,989.7z"/>
	<path class="st0" d="M1132.3,495.3c-29.6,0.1-59.2,0.2-88.9,0.2c-18.6,0-37.3-0.2-55.9,0c-4.6,0-6.3-1.1-6-5.9
		c0.4-8.5,0.1-17,0.1-25.6c-0.1-103.2-0.1-206.4-0.2-309.6c0-12.8,0-25.6-0.3-38.4c-0.1-4,0.9-5.5,5.2-5.4c9.6,0.3,19.3-0.1,29-0.1
		c91.2-0.1,182.3-0.1,273.5-0.4c6.4,0,7.2,2.3,7.4,7.5c1.1,30.7,4.1,61.2,8,91.7c2.7,20.9,2.8,42,3.3,63.1c0.2,10.8,1.2,21.4,3.7,32
		c0.7,3,0.4,6.2,0.6,9.4c1.8,6.8-0.2,11.7-5.8,16.3c-5.6,4.6-11.3,8.2-17.8,11.6c-10.1,5.2-18.1,13.8-29.5,17.1
		c-4,1.2-7.1,5.6-8.5,10c-4.2,12.9-10.8,25.2-10.9,39.3c0,5.6-2.6,10.1-6.7,14.1c-8.6,8.2-17.4,16.2-24.6,25.8
		c-8.9,11.9-9.6,24.7-5.2,38.3c2.9,8.8,3.1,8.7-6.4,8.8C1174.9,495.1,1153.7,494.4,1132.3,495.3z"/>
	<path class="st0" d="M1784.4,496.7c-43.1,0-86.2,0-129.2,0c-0.7-3,1-5.2,2.4-7.5c7-11,12.2-22.9,16.8-35.1
		c5.1-13.4,10.4-26.8,16.4-39.8c2.5-5.6,3.7-11.5,4.1-17.6c0.6-9.4-2.5-17.1-9.4-23.4c-2.2-2-4.3-4-6.6-5.8
		c-8.7-6.9-8.9-8.8-0.8-16.8c11.9-11.6,23.1-23.9,32.4-37.7c2.9-4.3,5.7-8.7,7.1-13.7c5.1-18.4,10.5-36.5,9.7-56.1
		c-1.8-43.2-16.9-79.8-51.2-107.6c-9.2-7.4-18.4-14.3-29.4-18.5c-3.1-1.2-6.4-2.4-7.8-6c1.5-2.2,3.7-1.3,5.6-1.3
		c44.7-0.1,89.3,0.1,134-0.2c5.4,0,6.7,1.5,6.7,6.8c-0.2,124.7-0.1,249.5-0.1,374.2C1785,492.7,1785.6,494.8,1784.4,496.7z"/>
	<path class="st0" d="M1666,150.9c18.7,24.2,30.2,51.2,33.4,81.9c3.9,37-9,67.6-32.3,95.4c-17.1,20.3-37.5,34.2-63.9,38.9
		c-2,0.3-3.9,1-6.6,0.1c3-4.4,5.8-8.5,8.7-12.7c4.2-0.3,8.2,0.9,12.5,0.6c11.9-0.8,15.8-4.3,16.8-16.5c0.1-0.7,0.2-1.3,0.3-2
		c8.2-13.5,7.9-27.5,2.6-41.9c-4.4-11.9-11.5-15.3-23.3-10.8c-3.5,1.3-6.1,0.6-8.4-2c-3.3-5.4-9.5-8.5-12.1-14.5
		c-0.5-4.5-4.2-6.5-7.3-9c-11.9-12.1-23.5-24.4-32.7-38.8c-11.7-20.2-22.2-40.8-29.2-63.2c-2.1-6.6-3.3-13.4-5.4-20.1
		c-0.6-2-1.2-4-1.7-6c-0.4-3.8-1.3-7.4-2.7-10.9c-1.4-3.3-1.5-6.4,1.4-9.1c12-1.3,24.1-0.2,36.2-0.6c1.1,0,2.2,0.1,3.4,0
		c24.3-2.3,47.5,1.6,69.6,11.7C1640.6,129,1655.2,137.3,1666,150.9z"/>
	<path class="st0" d="M1436.9,231.6c-7.8-10.1-18.1-13-30.3-10.4c-1.6,0.3-4.4,3.3-5-1.2c-0.4-3.1,0.9-4.7,4.2-5.3
		c5.2-1,10.4-2.6,15.6-3.7c10.7-2.1,13.9-10.7,17.1-19.4c4.2,1.6,3.5,5.7,4.2,8.9c2.9,14.7,10.5,26.4,22.5,35.3
		c4.4,2,7,6.6,11.7,8.1c2.8-0.4,0.7-1.6,0.4-2.5c-4.9-6.5-9.6-13.2-13.6-20.3c-1.3-2.3-2.9-4.5-1.7-7.4c3.2-2.1,4.6,0.8,5.7,2.6
		c7.6,11.9,18.5,12.8,30.8,9.6c7.7-2,20.2,4.3,22.5,11.1c-0.8,1.2-2.1,1.5-3.4,2c-3.4,1.4-8.3,0.5-10.1,4.5
		c-2.6,5.9-5.3,12-4.9,18.6c0.6,8.4,11.7,13.6,19.8,9.6c11.1-5.5,14.6-12,13.1-24.2c-0.5-4.4,1.3-5.8,6.1-4
		c7.6,2.8,13.8,7.4,18.4,14c0.6,0.9,1.2,1.8,1.6,2.8c-0.3-1.1-0.9-1.9-1.5-2.8c-7.2-9.7-16.5-16.3-28.2-19.6c-1-0.8-2.4-1.6-1.8-3.1
		c0.7-1.6,2.4-1.8,3.9-1.7c4.3,0.5,8.6,1.2,13,0.3c0.7,0,1.3,0.1,1.9,0.4c9.4,7.8,18.3,16.3,27.9,24c1.9,1.9,3,4.3,4.3,6.5
		c4.6,11.5,12.6,19.9,23.2,26.1c3.3,1.9,5.6,2.7,8-1.8c3.2-5.9,11.1-6.1,15.9-1c7.6,8.1,9.8,31.6,3.8,40.8
		c-5.2,8-21.2,10.1-30.6,4.1c-1.7-1.1-3.2-2.5-4.8-3.7c-1.4-1.1-3.1-2.5-4.8-1c-2,1.7-0.6,3.7,0.4,5.4c1.5,2.6,3.8,4.3,6.3,5.9
		c2.1,1.3,4.5,2,5.9,4.3c0.8,2.4,0.7,4.4-2.1,5.2c-5.4,3-9.2,7.7-13.6,11.9c-5.3,5.1-11.1,9.5-19.2,11.3c0.3-4.6,0.2-8.9,1-13
		c2.8-14.5,2.2-29,0.5-43.5c-0.8-6.9-0.2-13.8-0.8-20.7c-0.8-11.2-8.8-16.4-17-21.3c-5.1-3.1-9.1,1-12.3,4.2c-4.6,4.6-8.5,7-14,1.3
		c-2.8-2.9-6.2-1.4-9.3,0.3c-1.2,1.6-3.1,2.1-4.8,3.1c-2.6,1.6-5.2-0.7-7.8,0c4.5,12.1,24.8,15.7,41.4,8.2c-9.2,4-19.5,3.1-29.4-1.4
		c-2.4-1.1-6.4-2.2-4.3-6.6c2-1.3,4.2-1.8,6.5-2c3.2-1,4.8,0.9,6.7,3c5.1,5.7,9.1,6,15.2,1.6c3.2-2.2,6.5-8.1,9.6-5.5
		c5.2,4.4,12.9,7.4,12.8,16.6c-0.1,11,0.6,22,1.4,32.9c1.1,14.2-1.6,28.1-2.9,42.2c-0.5,5.8-5.9,3.5-9.5,4.5
		c9.2-27.6,1.1-54.8,1.8-81.8c-2.9-0.4-3.4,0.6-3.3,1.8c1.1,15-2.7,30.2-0.8,45c1.6,12.1-2.9,22.9-3.2,34.5
		c-0.1,3.5-3.9,2.4-5.8,2.7c-23.3,3.1-46.6,2.6-69.4-3.6c-18.5-5.1-37.3-9.6-54.6-18.6c-10.3-5.3-18.1-13.1-24.8-22.2
		c-0.6-0.9-1.5-2-1.4-2.9c2.8-20.7,5.8-41.4,8.8-62.7c9.9,4.6,20.2,3.2,30.8,0.8c-8.1-3-17.5-0.6-24.9-6.2c1.2-3.6,4.7-0.6,6.7-2.2
		c1.8-0.9,3.6-1.8,5.4-2.6c8.2-4.1,10.2-7.4,9.3-16.5c-0.4-4.4-1.5-8.6-2.4-13.3c4.5,0.1,7.1,3.5,10.3,5.4
		C1437,233.9,1437.8,233.6,1436.9,231.6z"/>
	<path class="st0" d="M1661.9,395.9c4.8,5.9,5.5,12.6,3.8,19.7c-1.4,5.7-2.8,11.4-5.6,16.5c-11.1,20-20,41-29.9,61.5
		c-1.3,2.7-2.9,3.4-5.7,3.4c-57.4-0.3-114.9-0.5-172.3-0.7c-3.5,0-6.5-1.5-9.5-3c-11.9-6.2-23.7-12.7-35.8-18.4
		c-26.7-12.4-52.5-26.3-78.3-40.5c-10.9-6-22.8-10.2-34.2-15.4c-2.4-1.1-4.5-0.8-6.1,1.1c-3.8,4.5-9.1,5.1-14.4,5.3
		c-1-0.5-2.2-1.3-1.7-2.5c3.5-8.5,3.1-18.4,9.1-26c1.2-1.6,0.8-3.7,1.7-5.4c1.2-2.1,3.2-3.4,5.3-3.8c8-1.6,15-5.8,22.6-8.6
		c3.9-1.5,6-1.1,6.7,3.2c3.1,18.2,14.5,31.5,27,44c4.3,4.3,10,6.1,15.6,7.7c15.7,4.5,31.4,9.4,47.5,12.7c18.7,3.8,37.4,7.8,56.4,9.8
		c18,1.9,34.9,8.5,52.4,12.3c12.7,2.8,25.8,3.5,38.4,7c2.4,0.7,4.9,0.8,6.7-1.7c-2.4-2.3,7,2,1.3-2.3c-1.7-1.3-0.6-3.4-0.2-5.1
		c0.7-3.3,1.5-6.6,1.9-9.9c0.8-7.1-2-12.6-7.6-17c-1.9-1.4-4.6-2.2-4.6-5.3c1.7-3.4,5.3-4,8.3-5c7.8-2.8,15.3-6.3,22.7-9.8
		c17.1-8.2,35.7-12.6,52.8-21c7.8-3.8,16.5-3.6,25-3.3C1661.3,395.6,1661.6,395.7,1661.9,395.9z"/>
	<path class="st4" d="M1132.3,495.3c2.1-1.9,4.7-1,7.1-1c19.7-0.1,39.4,0,59.2,0c2.7,0,5.8,0.6,3.7-4.1c-8.7-19-4.2-35.7,9.6-50.3
		c6.8-7.2,13.9-13.9,21.1-20.7c3.2-3,4.3-6.9,4.3-10.9c-0.3-15,6.3-28.1,11.7-41.4c3.2-8,9.9-13.9,19.7-13.9c2.8,0,4.8-1.1,6.1-3.4
		c3.8-6.4,9.8-9.8,16.7-11.3c6.3-1.4,8.8-7.6,13.7-10.3c6.2-3.4,6.4-8.5,6.4-14.1c1.7,6.5,0.4,13.2,1.7,20.4
		c6.3-3.5,4.6-10.4,7.5-14.9c10.1-4.3,21.1-0.9,26.1,6.6c-8.2-17.8-10.3-37.9-3-58.6c3-8.5,6.8-16.6,12.1-23.9
		c6.8-9.4,11.2-19.7,13.1-31.3c1.7-10.4,5.2-20.4,9.8-29.9c2.8-5.7,4.1-11.8,5.6-17.9c4.3-17.9,12.1-34.2,21.6-49.8
		c1-1.6,2.2-2.8,3.8-3.7c10.7-0.1,21.5-1.5,32.1,1.1c-3.2,3.8-6.8,7.1-11.9,8.2c-7.4,3.4-11.2,10.1-15.1,16.6
		c-6.9,11.4-13.2,23.6-11.6,37.1c0.8,7.1-0.9,12.1-4.1,17.8c-6.5,11.3-9.1,23.8-9.4,36.7c-0.3,12.9-4.1,23.7-12.1,34.5
		c-19.7,26.7-17.4,45.3-0.1,72.2c4.2,6.5,9.4,12.4,14.4,19c-15.3,1.1-24,11.8-33.4,21.2c-2.6,2.6-5.2,7.9-8,7
		c-3.3-1-3.5-6.7-4.4-10.5c-1.2-5-2.1-10.1-3.3-15.1c-2.3-9.6-7.5-14.6-16.1-15.6c-9.3-1.1-14.5,1.7-19.6,10.6
		c-0.8,4.8-2.6,9.1-6.8,12c-2.6,0.8-5.3,0.7-7.9,0.5c-5.6-0.4-10,1.3-12.9,6.3c-2.3,3.9-6.9,4.6-10.3,7c-2.4,1.8-3.7,4.3-4.3,7.3
		c-2.4,11.3-6.9,22.1-9.4,33.4c-0.3,1.3-0.9,2.5-2.1,3.3c-0.1,0.2-0.4,0.4-0.4,0.5c2.3,9.8-5.5,12-11.5,15.9
		c-19.2,12.4-25.8,34.3-17.7,57.6C1193.3,495.3,1162.8,495.3,1132.3,495.3z"/>
	<path class="st4" d="M1784.4,496.7c0-125.8,0-251.6,0-377.4c0-8.7,0-8.7-8.7-8.7c-45.1,0-90.1,0-135.5,1c2.7,1.4,5.2,3,8,4.2
		c30.9,13.8,53,36.9,67.7,66.9c7.2,14.6,10.1,30.7,12.4,47c3.2,23.1-1.4,44.9-7.4,66.7c-3.6,13.1-12.3,23.1-20.5,33.5
		c-7.1,9-15.5,16.8-23.6,24.9c-3.3,3.4-5.3,6.1,0.4,9c2.3,1.2,4.3,3.2,6.4,4.9c15.3,12.7,17.2,25.2,9.8,44
		c-8,20.1-15.8,40.4-24.5,60.2c-3.7,8.3-9.1,15.9-13.7,23.8c-4.7,0-9.4,0-15.3,0c8.5-14.3,13.3-29.9,21.3-43.9
		c6.7-11.7,12.8-23.5,15.1-37c2.5-15-3.4-27.2-15.8-31.7c-29.9,0.4-57.9,9.5-85.6,19.5c-9,3.2-17,8.9-26.5,11.1
		c-3.7-0.5-3.8-3.1-3.4-5.9c0.6-5,1.6-9.9,2.2-14.9c0.3-1.6,1.7-3,1.2-4.8c7.2-1.7,14.3-3.4,21.5-5.1c7.5-1.8,14.4-5,20.2-10.2
		c1.8-1.6,3.7-2.2,6-2.4c35.5-2,62.6-19.1,84.6-46.1c23.9-29.3,32.9-62.1,28-99.6c-4.5-34.3-21-62.6-42.5-88.4
		c-9.6-11.5-22.7-18.7-37.8-21.7c-5.8-1.2-11.8-2-18.9-6c11.1,0,20.4,0,29.6,0c46.7-0.1,93.4-0.2,140.1-0.5c5.2,0,6.6,1.2,6.6,6.6
		c-0.2,125-0.1,250-0.2,375C1785.6,492.6,1787,495.1,1784.4,496.7z"/>
	<path class="st0" d="M1409.8,110.6c-12,20.3-20.3,42-26.9,64.7c-4.8,16.6-11.5,32.7-15.2,49.8c-1.7,7.8-7,13.9-11.2,20.4
		c-9.5,14.8-15.9,30.7-15.2,48.5c0.4,11.8,3,23.4,7.7,34.7c-7.5-9.2-17.6-10.3-28.2-9.5c3.2-48.9,2.2-97.5-5.6-146
		c-3.1-19.2-3.1-38.8-3.9-58.3c-0.1-2.7-0.2-4.6,3.7-4.6C1346.6,110.5,1378.2,110.5,1409.8,110.6z"/>
	<path class="st2" d="M1520.2,236.9c-5.3-7.1-15.6-10.9-23.4-8.9c-13.1,3.4-22,0.3-30.2-10.2c-1.1-1.4-1.1-4.6-4.3-3.6
		c-6.4-5.1-6.6-12.6-7.8-19.8c0.3-1,0.8-1.8,1.9-2.2c3.1,0.6,4,3.4,5.5,5.5c9.1,12.3,21.8,18.5,36.4,22c-10.2-9.3-16.8-20.5-19.3-34
		c0.4-0.9,1.1-1.6,2.2-1.5c5,4.6,7.6,11,11.4,16.5c6.6,9.4,14,18.1,23.3,24.9c1.9,1.4,3.8,3.1,7.5,3.3c-20.4-17.7-39-36-47.3-61.8
		c2.1,5.3,0.7,11.3,2.4,16.9c0,6.6,3.7,11.9,5.8,17.7c0.9,2.4,3.3,5.1,0.6,7.3c-2.3,1.9-4.7-0.2-6.7-1.4
		c-15.2-9-23.5-22.8-27.8-39.5c-0.6-2.4-0.8-4.9-0.4-7.4c2.1-15.8,3.9-31.6,12.3-45.7c1.1-1.8,1.9-3.7,4.2-4.4
		c16.6,0,33.2-0.1,49.8-0.1c-0.9,3.6-1.4,6.9,0.9,10.5c1.8,2.8,2.5,6.5,1.6,10.1c-0.1,2.9,1.6,5.4,1.6,8.2
		c6.4,28.4,18.5,54.5,33.1,79.5c0.7,3.3,4.3,5.3,3.9,9c-0.3,1.1-1,1.7-2,2c-12.7-5.8-24.8-13.1-32.1-25.1
		c-7.5-12.4-17.1-23.4-24.3-36c-4.1-7.7-8.2-15.5-9.7-24.3c0.1-2.4-1.2-4.6-1.3-7c0.1-3.3-0.5-6.6-1.3-9.8c-0.1-0.6-0.1-1.3-0.1-1.9
		c-0.1,0.5,0,1,0,1.5c0,1.1,0.5,2.1,0.6,3.2c0.9,3.2,0.4,6.5,1.2,9.7c0.9,2.2,0.7,4.6,1.4,6.8c1.6,8.2,5.8,15.4,9.6,22.6
		c5.8,8.5,10.5,17.3,13.5,27.3c4.3,14.4,15.6,23.4,28.4,30.7c2.9,1.7,6.9,2.4,7.5,6.8c-5,2-10.1,1.1-15.2,0.2c-3-0.6-3.2,0.6-1,2.4
		C1528.5,240,1524.3,240,1520.2,236.9z"/>
	<path class="st2" d="M1562.2,474.3c-0.3,5.3-3.8,4.5-7.2,3.7c-24.2-5.3-48.6-9.4-72.6-15.8c-24.8-6.6-50.7-7.9-75.8-13.6
		c-17-3.9-33.7-8.8-50.5-13.7c-13.2-3.9-20.6-14.7-28.4-24.5c-7-8.8-11.3-19.2-12.3-30.8c-9.2,2.4-16.7,8.4-26.1,9.7
		c-2.5,0.4-5.3,1.2-6.3,4.3c-2.3,1.9-5.1,1.5-7.7,1.4c-3.8-0.2-6.6-1.7-6.3-6.1c0.3-4,1.3-7.5,6.4-7.9c5.2-0.5,10.2,1.5,15.8,1.3
		c-4.2-3-2.6-6.4-0.9-9.5c1.8-3.4,4.7-3.7,8.1-2.8c4.1,1.1,8.1,2.8,12.6,3.8c-5.7-2.9-5.7-6.3-1.7-10.6c2.4-2.6,4-6,6.3-8.7
		c2.6-3.2,5.9-4.8,10.1-4c4.4,0.8,6.3,4.1,7,8.1c1.5,9.3,3.2,18.5,5.4,27.7c2.7,11.5,10.4,17,20.6,19.8
		c19.2,5.2,36.1,16.1,55.3,20.9c1.1,0.3,2,1,2.7,1.9c9.9,3.6,19.5,7.9,29.8,10.4c13.1,1.9,25.4,6.1,37.8,10.4
		c21.5,7.5,42.1,17.5,64.9,21.1C1553.5,471,1558.6,470.5,1562.2,474.3z"/>
	<path class="st5" d="M1416.5,428.4c-7.8-1.2-15.5-2.9-22.4-6.8c-14.8-8.3-31.4-11.6-46.7-18.6c-5.3-2.4-7.3-6.2-9-10.7
		c-3.6-9.5-6.1-19.2-6.9-29.3c-0.1-1.8-0.7-3.5-0.9-5.3c-0.4-3.3-1.9-5.4-5.3-6.1c-3.2-0.7-5.8,0.1-7.7,2.7
		c-3.4,4.7-6.8,9.4-10.3,14.2c0.1,0.1,0.3,0.6,0.6,0.9c2.4,2.2,8.8,1.5,7.1,5.9c-1.2,3-5.7-0.8-8.8-1.3c-1.5-0.2-3-0.9-4.5-1.4
		c-9-3-9-3-12.2,6.5c0.6,0.3,1.2,0.6,1.8,0.8c1.7,0.5,4.2,0.5,3.8,2.9c-0.4,2.5-2.8,1.5-4.4,1.4c-4.9-0.5-9.8-1-14.7-1.8
		c-5.5-1-4.7,3-5.4,6.2c-0.9,4.1,1.4,4.6,4.4,4.8c2.7,0.1,5.4,0.2,8.1,0.3c0.6,1.2,2.3,2.4,0.3,3.9c-1.9,0.7-3.8,2.1-5.5,2.1
		c-9.8-0.4-11.5,6.1-12.2,13.6c-0.2,1.5-0.4,3.1-0.9,4.5c-2.1,5.1-0.7,8.2,4.8,9.2c-0.9,4.1-1.2,4.4-7.8,5.6
		c-0.9,0.8-1.8,0.6-2.6-0.1c-4.4-2.4-6.2-6.1-5.6-11c2.2-9.4,3.2-19.1,7.9-27.9c1.3-2.5,1.2-5.1,1.4-7.8c0.4-4.1,1.5-7.9,5.6-9.9
		c0.8-0.6,1.7-0.7,2.5-0.6c6.6,0.6,11.5-1.3,13.8-8.3c1.1-3.3,4.4-3.8,7.8-4c2.8-0.1,5.7,1.8,8.4-0.5c2.4-3.5,3.3-7.9,6.4-10.9
		c3.7-1.4,6.2-5,10.6-5.4c9.2-0.9,13.9,5.1,18.1,11.5c4.1,6.2,6.3,13.3,7.9,20.5c0.9,4.1,2.1,8.2,3.7,12.1c3.7,8.9,9.4,13,19.6,13.3
		c-0.9-3.2-2.9-5.2-5.6-7.1c-5-3.5-6-8.5-2.6-13.4c7-10.1,14.9-19.4,26.5-24.8c6.7-3.1,13.5-3.1,20.4-2.3c4.1,0.5,8.1,2.4,9.4,6.6
		c1.5,4.8,5,5.9,9,6.3c6.7,0.7,11.9,4.9,17.7,7.6c0.9,0.4,1,1.4,0,2.1c-2.3,1.9-4.7,0.6-7-0.1c-9.5-2.8-18.7-6.4-27.2-11.5
		c-8.2-4.9-15.6-3.1-22.5,1.9c-7.3,5.3-12.3,13-18.5,19.5c-2.7,2.8,0.2,3.7,2.1,4.7c4.6,2.5,10.7,2.3,14,7.2c0,2.1-2.4,2.4-3.1,4.2
		c7.5,2.2,14.9,4.1,22.1,6.5C1411.3,414.2,1416.5,420.8,1416.5,428.4z"/>
	<path class="st2" d="M1464.9,237.2c-13.7-8.6-20.9-21.4-24.1-36.8c-0.6-3-0.4-6.2-2.5-8.8c0-1,0-2.1,0-3.1
		c-0.6-10.6-1.5-21.2-2.2-32.5c-1.6,0-2.8,2.7-4.7,1.7c-5.6,3.7-10.2,8.5-15.1,13.1c-1.9,1.8-2.4,1.3-2.5-1c-0.1-0.7-0.3-1.4-0.2-2
		c4.4-23.3,12.7-44.4,34.5-57.2c4.1-2.4,8.6-2.2,13.1-1.4c2.6,0.5,3.3,2,2,4.4c-2.4,4.9-6.1,8.8-9.1,13.3c-3.1,4.8-5.8,9.7-2.6,15.6
		c0.9,1.7,0.3,3.5-0.2,5.2c-9,30.4-2.3,58.4,12.8,85.1C1464.8,234.2,1465.9,235.5,1464.9,237.2z"/>
	<path class="st0" d="M1443.6,379.8c2-0.1,2.9,0,1.5,2.5c-4.9,8.5-4.3,17.3-0.3,26c0.4,0.9,2.2,1.4,0.7,2.6c-4.2,3.4-8.2,7-12.8,9.8
		c-3.2,1.9-6.2-1.4-9.1-2.7c-12.7-5.4-25.3-11.2-37.9-16.8c-0.7-2.5,1.3-3.7,2.8-4.8c9.1-7,18.8-12.9,30-16.1
		c5.1-1.4,10.2-1.4,15.3,0.1C1437.2,381.5,1440.4,381.3,1443.6,379.8z"/>
	<path class="st6" d="M1562.2,474.3c-14.8-2.3-29.7-4.6-43.7-10.1c-23.8-9.3-47.9-17.6-72.2-25.3c2.2-1.9,4.6-1,6.9-0.4
		c7.1,1.7,14.2,3.3,21.8,5c-0.8-2.5-1.4-4.1-1.9-5.8c4.4-1.2,7.9,0.2,10.9,3.4c2,5,8.5,7.8,15,6.3c7.8,1,9.5-0.1,12.7-7.3
		c3.6-8.1,2.6-16.1-0.2-24c3.8-4.6,6.2,0.5,9.3,1.4c2.9,2.8,5,6.6,9.6,7.1c6.8,4.8,14.9,6.7,22.1,10.5c13.4,7.9,16.2,14.5,11.8,30.6
		c-1.2,4.5-1.8,7,3.8,7.3c0.6,0,1.2,1.2,1.9,1.9C1567.2,475.7,1564.6,475.7,1562.2,474.3z"/>
	<path class="st2" d="M1443.6,379.8c-1.3,3.5-3.6,5-7.3,3.2c-7.4-3.5-14.7-2.5-22,0.4c-10.6,4.2-20.2,10-28.6,17.8
		c-0.9-0.3-1.9-0.6-2.8-0.9c-6.8-2.8-13.6-5.5-21.4-8.6c8.2-8.7,14.6-18.2,23.8-24.9c7.1-5.1,14.8-6.3,23.2-1.5
		c10.4,6,21.6,10.8,33.5,13.2C1442.5,379,1443,379.4,1443.6,379.8z"/>
	<path class="st7" d="M1275.6,495.6c-11.5,0-11.5,0-11.2-11.4c0-1.1-0.2-2.3,0.2-3.3c6.7-17.9,16.9-33.4,32.3-45.1
		c1.8-1.3,14.1,3.1,14.3,5c0.2,1.9-1.6,3.1-2.7,4.3c-6.9,7.4-12.8,15.5-17.9,24.2c-3.5,5.9-5.8,12.2-4.6,19.1c1,6-1,8.2-6.9,7.1
		C1277.8,495.4,1276.7,495.6,1275.6,495.6z"/>
	<path class="st2" d="M1455.7,401.2c-0.1-1.3-0.2-2.6-0.3-3.9c-2.4-4-0.9-7.9,0.4-11.6c1.5-4.4,5.4-3.3,8.6-2.4
		c10.8,3.1,21.8,4.7,32.9,5.7c11.8,1.1,23.6,1.4,35.4-0.1c2.6-0.3,5.3-1,7.9,0.4c0.9,0,1.8,0,2.8,0.1c0.7,0.9,1,1.8,0.9,2.9
		c-2.6,3.8-1.8,9.3-6.3,12.1c-8.2-0.5-16.1,1.9-24.3,2c-3.9,0.1-7.9,0.9-11.9,0.7c2.9,1.8,8-1.6,9.2,4c-1.4,1.2-3.2,1.4-4.9,1.5
		c-2,0.1-4.2-0.6-5.9,0.1c-9,3.9-14.6-0.5-20.6-6.7c-5.7-6-12.9-9.8-21.4-4.2C1457.3,402.3,1456.4,401.9,1455.7,401.2z"/>
	<path class="st6" d="M1548.6,413.5c29.8-15.8,61.9-24.7,94.8-31.1c5.6-1.1,11.6-1.5,17,1.6c2.5,3.7,6.4,7.2,1.5,11.9l-0.3,0.2
		c-8.8-3.2-17.6-2.4-26.4-0.6c-13.8,2.9-27.7,5.3-41.4,8.5c-8.3,1-16,4.3-23.7,7.1c-6.9,2.5-13.9,5-20.8,7.6c-1.5,1-2.6,2.4-3.2,4.1
		c-1.5,3.5-3.6,6.6-7.9,4.6c-3.8-1.8-4.5-5.1-2.5-8.9C1538.7,413.7,1543.6,413.5,1548.6,413.5z"/>
	<path class="st8" d="M1431.4,157.6c2.8-1.6,3.4-5.9,7.8-6.3c-2.5,10.5,1.1,20.6,0.2,30.8c-0.2,2.1,0.8,4.5-1.1,6.3
		c-4.7-3.9-8.5-3.6-9.8,2.1c-3.1,13.7-13.2,17.9-25.8,20.8c2.4-15.9,8.5-29.5,19.1-41.2C1425.4,166.3,1429.8,163,1431.4,157.6z"/>
	<path class="st2" d="M1483.9,441.8c-3.2-2.4-7.3-2.5-10.8-4.1c-2.3-1-4.6-2-6.9-3c-4.4-4-8.5-8.4-11.3-13.7
		c-1.7-3.2-3.1-6.5-0.8-10c0.5-0.5,0.9-1.1,1.4-1.6c5.3-7.3,10.2-8.2,17.5-3.3c6.1,4.1,10.3,9.8,14,16c4,6.6,2.5,13.3-0.2,19.9
		C1485.8,442.5,1484.9,442.6,1483.9,441.8z"/>
	<path class="st6" d="M1540.6,389.3c-13.2,3.7-26.7,2.5-40,2c-13-0.6-25.9-2.4-38.3-6.5c-4.5-1.5-5.5-0.2-5.6,3.9
		c-0.1,2.9-0.8,5.8-1.3,8.6c-6-0.1-7.6-4-7.7-9s2.5-8,7.5-8.5c9.2-1,18.2,1.6,27.1,3.1c12.2,2,23.9-0.6,35.8-1.4
		c6.2-0.4,11.9,0.9,17.7,2.1C1538.3,384.2,1540.4,386.2,1540.6,389.3z"/>
	<path class="st6" d="M1462.6,113.3c0.2-1.1,1.5-2.8-0.9-2.9c-5.3,0-10.4-0.5-15.4,2.8c-18.6,12.6-25.7,31.8-31,52.2
		c-0.4,1.5-0.2,3.1-1.4,4.3c-6.4-3.7-6.9-9-3.3-14.7c7.2-11.3,14.5-22.6,19.5-35.2c3.5-3.4,6.9-6.8,11.9-8.2c1.2,0.1,2.9,0.1,2.9-1
		c0.2-3.3-3.4-0.4-4.4-2.7c4.5-4.6,10.2-2.9,15.5-2.6c10,0.6,20,1.5,30,2.4c2.9,0.2,5-1,7.1-3c8.3-7.9,10.1-8,19.5-2.2
		c1.9,1.2,3.3,2.9,3,4.9c-0.3,2.4-2.9,1.5-4.5,1.5c-13,0.1-26,0-39.1,0.1c-1.9,0-4.1-0.6-5.6,1.4c-0.9,1.3-1.8,2.6-2.7,3.9
		C1463.1,114.3,1462.8,113.8,1462.6,113.3z"/>
	<path class="st9" d="M1259,432.2c0.9,0,1.7,0.1,2.6,0.1c1.4,1,3.2,1.5,0.8,3.7c-12,11.1-18.8,25.5-23.8,40.8
		c-0.8,4.5-0.8,8.9,0,13.4c-0.3,1.7,3.1,3.6,0.2,5.1c-1.9,1-3.1-1-4.4-2.3c-8.3-8.4-6.8-18.2-4.2-28.2
		C1234.1,449,1246.2,440.2,1259,432.2z"/>
	<path class="st10" d="M1327.5,494.2c-3.1,4.7-8.4,3.2-11.2,1.6c-3.8-2.2-3.7-7.7-3-12c0.6-3.5,2.6-6.5,5-9.3
		c4.1-4.5,8.9-8.1,13.8-11.6c11.6-8.3,9.1-6.5,21-0.1c-13.2,2.8-20.9,10.8-25.6,22.1C1326.6,488,1326.7,491.1,1327.5,494.2z"/>
	<path class="st11" d="M1256.1,491.5c0,1.1,0.5,2.6,0,3.1c-1.1,1.2-1.9-0.4-2.4-1.1c-3.2-5-3.9-10.7-2.2-16.1
		c5-15.9,11.9-30.9,24.6-42.4c1.8-1.6,3.8-3.5,6-4.1c3.5-0.9,8.7-3.1,10.4-0.1c1.8,2.9-3.8,4.3-6,6.4
		c-14.2,13.4-26.2,28.1-30.4,47.8C1255.3,487.1,1255.3,489.3,1256.1,491.5z"/>
	<path class="st8" d="M1384.3,319.1c-13.7-18-4.8-40.7,5.6-53.3c1.3-1.6,2.2-1.4,3.8-0.5c2,1.2,2.9,2.3,2.4,4.8
		c-1.6,8.6-4.1,16.9-7.1,25.1C1386.4,302.5,1383.9,310,1384.3,319.1z"/>
	<path class="st12" d="M1369,471.3c-9.8,6-18.3,11.5-22.8,21.6c-1.4,3.2-6.5,1.4-9.9,1.1c-3.1-0.2-1.8-3.1-1.9-4.9
		c-0.3-10.5,12.4-23.5,22.9-23.4C1361.6,465.9,1364.5,469,1369,471.3z"/>
	<path class="st13" d="M1487.1,441.8c-0.5-1.5-1.1-2.8-0.8-4.5c2.4-12.2-6.5-27.7-18.3-32.3c-5.6-2.2-8.3,3-12.5,4.4
		c-2-2.8,1.1-5.4,0.2-8.1c11.6-6.8,17.5-5.7,28.4,6.7c3.7,4.2,6.7,6.4,12.2,3.5c2.7-1.4,6.1-1.1,9.2-0.5c2.2,1.2,1.9,2.4-0.1,3.6
		c-1.9,0.7-3.9,0.7-5.8,0.9c-3.8,0.4-5.5,2.4-4.9,6.2c-2.6,3-2.9,6-0.9,9.6c1.7,3.1,1,6.4-0.6,9.5c-1,1.6-2.4,2.3-4.3,2.1
		C1488.2,442.7,1487.6,442.3,1487.1,441.8z"/>
	<path class="st8" d="M1320.2,463.1c-3.9,4.1-7,7-9.7,10.2c-4.4,5.1-5.4,11-4.5,17.6c0.3,2,2.1,5.7-2.5,4.8
		c-3.3-0.6-8.2,3.1-9.6-3.6c-2-9.5,1.3-17.5,6.2-25.3c0.5-0.7,1.6-1.9,1.7-1.8C1308,468.9,1313.3,463.2,1320.2,463.1z"/>
	<path class="st2" d="M1602.3,348.5c1.3-1.4,1.4-3.1,1.4-4.9c4-3.7,8.8,0.8,12.9-1.3c6.3-0.6,12.1-2.9,17.6-6
		c0.7-0.2,1.3-0.1,1.9,0.4c-0.4,4.9,1,9.9-3.7,14.3c-6.7,6.3-19.2,8.5-27.1,3.4C1607.2,351,1606.9,348.7,1602.3,348.5z"/>
	<path class="st14" d="M1384.7,480.1c-2.7,4.7-7.6,7.4-9.2,12.5c-0.6,1.8-2.5,1.5-4.1,1.5c-5.8,0-11.6,0-18.2,0
		c3.8-9.5,11.1-15.4,19.2-19.3C1376.2,472.9,1380.3,478.3,1384.7,480.1z"/>
	<path class="st2" d="M1269.4,426.8c-1.5,0.2-3.1,0.4-4.6,0.7c-3.6,0.8-4.2-0.6-3.3-3.9c1.6-6.5,2.9-13,4-19.5
		c0.6-4,2.3-5.8,6.5-5.6c3.7,0.1,7.5-0.6,11.2-1c-2.4,1.9-3.8,4.5-4.3,7.2c-1.2,7.1-4.7,13.6-5.1,20.9
		C1272.3,425.9,1270.6,425.3,1269.4,426.8z"/>
	<path class="st15" d="M1400.7,238.4c-1-5.2,0.7-7.9,6.4-8.1c2.8-0.1,5.4-2.1,8.3-2.5c2.1-0.3,5.7-3.6,6.4,1
		c0.5,3.4,4.2,7.9-2.5,10.5c-4,1.6-7.2,4.7-11.9,5.3C1402.2,245.2,1398.7,245.1,1400.7,238.4z"/>
	<path class="st16" d="M1423.2,495.7c-14.5,2.9-27.1-3.6-40.3-1.9c2.9-9.1,6.4-10.5,14.6-7.9c7.2,2.4,15.3,2.2,21.7,7.2
		C1420.2,493.9,1421.3,494.5,1423.2,495.7z"/>
	<path class="st17" d="M1454.1,411c-0.4,8,4.8,13.3,9.3,18.9c1.2,1.5,3.4,2.3,2.8,4.8c-9.2-3.4-18.3-6.7-27.5-10.1
		c-0.8-0.3-1.6-0.6-3.1-1.2C1441.7,418.4,1447.7,414.4,1454.1,411z"/>
	<path class="st18" d="M1666,150.9c-12-11.9-27.2-19.4-40.7-29.3C1643.3,125.2,1656.5,135.5,1666,150.9z"/>
	<path class="st19" d="M1331.2,452c-8.2,1.6-15.8,3.1-23.8,4.6C1318.1,441,1314.8,441.6,1331.2,452z"/>
	<path class="st20" d="M1238.5,490.3c-1.9-4.5-1.9-9,0-13.4C1238.6,481.3,1238.6,485.8,1238.5,490.3z"/>
	<path class="st21" d="M1412.5,260.2c-1.7,2.3-4.9,0.2-6.7,2.2c-1.3-0.5-2.6-1-4-1.5c-0.4-0.2-0.6-0.5-0.5-0.8
		c0.1-0.3,0.2-0.5,0.3-0.5C1405.3,260.4,1408.9,260.8,1412.5,260.2z"/>
	<path class="st22" d="M1543.2,391.5c0-0.7,0.1-1.4,0.1-2.1c1.7-0.1,3.3-0.2,5-0.4c2.8,0.3,2.7,1.3,0.8,2.9
		C1547.1,391.9,1545,393.5,1543.2,391.5z"/>
	<path class="st23" d="M1436.9,231.6c1.7,1,3.3,2,3.5,4.5c-2.9,0.9-3.9-1.2-5.2-2.8C1435.8,232.7,1436.3,232.1,1436.9,231.6z"/>
	<path class="st24" d="M1327.5,494.2c-1.8-3.1-1.8-6.2,0-9.3C1327.5,488,1327.5,491.1,1327.5,494.2z"/>
	<path class="st25" d="M1513.5,281.1c1.4-0.7,2.8-1.4,4.2-2c0.5,0.4,1,0.9,1.6,1.3c-1.6,1.5-3.8,1.7-5.8,2.2c-0.4-0.3-0.6-0.6-0.4-1
		S1513.4,281.1,1513.5,281.1z"/>
	<path class="st26" d="M1401.7,259.6c0.1,0.4,0.1,0.9,0.2,1.3c-1.3-0.9-4.2-0.1-3.6-2.5C1398.5,257.5,1400.8,258.2,1401.7,259.6z"/>
	<path class="st27" d="M1256.1,491.5c-1.7-2.2-1.7-4.4,0-6.6C1256,487.1,1256,489.3,1256.1,491.5z"/>
	<path class="st0" d="M1514.8,970.7c-25.4,0-50.7,0-76.1,0c-63.3-0.1-126.6-0.4-189.9-0.3c-6,0-6.7-1.4-5.8-7
		c3.2-19.5,4.3-39.2,5.8-58.8c2.9-37.8,6-75.5,8.6-113.3c3.6-53.3,1.3-106.6-1.3-159.9c-0.6-12.8-1.9-25.5-3.3-38.2
		c-0.6-5.2,0.3-7.7,6.4-7.6c22.4,0.3,44.9,0,67.3-0.1c44.9-0.2,89.8,0,134.7-0.5c106.6-1.1,213.3-0.7,319.9-1c5.6,0,7.4,0.9,7.4,7.1
		c-0.2,124.5-0.2,249,0,373.6c0,5.7-1.5,7-7,6.9c-45.1-0.2-90.3-0.1-135.4-0.1c-43.8,0-87.5,0-131.3,0
		C1514.8,971.3,1514.8,971,1514.8,970.7z"/>
	<path class="st0" d="M1055.7,585.8c-4.2,5.7-7.7,10.6-11.5,15.2c-18.9,22.9-20.3,48.2-11.3,75.3c9.9,29.9,29.1,49.7,59,60.5
		c24.9,9,50.1,15,76.6,16c3.6,0.1,7.1,0.9,10.7,1.3c4.2,0.5,7.7-0.6,8.7-5.3c0.9-4.5-1.2-7-5.4-8.6c-21.3-7.9-34.9-24.3-46.9-42.4
		c-10.9-16.4-13.2-34.8-12.8-54c0.1-5.8,1.4-11,4.2-16c7.5-13.6,16.2-26.3,26.9-37.6c2.5-2.7,5-4.5,9.2-4.5
		c22.9,0.2,45.8,0.1,68.7,0.1c2.9,0,5.3-0.7,5.8,4c4.4,47.8,7.6,95.7,7.6,143.6c0.1,43.5-2.7,86.9-5.5,130.3
		c-1.8,28.4-2.3,56.9-2.1,85.4c0,5.6-0.4,11.2-1.1,16.8c-0.4,3.3-1.5,4.5-4.9,4.5c-80.2-0.2-160.3-0.4-240.4-0.4
		c-5.2,0-6.2-1.5-6.2-6.4c0.2-64-0.5-127.9,0.3-191.8c0.7-59.7-0.5-119.3-0.3-179c0-5.6,1.4-7.1,7-7c19.1,0.4,38.2,0.1,57.2,0.1
		C1050.8,585.8,1052.7,585.8,1055.7,585.8z"/>
	<path class="st0" d="M1137.2,585.8c-6.1,7.7-11,14.8-16.2,21.6c-14,18.1-15.6,38.3-12.3,59.9c3.9,25.5,16.9,45.8,35.1,63.2
		c1.9,1.8,3.9,3.6,5.9,5.5c0.3,0.2,0.2,0.8,0.4,1.7c-27.1-3.6-52.6-11.3-75.9-25.3c-17.4-10.4-24.4-28.5-30.8-46.6
		c-10.7-30-0.7-55.1,18.5-78.1c1.1-1.3,2.2-2,4-2C1089.1,585.8,1112.5,585.8,1137.2,585.8z"/>
	<path class="st0" d="M104.3,108.1c31.9-0.6,63.7-1.3,95.5-1.8c81.9-1.4,163.8-2.7,245.6-4.1c33-0.6,66-1.3,98.9-1.8
		c75.6-1.2,151.2-2.4,226.8-3.6c30.3-0.5,60.6-1.1,90.8-1.9c5.8-0.2,7,1.7,7,7.2c0.5,60.8,1.3,121.5,2.1,182.3
		c0.8,56.5,1.8,113,2.7,169.5c0.9,55.8,1.8,111.6,2.7,167.5c0.8,49.3,1.8,98.6,2.7,148c1,57.6,2.1,115.2,3.2,172.8
		c0.3,16.9,0.5,16.7-16.8,16.9c-57.9,0.8-115.8,1.7-173.6,2.6c-9.8,1-10.5,0.8-10.2-8.5c0.5-12.7-0.5-25.4-0.5-38.2
		c0-28.9-2.5-57.7-13.8-84.9c-8.2-19.7-22.2-35.1-35.8-50.8c-5.1-5.9-5.6-7.2-1-13.1c4.6-5.8,9.2-11.6,11-19c0.7-2.8,3-4.2,5.6-3.9
		c11,1.4,21.8-1.7,32.7-1.9c6.6,15.5,16.2,29.6,20.8,46.2c1.8-4-0.2-7.7-1.2-11.5c-0.8-3.1-3.9-7-1-9.4c3.4-2.9,6.3,1.5,9.3,3.1
		c2.3,1.3,4.5,3,6.9,4.1c2.6,1.2,5.4,3,8.2,0.9c2.8-2.1,1.9-5.3,1.3-8.1c-2-8-4.4-15.9-8.2-23.3c-1.5-3-3.5-5.8-3.6-9.3
		c4.4-5.4,10-8.7,16.7-10.2c9.4,6.3,12.9,16.3,16.4,26.2c1.4,4,1.9,8.3,3.6,12.3c0.6,1.4,1.2,3.4,3.2,2.8c1.9-0.6,1.3-2.7,0.9-4.1
		c-3.3-10.5-6.5-21-13.5-29.8c-2.9-3.7-6.4-6.9-8.4-11.3c-0.2-3.4,1.9-6,3.6-8.6c11.2-17.2,6.9-34.8,1.4-52.4
		c-2.4-7.6-6.4-14.4-11.1-20.7c-8-10.9-16.1-21.6-23.3-33c-0.5-0.8-0.9-1.6-1.6-2.1c-11-8.6-15.6-20.7-19.4-33.5
		c-4-13.4-13.3-23.8-23.7-32.9c-10.2-8.9-18.2-19.8-28-29c-11.4-10.7-23.7-20-37.7-26.9c-14.4-7.2-27.9-16.3-44.2-19.6
		c-33-6.6-66.2-10.2-99.5-2.4c-28.6,6.7-57.5,13.3-83.5,27.1c-43,22.9-72,57.7-84.8,105.3c-5,18.4-10.1,36.7-10.7,56
		c-0.2,5.4-3.3,10.2-5.4,15.1c-7.8,18-14.4,36.2-13.3,56.4c0.4,7.2,1.8,13.8,6.9,19.2c3.3,3.5,3.9,7.2,2.3,11.7
		c-3.6,10-5.8,20.6-5.6,31c0.3,14.8,2.7,29.8,17.2,38.8c2.9,1.8,4.9,4.1,4.4,7.7c-2.9,19.7-4.7,39.6-10.4,58.8
		c-0.7,2.3-0.5,6.3-5.1,5.5c-1.4-1.2-2.2-2.8-3-4.4c-9.9-20.4-20.6-40.4-31.5-60.2c-11.8-21.5-18.2-44.8-24.5-68.2
		c-4.9-18.4-12.7-36-16.6-54.7c-6.8-32.8-10.4-66-15.8-99c-2.7-16.4-4.8-32.8-9.7-48.8c-2.6-8.4-3.7-17-4.5-25.8
		c-2-21.6-7.6-42.8-8.5-64.6c-0.7-16.8-1.8-33.6-4.2-50.2c-0.6-4.2-1-8.5-2.3-12.6c-4.4-13.2-5-26.8-4.6-40.5
		c1-31.9-2.1-63.5-4.8-95.3c-1.9-22.9-5.1-45.4-9.8-67.8c-2.5-12-0.9-24.2-2.7-36.2c-0.9-6.2-1.7-12.4-3.7-18.4
		c-1.5-4.5-2.7-9-3.4-13.7c-1-6.2-1.4-12.5-5.8-17.6C103.5,111.8,103.1,109.8,104.3,108.1z"/>
	<path class="st2" d="M104.3,108.1c0,0.2,0,0.5,0.1,0.7c11.8,23.8,15.4,49.3,16,75.5c0.3,14.4,4.6,28.2,7.1,42.3
		c2.8,15.9,3,32.1,5,48c4.5,35.2,4.4,70.6,4,106c-0.1,8.6,4,16.5,5.5,24.8c2.9,15.4,4.4,31,5.1,46.6c1,22.2,4.6,44,7.6,65.9
		c5.9,42.3,16.9,83.6,22.1,126c2.9,24,5.4,48.1,12.4,71.3c8.9,29.3,18,58.6,27.3,87.8c4.3,13.5,12.2,25.4,18.6,37.9
		c8.6,16.7,17.2,33.5,25.7,50.3c0.5,0.6,0.9,1.2,1,2c0.3,1.8,0,3.6-0.6,5.3c-7.7,21.6-9,44.5-14,66.6c-0.5,2.1-0.3,4.5-2.8,5.7
		c-9.1,1.6-18.4,2.1-27.4,2.1c-33.4-0.2-66.8,1.4-100.2,1.6c-2.2,0-4.5,0-6.7-0.1c-7.4-0.4-9.1-1.9-9.2-9.4
		c-0.3-13.2,0-26.5-0.1-39.7c-0.3-32.7-1-65.5-1.7-98.2c-0.4-20.8,0.2-41.7-1.1-62.5c-1.8-26.5,0.1-52.9-1.4-79.3
		c-1.3-22.2,0-44.4-1.2-66.5c-1.6-28.9,0-57.9-1.4-86.7c-1.3-26-0.2-52-1.2-78c-1.5-40.8-1.4-81.6-3-122.3
		c-1-25.3,0.5-50.6-1.9-75.9c-0.7-7.5-0.2-15.2,1.6-22.7c0-8.1,0.6-16.3-0.9-24.3c-2.2-7.9-1-16-1.2-23.9
		c-0.7-21.5-2.3-42.9-2.5-64.4c-0.1-14.7,5.8-18.5,19.8-12.9l0.2,0.3L104.3,108.1z"/>
	<path class="st4" d="M260.7,892.5c0.1-0.4,0.1-0.9,0.2-1.3c6.6-12.1,6.1-25.9,9-38.9c1.8-8.5,2.7-17.2,4-25.7c0.3-2.2-0.2-4-2.4-5
		c-13.4-6.1-16.5-18.6-18.9-31.3c-2.7-14,1.3-27.4,5-40.7c1.3-4.6,1.3-7.7-2.4-11.2c-4.7-4.4-6.3-10.5-6.8-17
		c-1.6-19.8,3.4-38.5,11.9-55.8c5.6-11.5,6.7-23.3,8.5-35.4c7-46.4,22.7-88.7,58.7-121.1c23.5-21.1,50.9-34.7,81.6-41.4
		c4.8-1.1,9.5-2.6,14-4.6c13.3-5.8,27.7-6.6,41.7-9.1c10.7-1.9,21.5-2,32.2-1.2c23.2,1.7,46.7,2.6,68.2,12.4
		c31.8,14.5,61.4,32.3,83.5,60.6c6.4,8.3,15.5,14,22.2,22.3c7.7,9.7,12.9,20.4,15.5,32.4c1.4,6.8,4.6,12.2,10.3,15.8
		c2.8,1.8,4.6,4.5,6.1,7c9,15,21.4,27.7,29.6,43.1c8.2,15.5,14,32,10.5,50c-1.7,8.6-6.6,16.1-10.6,23.8c-0.7,1.7-1.6,3.3-3.1,4.5
		c-5.3,3.2-10.6,6.4-15.9,9.5c-4.3-0.8-6.5,2-8.8,4.9c-5.9,2-12.3,1.3-18.1,4c-1.9,0.5-3.7,0.6-5.2-0.9c-10.7,1.7-21.3,4.6-32.3,2.7
		c-3.2-0.5-5.2,0.1-5.9,4.2c-1.2,7-5.8,12.5-10.4,17.7c-3.8,4.2-4.1,6.1,0.5,11.1c21.6,23.3,40.3,48.5,45.3,81.2
		c2.7,17.6,6,35.3,5.1,53.2c-0.7,13.4,1.2,26.7,0.2,40.1c-0.5,6.6,1.1,10.3,8.4,9.4c-15.8,1-31.6,1-47.4,0.9
		c5.8-4.6,5.2-10.7,4.1-16.9c-0.5-2.7-0.9-5.3,0.5-7.9c4.1-1.7,3.8,2.5,5.2,4.1c2,2.2,3.8,4.9,7.2,3.2c3-1.5,2.8-4.5,1.9-7.1
		c-10-29.3-13.8-60.3-23.5-89.7c-5.2-15.7-11-31.3-18.9-46c-4.5-8.2-11.4-14.3-18.6-20.1c-0.9-0.6-1.7-1.2-2.5-2
		c-8-8.1-6.3-18.1,3.8-23c6.8-3.3,11.1-8.2,10.6-16.3c-0.3-5.1,0.1-10.3-0.5-15.5c-0.7-6,1.3-8.1,7.1-7.6
		c18.1,1.5,36.3,0.6,54.5,0.6c9.2,0,18.2-2.4,26.6-6.6c11.3-5.6,16.1-14.5,14.4-26.8c-1.8-13.1-6-25.2-13.8-36.1
		c-9.9-13.9-19-28.3-32.9-38.8c-2.9-2.2-4.3-5.6-5.7-9c-8.3-20.2-18.1-39.5-32.5-56.2c-14.6-16.9-32.2-29.6-52.5-38.9
		c-30.8-14.1-63.4-20.8-96.8-24.4c-8.5-0.9-17.4,0.9-26.1,1.4c-5.8,0.9-11.8,0.5-17.5,2c-16.8,2.2-32.8,7.3-48.2,14.2
		c-8.6,3.8-17,8.2-25.3,12.6c-5.8,3.1-11.1,6.8-15.9,11.3c-10.8,10.2-20.7,21.1-29.7,33c-8.5,11.3-14.3,23.8-17.5,37.5
		c-1.1,4.8-2.1,9.7-3.3,14.4c-2.9,11.5-5.7,23-2.4,35c-1.5,3.7-4.4,6.7-5.5,10.6c-5,11.4-7.5,23.4-9.7,35.5
		c-1.3,6.9-3.5,13.4-6.5,19.7c-3.9,8.5-3.6,9.5,4.5,14.3c1.4,0.8,2.8,1.5,3.5,3c0.8,5.6-0.8,11.1-0.5,16.6
		c-1.7,8.6-5.7,16.4-7.2,25.1c-1.3,7.5,0.2,14.3,2.7,21c1.9,5.3,6.6,6.9,11.8,7.4c4.9,0.4,9.9-0.5,14.7,0.7c4.5,2.9,1.3,6.1,0,8.7
		c-7.7,14.6-13.1,30-17.2,45.8c-4.5,14.9-4.7,30.5-7.4,45.6c-0.9,5.2-1.3,10.7-4.7,15.2c-3.5,1.8-4.8-0.9-6-3.1
		C266.1,904,262.5,898.7,260.7,892.5z"/>
	<path class="st0" d="M650,937.2c0.4,5.1,0.7,10.2,1.3,15.3c0.7,5.4-0.2,9.5-6.7,10.1c-35.4,0.6-70.8,1.2-106.2,1.8
		c-73.3,1.3-146.6,2.6-219.8,3.9c-0.9,0-1.8-0.1-2.7-0.1c0.3-7.5,2.4-14.8,2.2-22.5c-1.1-32.2,2.1-64,10.5-95.1
		c3.8-14.3,9.2-28.1,16.4-41.1c1.3-0.8,2.1,0,2.8,1c1.7,7.3,1,14.6,0.1,22c-1.1,8.7-0.9,16.9,6,23.7c6.1,6,13.2,8.2,21.4,7.1
		c6.7-0.8,13.2-2.4,19.5-4.8c2.3-0.8,4.5-2.2,7.1-1.2c2.6,2.5,1.4,5.4,0.9,8.2c-1.4,7.3-3.5,14.4-2.9,21.9c0.5,5.5,2,10.6,5.8,14.7
		c3,3.2,6.8,4.5,11,2.5c4.2-2.1,5.5-6,4.2-10.3c-3.1-10.5-8.4-20.3-11.1-31c-0.5-1.8-2.4-2.5-3.7-3.8c-1.8-4.4,1.7-5.5,4.5-6.5
		c5.6-2.1,11.3-4,16.8-6.5c6.2-2.8,12-6,13.9-13.3c0.4-1.5,1.5-2.7,2.9-3.5c3.7-2,5.9-0.6,7.3,3c2,5,3.3,10.3,4.3,15.5
		c5.5,30.1,7.5,60.5,8.9,90.9c0.2,4.6-1.8,9.1-0.5,15.3c3.6-7.9,3.9-14.9,4.5-21.7c2.2-27.1,5.3-54,10-80.8c0.2-0.9,0.3-1.8,0.5-2.6
		c0.7-2.1,0.8-4.7,3.3-5.5c2.8-0.8,4.6,1.4,6.3,3.1c3.3,3.5,5.5,7.6,6.6,12.3c0.6,2.8,1.1,5.7,1.8,8.6c2.5,9.8,9.6,13.3,19,9.4
		c1-0.4,2.1-0.9,3-1.6c8.2-6.7,16.4-7.9,25.8-1.5c6.1,4.2,11.1,1.5,13.5-5.5c0.5-1.5,0.8-3,1.4-4.5c1.9-3.9,5.5-4.2,9.1-4.3
		c6.7-0.1,13.4,0.1,20.2-0.1c18.1-0.5,26-10.1,23.3-28c-1.2-7.8-3.5-15.2-6.5-22.5c-2.2-5.2-5.9-11-0.8-16.8
		c4.2,0.1,5.3,3.7,6.9,6.5c5.2,9.2,8.7,19.2,12,29.1c5.8,17.9,11.8,35.7,14.9,54.3c2.7,15.9,7.4,31.3,11.4,46.9
		C650.7,932.1,652.1,934.7,650,937.2z"/>
	<path class="st5" d="M89.3,233.1c0.6,25.5,1.2,51.1,1.8,76.6c0.9,44.1,1.5,88.3,2.8,132.4c0.7,23.8,0.8,47.5,1.2,71.3
		c0.9,53.3,1.8,106.7,2.7,160c0.8,46.6,1.8,93.2,2.7,139.8c0.9,51.3,1.8,102.6,2.6,153.9c0.1,3.6,0.7,5.2,4.8,5.1
		c45.9-1.1,91.9-2,137.9-3c1.9-1.5,4.1-1.8,6.3-1.9c14.1-0.2,28.2,0.4,42.3,0.3c1.8,0,3.6,0.2,5,1.6c4.2,0,8.4,0,13.5,0
		c-3.5,6.2-9,6-13.8,6.8c-3.7,0.7-7.4,1.3-11,2.6c-7.6,2.9-11.2,2-16.3-4.5c-1.3-1.6-1.5-3.3-4.4-1.6c-12.2,7.3-24.2,15.2-39.3,14.7
		c-0.4,0-0.7,0.5-1.1,0.8c-36.9,0.6-73.8,1.2-110.7,1.7c-7.1,0.1-14.3,1.1-21.4-0.2c-4.2-15.7-6.2-31.4-1.8-47.4
		c1.1-3.9-1.3-7.3-0.9-11.2c2.3-23-2.7-45.2-7.2-67.4c-1.1-5.6-0.3-11.1-0.8-16.7c1.8-10.7,1.9-21.4,1.2-32.1
		c-0.6-8.9-1.1-17.8-1.2-26.8c-0.4-22.7,2.2-45,7.2-67c1.6-7.1,1.3-14.2,0.2-21.3c-0.3-2-0.6-4-0.5-6c1-17.7-2.2-35.2-2.9-52.8
		c-0.3-9,0-17.9,2.2-26.4c4-15.4,1.4-30.6,0.1-45.9c-2.2-25.5-3.9-51-2.7-76.8c1.3-26.5,2.3-53.2-1.7-79.7
		c-3-20.1-2.5-40.5-0.8-60.9c0.8-9.5,0.1-19.2-0.3-28.8c-0.7-16.9-3.9-33.7-1-50.8c1.7-10.3,2.2-20.8,3-31.2
		C87,237.8,87.2,235.2,89.3,233.1z"/>
	<path class="st2" d="M444,831c-4.2,16.2-19,17.9-31.4,23c-2.6,1.1-6.7,0.5-6.5,5.2c1.2,1.4,1.3,3-0.4,3.8c-1.1,0.5-1.8-0.9-2.1-2
		c-0.3-1.2,0-2.8-1.8-3.1c-8.3,2.4-16.3,5.7-25,7c-18.3,2.8-34.2-9.7-31.3-29.5c1.2-8.2,0.9-16.4,1.4-24.6c0.4-1.7,0.4-3.5,0.4-4.8
		c0.3,1.3-0.5,2.5-1.8,3.5c-7.2,19.7-16,38.9-19.8,59.8c-3.2,17.7-3.5,35.6-6.2,53.3c-1.5,9.9,0,19.6,0.1,29.5
		c0,5.8-1,11.1-3.9,16.1c-5.4,0-10.7,0.1-16.1,0.1c-6.9,0.9-13.7,1.2-20.5-0.2c-0.7-6.8,1.4-13.2,2.4-19.8
		c3.5-23.4,8.8-46.6,10.8-70.2c2.3-27,8.9-52.9,19.8-77.8c1.2-2.7,3-4.3,5.9-5c2-0.5,3.9-1.1,5.9-1.1c12-0.2,23.4-2.8,34.4-7.9
		c7.3-3.4,10.2-0.9,8.5,7.1c-1.8,8.5-3.4,17.1-5.7,25.6c-1.5,5.4-1.5,10.5-0.4,15.9c2.5,11.9,7.2,14.8,19.4,14.1
		c20-1.1,37.5-9.9,55.6-17.1c1.6-0.7,3.1-1.8,4.9-2.1C442.1,829.8,443.2,830,444,831z"/>
	<path class="st28" d="M279.4,966.7c6.6,3,13.6,0.5,20.4,1.5c-0.2,0.3-0.3,0.7-0.5,1.1c-17.9,0-35.7,0-53.6,0
		c-1.4-8.2,2.1-15.7,3.3-23.5c2.8-18,6-35.9,11.6-53.2c4.2,4.3,6,10.2,9.3,15.1c1.3,2,1.7,4.6,4.3,5.6c0.8,0.8,1.2,1.8,1.3,3
		c-1.1,11.1-1.2,22.4-5.4,33c-0.4,1-0.5,2.2-0.7,3.3C268.2,962.3,269.9,964.8,279.4,966.7z"/>
	<path class="st6" d="M104.4,107.5c-2.4,0.2-4.9,0.5-7.3,0.5c-10.5,0.1-10.4,0.1-10.2,10.9c0.5,29.9,1,59.9,1.5,89.8
		c-1.9-1.2-1.4-3.1-1.5-4.8c-1.6-27.1-1.9-54.2-7.5-81c-1.2-5.8,0.1-12.5,1.4-18.5c1.2-5.5,5.8-7.3,11.3-7.5
		C99.6,96.8,103.1,100.7,104.4,107.5z"/>
	<path class="st1" d="M1636.2,336.7c-0.4,0-0.8,0.1-1.2,0.2c-7.6-4.6-12.4,0.8-17.7,4.7c-0.6,0.5-1.5,0.1-2,0.8
		c0.9,0.1,1.7,0.3,2.3,1.1c-4.6,2.6-9.2-0.2-13.8,0.1c-5.5-2.2-10.3-5.4-13.7-10.3c-1.8-2.7-3.4-5.8-0.3-8.3
		c2.9-2.3,5.7-0.5,7.6,1.8c7.6,8.9,17.1,8.3,27.1,5.6c3.9-1.1,6.5-3.6,7.7-7.6c3.6-11.7,2-23-3.4-33.7c-1.7-3.5-4.2-6.6-8.8-6
		c-4.1,0.5-6.3,2.2-6.9,7.1c-0.6,4.8-4.9,2.4-7.4,1c-12.1-6.7-21.9-15.4-26.2-29.1c2.5-2.1,4.4,0.6,6.7,0.7
		c6,6.2,13.3,10.7,20.4,15.5c2.3,2.7,4.3,4,8.2,1.5c7.5-4.8,13.7-3.3,19.5,3.5C1645.1,298,1646.1,323,1636.2,336.7z"/>
	<path class="st6" d="M1500,168.5c7.2,11.9,17,21.9,23.7,34.2c6.8,12.6,20.3,18.3,31.4,26.5c0.6,0.2,1.6,0.8,1.8,0.6
		c1-0.7,0-1.5-0.1-2.3c-0.7-3-4.2-4.4-4.3-7.7c-0.3-0.6-0.4-1.3,0.3-1.5c1.2-0.4,1.8,0.5,2.4,1.4c10.1,13.3,20.5,26.2,32.4,38
		c1.1,1.4,0.5,2.3-0.9,3c-3,0.3-4.5-2.1-6.5-3.6c-1.2-1-2.4-2-3.5-3.2c-6-6.6-11.6-13.7-21.3-15.3c-2.7-0.4-4.6-2.6-6.8-4.2l0,0
		c-6.2-4-12.6-7.6-18.4-12c-11.6-8.6-19.5-19.6-21.6-34.3c-1-7.1-7.8-11.3-10-18C1497.9,168.5,1498.8,168.3,1500,168.5z"/>
	<path class="st29" d="M1555.3,219.6c-0.9-0.2-1.8-1.4-2.7,0.1c-14.9-25.4-27.8-51.7-33.3-81c0.6-0.9,0-2.2,1.2-2.8
		C1527.4,165.7,1540.3,193.1,1555.3,219.6z"/>
	<path class="st2" d="M1580.9,255.7c1.8,1.4,3.6,2.8,5.4,4.3c3.9,0.8,6.7,3,8.2,6.8c3,5.4,8.9,8.2,12,13.5
		c-9-2.4-15.7-8.1-21.3-15.3c-2.8-1.7-4.6-4.2-5.6-7.2C1579.2,256.7,1579.2,255.6,1580.9,255.7z"/>
	<path class="st30" d="M1594.5,266.8c-2.7-2.3-5.4-4.6-8.2-6.8c1-0.5,1.3-1.4,1.3-2.4C1590.5,260.2,1596.1,260.8,1594.5,266.8z"/>
	<path class="st13" d="M1520.4,135.8c-0.4,0.9-0.8,1.9-1.2,2.8c0-2.6-2.3-4.9-0.6-7.6C1520.1,132.4,1520.7,133.9,1520.4,135.8z"/>
	<path class="st6" d="M1462.6,113.3c0.4,0.4,0.8,0.8,1.1,1.2c-5.3,12.1-8.9,24.6-11,37.7c-3.7,22.6,6.8,38.2,23.1,51.6
		c1.7,1.4,3.8,2.4,5.7,3.6c0.9,0.6,2,1,4.1,2c-2.9-9.3-8-17-8.5-25.9c-0.8-1.4,0.1-1.7,1.2-1.9c1.9,1,0.8,3.1,1.5,4.4
		c3.7,11.9,8.5,23.1,19.2,30.6c1.4,0.9,3.7,2,2.8,4c-1,2.2-3.4,1.5-5.4,1c-16.8-4.7-31-12.8-39.6-28.7c-0.7-0.5-1.1-1.1-1.3-1.9
		c-0.3,1.1-0.5,2.1,0,3.1c1.9,6.9,3.4,13.9,6.8,20.2c3.6,10.1,10.7,18,16.5,26.7c0.8,1.9,0.4,3.4-1.6,4.1c-5.7-0.2-8.3-5.2-12.3-7.9
		c-12.8-18.1-17.8-38.7-19.7-60.2c-0.9-9.9,2.5-19.4,4.3-29c0.5-2.9,0.3-4.6-0.9-7.3c-2-4.3,0.3-8.8,2.7-12.5
		C1454.7,123,1458.8,118.2,1462.6,113.3z"/>
	<path class="st1" d="M1520.2,236.9c4.1,0,8.2,0,12.3,0c12.5,2.5,21.7,9.6,28.2,20.3c0.6,1.4-0.1,1.6-1.3,1.3
		c-6.6-6.9-13.3-13.7-24.1-14.9c4.2,6.6,3.4,16.5-1.6,21.1c-3.3,3-6.7,6-10.4,8.4c-6.2,4-12.2,1.7-17.6-1.8
		c-4.7-3.1-5.6-7.8-4.9-13.5c0.7-5.5,3.9-10.1,4.2-15.5c0.1-1.7,1.9-2.3,3.4-2.9C1512.2,238,1516.2,237.2,1520.2,236.9z"/>
	<path class="st31" d="M1526.9,326c-8.2-6.2-17.3-5.9-26.2-2.3c-18.8,7.7-37.5,7.4-56.4,1c-6.3-2.1-12.8-4.1-19.6-4.1
		c-2.7,0-6.4-0.7-6.4-3.6c0-3.9,4.1-3.1,6.9-3.3c6.7-0.6,12.9,1.2,19.1,3.4c18.3,6.5,36.4,8,55.2,1.4c10.4-3.6,20.8-3,29,6.1
		C1528.8,325.9,1528.3,326.4,1526.9,326z"/>
	<path class="st32" d="M1513.5,281.1c0,0.5,0,1,0,1.4c-3,2.7,0.7,2.9,1.6,3.4c9.8,5.6,20,7.6,30.8,3.2c2.4-1,4.7-2.6,9.2-1.8
		c-9.2,5.2-17.1,9.6-26.7,8.8c-7.7-0.6-15-2.5-21.4-7.1c-2.2-1.6-3.8-3.7-4.8-6.3c-0.4-1.1-0.6-2.1,0.3-3c1.1-1.2,2.5-1.3,3.6-0.3
		C1508.4,281.3,1510.6,282.3,1513.5,281.1z"/>
	<path class="st32" d="M1440.1,290.3c1.9-1.4,2.9-0.2,3.9,0.6c7.6,7.4,16.6,8,26.3,5.5c1.7-0.5,3.5-0.9,5.2-1.1
		c1.6-0.2,3.4-0.3,4.1,1.5c0.7,1.9-1.1,2.6-2.3,3.6c-6.6,5-17.8,4.9-26.7-0.5C1446.5,297.4,1442.7,294.5,1440.1,290.3z"/>
	<path class="st2" d="M1548.7,234.3c11.8,3.1,22.4,7.9,29.4,18.6c-1,1.7-0.5,4.1-2.3,5.5C1566,251.2,1556.6,243.6,1548.7,234.3z"/>
	<path class="st33" d="M1473.1,339.2c-8.4,6-19.2,3.5-26.2-6C1456.1,336.1,1463.6,342.4,1473.1,339.2z"/>
	<path class="st34" d="M1575.8,258.4c0.2-2.1-1.9-5.1,2.3-5.5c0.9,0.9,1.9,1.9,2.8,2.8c-0.4,3.9,3.4,5.9,4.3,9.3
		c-2.3,2.3-3.7-2.1-5.8-0.9C1578.2,262.2,1577,260.3,1575.8,258.4z"/>
	<path class="st35" d="M1526.9,326c0.5-0.5,1-1,1.6-1.5c4,2.7,6,6.9,8.7,10.7C1532.6,333.4,1530,329.4,1526.9,326z"/>
	<path class="st36" d="M1559.5,258.6c0.4-0.4,0.8-0.9,1.3-1.3c2,1.5,3,3.5,4.4,6.9C1561.6,262.6,1560.5,260.6,1559.5,258.6z"/>
	<path class="st37" d="M1477.2,245.1c0.5-1.4,1.1-2.8,1.6-4.1c1.7,1,2.8,2.3,1.5,4.2C1479.4,246.5,1478.2,246.6,1477.2,245.1z"/>
	<path class="st2" d="M1593.1,402.8c18.3-5,37-8.6,55.8-10.9c4.8-0.6,9.4,0.1,12.7,4.3c-10.3,1.7-20.8,1.9-30.7,6.1
		c-25.5,10.9-51.3,21.1-76.9,31.6c-0.6,0.2-1,0.9-1.4,1.3c-8.9-0.1-15.9-4.7-22.9-9.4c0.5-3.8,2.5-6.3,6.3-7.4
		c0.3,0.1,0.6,0.2,0.9,0.4c-1.2,3.2-1.7,6.6,2.2,7.8c4.2,1.3,5.3-2,5.6-5.4c0.2-2.3,1.1-3.9,3.7-3.8c8.1,0.2,15.4-1.4,22.5-6.1
		C1577.3,406.8,1585.6,405.5,1593.1,402.8z"/>
	<path class="st38" d="M1300.8,362.4c-0.4,4-2.6,2.3-4.7,1.6c-5.3-1.9-9.4-0.2-11,5.2c-1.9,6.7-5,10-12.2,6.7
		c-1.3-0.6-3.1-0.1-4.6-0.2c4.9-2.4,9.6-4.5,12.5-9.9c2.3-4.2,7.5-4,12-3.8C1295.5,362,1298.2,362.2,1300.8,362.4z"/>
	<path class="st39" d="M1353.9,337.8c1.7,2.2,3.3,4.5,5,6.6c1,1.2,1.1,2.5-0.3,3.4c-1.2,0.7-2-0.3-2.4-1.4c-1.1-2.8-2-5.6-3-8.3
		C1353.4,338,1353.7,337.9,1353.9,337.8z"/>
	<path class="st31" d="M1543.2,391.5c2-0.6,4.1-2,5.8,0.4c-0.9,5.9-1.8,11.8-2.7,17.7c-0.3,1.8-1.4,4.2,2.2,3.9
		c-3.8,2.1-8.7,1.6-11.8,5.2l-0.4-0.2l-0.3,0.3c-2.2-5.3-1.2-10.1,2-14.6C1539.5,399.9,1539.8,395.1,1543.2,391.5z"/>
	<path class="st13" d="M1478.1,181.9c-0.3,0.5-0.7,1.1-1,1.6c-2.4-5.8-0.9-11.9-0.9-18.1c5.2,17.1,16.6,30,27.8,43.1
		c5.7,6.7,12.5,12.1,19.4,17.5c1.5,1.1,4,2.3,2.4,4.7c-1.6,2.3-3.6,0.5-5.3-0.4c-15.9-8.5-25.5-22.8-34.9-37.3
		c-1.7-2.6-3-5.5-4.5-8.2c-1.3-1-1.8-2.3-1.8-3.9c-0.2-1-1.4-1.6-0.8-2.8c-0.9,1.2,0.4,1.8,0.6,2.7
		C1479.1,181.4,1478.8,181.8,1478.1,181.9z"/>
	<path class="st40" d="M1500,168.5c-0.4,0.5-0.9,1-1.3,1.5c-4.6-7-8.4-14.2-9.4-22.7c-0.3-1.3-1.3-2.9,1.2-3
		C1492,153,1496.3,160.6,1500,168.5z"/>
	<path class="st41" d="M1487.8,140.5c-1.7-3.4-1.2-7.1-1.4-10.7c-0.3-1.3-1.2-3,1.4-3c0.4,3.6,0.9,7.2,1.3,10.7
		C1488.3,138.3,1489,139.8,1487.8,140.5z"/>
	<path class="st42" d="M1487.8,126.8c-0.5,1-0.9,2-1.4,3c-1.4-2.7-1.8-5.3,0.4-7.9C1488.8,123.4,1487.8,125.2,1487.8,126.8z"/>
	<path class="st43" d="M1556.9,227.4c1.4,1.8,2.8,3.6,4.2,5.5c-0.4,0.4-0.7,0.8-1.1,1.1c-1.6-1.6-3.3-3.2-4.9-4.8
		C1555.7,228.6,1556.3,228,1556.9,227.4z"/>
	<path class="st30" d="M1487.8,140.5c0.4-1,0.9-2,1.3-3c0.4,2.3,0.8,4.5,1.2,6.8c-0.4,1-0.8,2-1.2,3
		C1487.7,145.2,1487.8,142.8,1487.8,140.5z"/>
	<path class="st44" d="M1455.5,194.1c-1.2-1.1-1.6-2.5-0.9-4.4c1.5,0.6,1.9,1.9,2.2,3.2C1456.4,193.3,1456,193.7,1455.5,194.1z"/>
	<path class="st45" d="M1479.6,180.6c0.5,1.4,0.9,2.8,1.4,4.1c-0.4,0.4-0.8,0.9-1.2,1.3c-0.6-1.4-1.1-2.8-1.7-4.1
		c0.1-0.4,0.3-0.9,0.4-1.4C1478.9,180,1479.3,180,1479.6,180.6z"/>
	<path class="st2" d="M1493.4,421.4c-2.1-4.2-1.9-7.1,3.9-7.3c2.7,0,5.3-0.4,8-0.6c2.4,0.6,5.7-1,6.8,2.7c6.3,9.5,3.9,24.8-4.4,32.8
		c-4,3.8-5.7-1.5-8.7-0.9c-1.1-0.2-2-0.5-2.6-1.5c-1.3-3.3-0.7-6.5-0.1-9.8c0.6-3,1.1-6.2-1.5-8.7
		C1492.8,426.3,1494.8,423.5,1493.4,421.4z"/>
	<path class="st8" d="M1538.1,404.3c-0.7,4.9-1.3,9.7-2,14.6c-2.2,2.3-4.3,4.6-6.5,6.9c-5.1,0.4-6.9-3.6-9.1-7
		c-2.4-3.6-6.8-4.9-9.5-8.2c-4.1-2.8-10,0.5-14.2-4.5c7.1-0.6,13.7-1.4,20.3-1.8c6-0.3,12.1-0.2,17.7-2.9
		C1538.6,399.6,1537.5,402.9,1538.1,404.3z"/>
	<path class="st2" d="M1538,454c0.8-4.2,2.2-8.4,2.1-12.5c-0.2-5.2,1.9-5.5,6-4.4c13.1,3.5,18.8,19.6,10.6,30.4
		c-1.1,1.4-2.2,1.4-3.5,1.1c-3-0.7-6-1.5-8.9-2.3C1547.9,459.2,1541.4,457.4,1538,454z"/>
	<path class="st2" d="M1517.6,450.8c2.7-6.4,6-12.5,5.4-19.8c-0.2-2.5,1.1-3.1,3.3-2.6c4.7,1,7.7,3.5,7.9,8.6
		c0.2,7.4-2.2,14.1-5.2,20.6c-1.2,2.6-3.1,2.9-5.5,1.6c-2-1-4-2-6-2.9C1516,454.5,1516.6,452.6,1517.6,450.8z"/>
	<path class="st46" d="M1538,454c4.6,1.7,10.7,2,9,9.7c-0.3,1.6-1.4,2.1-2.7,2.6C1534.6,464,1534.6,464,1538,454z"/>
	<path class="st47" d="M1497.2,446.8c0.6,0.5,1.3,1,1.9,1.4c-2.4,1.5-15.4-0.7-16.7-3c-0.4-0.7,0.9-2.2,1.5-3.4c1.1,0,2.2,0,3.2,0
		c0.3-0.1,0.6-0.1,0.9,0C1491,443.6,1494.8,444,1497.2,446.8z"/>
	<path class="st29" d="M1511,410.6c4.6,1.1,8.2,3.4,9.5,8.2c-3.1,0.3-4.5-5.3-8.3-2.5c-2.3-0.9-4.6-1.8-6.8-2.7
		c1.6-0.8,0.5-1.8,0.2-2.7C1507.3,410.8,1509.2,410.7,1511,410.6z"/>
	<path class="st48" d="M1517.6,450.8c0,1.8,0,3.7-0.1,5.5c-1.4,0.5-2.9,0.3-3.1-1.2C1514.2,453,1516.3,452.1,1517.6,450.8z"/>
	<path class="st49" d="M1593.1,402.8c-3.5,3.1-8,3.8-12.1,5.4c-4.8,1.9-9.5,3.7-13.6,7c-5.7,4.7-12.4,4.5-19.1,2.1
		C1563.3,412.8,1577.3,404.9,1593.1,402.8z"/>
	<path class="st50" d="M1497.2,446.8c-3.6-0.7-6.9-2-9.2-5.1c1.5,0,3,0.1,4-1.4c4.4-3.5,0.7-9.5,4-13.4c3.6,1.9,2.7,5.2,2.5,8.1
		C1498.2,439,1497.7,442.9,1497.2,446.8z"/>
	<path class="st1" d="M1496,426.9c-0.7,4.7,1.9,10.3-4,13.4c0.5-2.9,2.2-5.7,0.3-8.9c-2-3.5-3.7-7.2,1.1-10.1
		C1495.6,422.7,1494,425.6,1496,426.9z"/>
	<path class="st6" d="M1617.5,343.5c-1.3-0.1-2.6-0.2-4-0.3c11.9-11.5,15.4-12.6,21.5-6.4C1630.3,342.1,1624,343.2,1617.5,343.5z"/>
	<path class="st1" d="M1605,895.7c0,7.3-2,14.6,0.1,22c0.7,2.5,0.1,6.9-4.6,5.8c-15.6-3.9-31.7-2.6-47.4-6.9
		c-33.3-9-66.9-16.6-100.5-24.3c-37.3-8.5-74.5-17.8-110.6-30.7c-1.7-0.6-3.7-1.8-5.1-1.3c-7.8,2.7-6.7-2.2-6.4-6.9
		c1.4-21.3-2.1-42.5-3-63.7c-1.7-35.6-0.8-71.2-1.2-106.9c-0.2-16.3-3-32.6-2.9-49c0-10.7,3.2-12.4,13.4-10.1
		c11.7,2.6,23.9,4.4,35.9,4.7c49.6,1.1,97.9,11.2,146.7,18.4c26.2,3.9,51.2,13,77.5,16.3c5.9,0.7,9.9,6.4,9.4,12.8
		c-3.1,36.9,0.6,74-2.6,110.8c-3.1,35.2-0.1,70.3,1.3,105.5C1605,893.4,1605,894.5,1605,895.7z"/>
	<path class="st1" d="M1124.3,820c7.1,0.9,14.3,1.5,21.3,2.8c5.8,1.1,11.2,3.6,14.6,8.7c3.4,5.1,1.6,9.2-4.5,10
		c-4.4,0.6-8.9,1.2-13.4,1.3c-7.9,0.2-15.4,2.2-22.9,4.7c-18,6-35.9,7.6-53.2-2.5c-2.3-1.3-4.2-0.7-6.4-0.2
		c-7.5,1.5-15,3.1-22.7,1.5c-11.7-2.4-15-11.1-8.1-21c3.8-5.4,9.6-7.1,15.4-8.7c4.2-1.2,6.7-2.1,3.6-7.5c-3.9-6.5-0.7-11.7,7.8-13.1
		c6.4-1.1,12.9-1,19.4-1.4c2.3-0.1,3.7-0.3,5.2-2.8c3.1-5,8.8-5,13.9-4.7c3.4,0.2,5.8-0.7,8.5-2.7c5.5-3.9,11.6-6.8,18.2-8.2
		c5-1,9.2,0.2,11.5,4.7c2,3.9,4.5,4.2,8.2,3.4c9.3-1.9,18.3-0.6,27,2.8c5.4,2.1,9.5,5.4,9,11.8c-0.5,6.3-4.9,8.6-10.5,9.5
		c-13.7,2.1-26.4,8.6-40.6,8.8c-1.9,1-4.1,1.1-6.1,1.8c-0.8,0.3,0.5,1.4,0.1,0.6c-0.2-0.3,0-0.4,0.4-0.6
		C1121.7,818.7,1123.1,818.8,1124.3,820z"/>
	<path class="st51" d="M1124.3,820c-1.9,0-3.8,0-6.3,0c2.6-2.9,5.1-3,7.8-2.4C1125.4,818.4,1124,818.7,1124.3,820z"/>
	<path class="st52" d="M1076.8,692.4c0-6.4,3.4-10.4,8.8-10.3c5,0.1,13.1,7.2,13.2,11.7c0.1,4.7-5.1,9.4-10.2,9.4
		C1081.3,703.2,1076.9,699.1,1076.8,692.4z"/>
	<path class="st53" d="M1071.9,639.8c0.8,6.4-3.3,8.4-7.9,9c-3.2,0.4-5.6-2.1-5.5-5.4c0.2-4.7,2.5-8.4,7.5-8.7
		C1069.2,634.4,1073.1,635,1071.9,639.8z"/>
	<path class="st54" d="M1110.7,604.1c-0.8,3.9-3,5.9-6.5,5.7c-3.8-0.2-6.2-2.6-6.4-6.3c-0.2-3,1.7-5.5,4.9-4.7
		C1105.8,599.5,1109.7,600,1110.7,604.1z"/>
	<path class="st55" d="M1121.3,725.8c-1.7-2.8-4.9-2-7.1-3.4c-2.1-1.3-3.4-3-3-5.5c0.3-1.8,1.3-3.3,3.5-3.4c2.6-0.2,4.3,1,5.3,3.2
		C1121.3,719.3,1121.9,722.1,1121.3,725.8z"/>
	<path class="st56" d="M1079,663.3c3.1,0.5,6,1.3,5.9,5.1c-0.1,3-1.6,5.3-4.9,5.1c-3.8-0.2-6.2-2.5-6.2-6.5
		C1073.8,663.6,1076.7,663.6,1079,663.3z"/>
	<path class="st57" d="M1080.3,614.2c2,0,4.4-0.1,3.9,1.9c-0.8,3-1.3,7.1-5.8,7.2c-2.6,0.1-4.1-1.9-3.9-4.5
		C1074.7,615.1,1077.7,614.6,1080.3,614.2z"/>
	<path class="st58" d="M1071.1,599.3c-3.2-0.4-5.1-2.2-5.1-5.7c0-2.6,1.5-4.6,3.8-4.6c4.1,0,3.9,4.4,5.2,6.9
		C1076,597.8,1073.6,599.2,1071.1,599.3z"/>
	<path class="st1" d="M681,525.2c-13-3.8-13.6-4.8-14.8-18.5c-5.3-61.3-8.2-122.8-9.8-184.3c-0.5-19.4-3.5-38.8-5-58.2
		c-1-12.8,3.8-18.8,16.2-22.6c14.8-4.6,29.6-8.6,45.3-9.1c13.5-0.4,25.9-7.1,39.4-8.1c3.1-0.2,6.3-0.6,9.4-0.3
		c6,0.4,9.5,3.6,11.1,9.8c8.4,32.8,13.5,66.2,20.2,99.3c5.6,27.8,6.2,56,8,84.2c1.3,20.1,4.1,40.1,3.4,60.3c-0.1,1.9,0.7,3.4,1.6,5
		c6.2,11.6,4.5,18.5-6.5,26.2c-0.7,0.5-1.3,0.5-1.9-0.1c-5.4-5.6-7.1-5.8-12.7-0.9c-3.1,2.7-6.5,4.8-10.6,5.5
		c-13.8,2.5-27.4,6.5-41.4,8c-6.3,0.6-12.4,0.3-18.5-2c-10.3-3.8-24.5-0.8-30.3,6C682.9,526,681.9,526,681,525.2z"/>
	<path class="st2" d="M681,525.2c0.9-0.1,1.8-0.2,2.6-0.3c1.6-1.5,3.7-1.6,5.7-1.6c25.9,0,51.4-3.2,77-6.7c9-1.2,17.6-3.3,26.1-6.4
		c1.9-0.7,3.6-1.9,5.8-1.4c0.4,0,0.8,0,1.2,0.1c-2,10.4-8,16-18.8,18c-22.7,4.1-45.2,9-67.7,13.9c-9,2-17.4-1-25.7-2.9
		C681.4,536.5,680.1,530.8,681,525.2z"/>
	<path class="st1" d="M681.2,742.1c1.7-0.1,3.4-0.2,5.1-0.2c3.8-0.5,5.3,2.8,7.5,4.7c5.8,5.3,11.6,10.7,18.9,15.4
		c-0.9-9.3-7.1-15.7-7.8-24c0.9-7.1,1.9-7.6,8.2-3.9c5.4,10.1,10.4,20.3,12.7,31.6c0.7,3.7,2.5,7.7-1,10.7c-3.6,3-7.2,0.4-10.6-1.2
		c-5.2-2.5-10-5.8-16.3-10.4c2,6.3,3.6,10.8,4.9,15.3c0.7,2.3,0.9,4.8,1.1,7.2c0.2,2-0.6,3.6-2.9,3.7c-1.9,0.1-2.5-1.2-2.9-2.9
		c-2.7-13.8-9.3-26-16.3-38C680.3,747.3,679.2,744.9,681.2,742.1z"/>
	<path class="st47" d="M665.1,798.3c-4.2-0.2-9.4-1.2-13.8-4.7c-2.3-1.8-3.7-4.4-2.1-7.1c1.5-2.7,4.1-2.8,7.1-1.8
		c4.2,1.4,8.2,3.8,12.9,2.3c2-0.7,4.2-1.5,4.4-3.7c0.2-2.8-2.7-2.6-4.4-3.1c-3.6-1.2-7.4-1.8-11-3c-8.8-2.9-12.6-8.9-10.6-16
		c2.1-7.4,10.6-12.8,18.5-10.9c3.8,0.9,7.4,3.1,11,4.9c1.2,0.6,2.5,1.5,1.7,3.1c-1,1.9-2.5,1.4-4,0.7c-2.2-1-4.4-2.2-6.8-3
		c-4.1-1.4-7.6-0.4-10.1,3.2c-2.4,3.4-2.1,6.4,2.3,7.8c3.4,1.1,6.9,1.8,10.4,2.7c10.1,2.6,15.1,8,14.1,15
		C683.5,792.4,675.8,798.2,665.1,798.3z"/>
	<path class="st47" d="M809.1,700.9c1.8,0.2,3.5,0.4,3.8,2.4c0.4,2.2-0.7,3.3-2.7,3.9c-4.3,1.3-8.5,2.6-12.8,3.9
		c-3.1,1-5.8,2.4-7.2,5.6c-1.2,2.7-2.3,5.8-0.5,8.3c1.8,2.5,4.5,0.1,6.7-0.3c1.5-0.3,3.1-0.6,4.6-1c2.3-0.6,4.2,0,5,2.2
		c1,2.8-1.1,4-3.3,4.8c-3.8,1.5-9.6,0.3-11.2,4.5c-1.2,3.4,0.7,7.9,1.2,11.9c0.2,1.3,0.2,2.7,0.3,4c0.4,3.5,0.4,7.5-4,7.8
		c-3.8,0.3-5-3.4-5.4-6.6c-1.2-9.1-2.4-18.2-3.1-27.3c-0.8-10.4,4-17.2,13.8-20.2C799.3,703.3,804.3,702.2,809.1,700.9z"/>
	<path class="st59" d="M627.1,308.4c-1,4-3.7,3.1-6.3,2c-12.7-5.4-26.1-8.9-39.1-13.4c-7.1-2.5-13.3-6.4-18.9-11.1
		c-3.6-3-5.7-7.1-0.6-11.1c2-1.1,3.3,0.5,4.8,1.3c10.2,6.1,21.1,10.4,31.9,15.1c8.3,3.7,16.2,8.3,24.3,12.5
		C625,304.7,627.4,305.5,627.1,308.4z"/>
	<path class="st47" d="M627.1,308.4c-8.5-7-19-10.3-28.4-15.6c-11.7-7-23.7-13.5-35.2-20.8c3.4-3,7.4-2,10.7-0.7
		c23.1,9.3,44.3,22,64.4,36.6c1.8,1.3,3.1,3.1,1.8,5.1c-1.3,2-3.4,1.4-5.3,0.2C632.4,311.6,629.8,310,627.1,308.4z"/>
	<path class="st31" d="M765.3,724.6c2-0.4,4.6-0.9,7.2-1.5c1.2-0.2,2.3-0.2,2.8,1.1c0.5,1.5-0.2,2.5-1.7,3.1c-1,0.4-2.1,0.9-3.1,1.2
		c-8.1,2.2-8.1,2.2-4.3,9.8c1.4,2.8,2.8,5.6,4.1,8.4c1.1,2.3,0.8,4.6-1.4,5.9c-2.5,1.5-4.5-0.2-5.5-2.2c-4.7-8.6-8.7-17.6-10.2-27.4
		c-0.6-4.1,1.4-7.3,5.3-9.2c5.5-2.6,11.4-3.8,17.3-5c1.8-0.3,3.3-0.1,3.6,1.8c0.4,2-1,2.7-2.7,3c-4.8,0.9-9.5,2.2-13.8,4.8
		c-1.7,1-2.8,2.2-2.5,4.2C760.8,725.7,763,724.3,765.3,724.6z"/>
	<path class="st60" d="M616.2,335.4c0.7,1.7,2.2,0.8,3.4,1.1c2.1,0.4,4.4,2.1,4.3,3.5c-0.2,2.1-2.8,2.3-4.9,2
		c-14.4-0.5-28.6-2.2-43-3.3c-3.4-0.2-6.7-0.6-9.5-2.5c-1.5-1-2.5-2.5-2.2-4.5c0.3-2.1,1.9-3,3.7-3.3c3.5-0.5,7-0.8,10.5,0.3
		c4,0.5,8.1,0.9,12.1,1.4c5.7,1.1,11.4,1.2,17.2,1.9C611.1,332.2,614.1,332.8,616.2,335.4z"/>
	<path class="st2" d="M624.6,366.6c3,2.6,3.7,4.2-0.8,6.7c-6.2,3.4-12.9,4.4-19.6,6c-6.9,1.6-13.5,4.3-20.2,6.6c-3,1-5.9,1.1-8-1.4
		c-1.8-2.1-4.2-4.4-1.2-7.4c14.3-2.2,28.1-6.6,42.1-10.1C619.4,366.4,621.9,364.8,624.6,366.6z"/>
	<path class="st61" d="M729.1,724.5c-1.2-3.1-0.3-4.6,3.1-4.5c11.7,10.9,18.1,24.7,22.6,39.7c0.5,1.7,0.7,3.5,0.7,5.3
		c0,1.3-0.4,2.7-1.8,3.3c-1.6,0.7-2.6-0.3-3.5-1.2c-2.8-2.8-3.7-6.5-4.5-10.3C743,744.5,738.3,733.4,729.1,724.5z"/>
	<path class="st62" d="M624.6,366.6c-13.9,4-27.8,8-42,11c-2.7,0.6-5.3,1.1-7.7-0.5c-0.5-3.4,2.1-4.1,4.4-4.8
		c13.4-4,27-7.2,40.8-9.9C622.5,362,627.2,360.6,624.6,366.6z"/>
	<path class="st2" d="M578.6,328.6c-3.1,0.2-6.3,0.1-9.3,0.6c-1.8,0.3-4.4,0.5-4.2,3.3c0.1,2.2,2.1,2.6,3.8,3.1
		c6.8,1.7,13.7,1.8,20.6,2.2c10,0.5,19.9,1.5,29.6,4.3c-12.3,5.5-24.5-0.9-36.8-0.6c-4.2,0.1-8.4-0.9-12.6-1.7
		c-4.2-0.8-7.2-3.3-6.5-7.9c0.7-4.6,4.5-5,8.3-4.7C573.9,327.4,576.5,326.7,578.6,328.6z"/>
	<path class="st62" d="M563.5,272c4,0.3,7.5,1.7,10.8,4.3c5.6,4.4,11.8,7.7,18.1,11c2.3,1.2,5.5,2.2,6.2,5.5
		c-12.3-5.7-25.5-9.5-36.5-18C562.5,273.8,562.1,272.5,563.5,272z"/>
	<path class="st63" d="M616.2,335.4c-8.5-1.8-17-3.6-25.5-5.5c6.4-0.9,12.8,0.9,19.2,0C613.2,329.5,615.9,331.6,616.2,335.4z"/>
	<path class="st1" d="M444,831c-1-0.1-1.9-0.2-2.9-0.3c-3.5-1.8-7.4-3.1-10.4-5.9c-0.7-15.8-2.5-31.5-6.3-47c-4-16.2-6-33-14.4-48
		c-2.1-3.7-4-7.5-7.4-10.2c-3-2.3-6.5-1.2-9.9-1.4c-3.8-0.2-4.9,1-2.8,4.7c15.7,28.4,23.7,59.1,27.5,91.1c-0.2,4.8,0.6,9.7-0.7,14.5
		c-1.4,2.1-2.2,4.8-5.3,5.1c-0.9-0.8-1.3-1.7-1.5-2.8c-0.6-17.2-5.6-33.5-10.2-49.9c-3.8-13.8-8.4-27.4-14-40.7
		c-3.1-7.3-8.2-13.4-12.4-19.9c-2.3-3.6-5-3.3-7.1,0.6c-1.9,3.6-2.1,7-0.3,10.9c3.1,6.7,6.8,13.2,10.6,19.5
		c10.4,17.3,14,36.7,16.6,56.4c0,2.4,0.1,4.8,0.9,7.2c1.1,5.9,0.5,11.7-2,17.2c-1.6,2,1.5,3.5,0.7,5.5c-5,1.8-10.4,2-15.6,2.6
		c-4.1,0.4-5.9-2.9-5.5-6.8c0.7-6.1,0.5-11.7-5.5-15.3c-1.6-1-2.2-3-1.9-4.8c1.2-7,0.4-14.3,3.3-21.1c1.6-3.8,3-8-1.6-10.7
		c-4.2-2.5-7.8-0.2-10.7,3c-4.9,5.4-10.4,8.4-17.9,5.8c-2.2-0.8-4.4-0.4-6.6,0.3c-1.3,0.4-2.7,1.3-3.9,0.8c-9.3-3.8-15.7,1-21.7,7.2
		c-5.8,0.6-11.5,1-17.3,0.1c-6.3-1-10.2-4.3-12.5-10.5c-5.9-16,0.5-30.1,5.8-44.5c0.4-0.6,0.9-0.9,1.6-0.9c2.1,0.5,3.5,1.8,4.1,3.9
		c0.1,2-0.2,4.1-0.2,6.1c-0.2,4.9-1.2,9.8-1.7,14.7c-0.4,3.7,0,7.1,0.6,10.7c1,6,4.4,8.1,10.3,8c10.8-0.3,21.3-2.8,32.1-3.7
		c9.8-0.8,18.8-3.8,27.8-7.5c5-2,7.2-4.9,6.7-10.1c0.1-2.3,0-4.5-1.7-6.4c-1.6-3.1-4.2-5.7-3.7-9.6c0-0.5,0.2-1,0-1.3
		c-5.8-10.5-2.3-20.7,0.5-31.1c2.6-9.5,9.3-15.6,19.4-15.3c29.6,0.8,59.2,0.5,88.8,2.5c10.4,0.7,20.6-1,30.9-1.3
		c31-0.8,61.9,1.1,92.9,1.7c27.1,0.5,54.2,2.7,81.4,2.4c8.2-0.1,16.1-1.5,23.6-4.7c7.8-3.2,10.9-8.2,9.5-16.4
		c-1.5-9.1-3.7-18-8.7-26c-5.9-9.3-11.2-18.9-17-28.3c-2.2-3.6-4.5-7.1-8.1-11.4c0.2,0.5-0.4,2,0.2,1.4c0.3-0.3,0.5-0.2,0.6,0.3
		c2.7,8-1,15.4-2.1,23c-0.4,2.8-4.1,1.9-6.5,1.8c-13.7-0.4-27.3-2.3-41-1.7c-5.6,0.2-11.2,0.1-16.8,1c-3.5,0.5-7.2,0.9-10.3-1.5
		c-1.8-2.7-1.9-5.5-0.2-8.3c5.3-3.1,11.1-1.1,16.7-1.7c13.8-0.3,27.3,1.4,40.8,4c5.2,1,7.1-0.5,7.9-5.8c1.5-9-1-17-4.6-24.8
		c-12.1-26.3-27.2-50.4-50.3-69c-17-13.7-36.6-21.7-56.9-28.4c-17.7-5.9-36.3-8.5-54.6-11.8c-10.1-1.9-20.6-0.4-30.9-0.1
		c-4.5-2,3.4-6.4-1.7-8.6c-2.9-1.3-5.5-3.5-4.9-7.4c17.9-3.1,35.5-2.1,53.3,1.5c28.2,5.6,55.9,12.6,81.4,26.2
		c28.8,15.4,49.8,38.4,64.7,67.2c4.1,7.9,8.4,15.8,10.9,24.5c1.3,4.4,4.7,7,7.8,9.9c17.8,17,33.1,35.9,41.3,59.5
		c2.6,7.6,4.4,15.5,3,23.8c-1.6,9.1-6.6,15.5-15,19.3c-13.1,6-27,7.7-41.3,7.4c-14.1-0.4-28.2-0.8-42.3-1.3c-3.6-0.1-4.6,0.9-4,4.7
		c1,5.9,1.2,12,1,18c-0.3,8.3-4.3,13.6-11.7,16.3c-4.7,1.7-8.3,3-7.7,9.3c0.4,4.5-0.2,8.9,4.4,11.7c-0.2,0.2-0.3,0.4-0.5,0.4
		c-12.4,3.1-14,5.5-12.3,18.7c0.8,6.5,2.2,12.8,4.5,18.1c-0.7-3.2-0.8-7.2,0-11.1c0.3-1.5,0.3-4.8,3.6-2.4c1.2,2.3,1.2,4.8,1.1,7.2
		c-0.2,7.8,0.4,15.5,2,23.2c0.9,4.1,1.6,8.6-3.2,11.2c-13.9,2.5-28.2,1.8-42.1,4.1c-6.7,1.1-13.4,0.6-20,1.8
		c-2.6,0.4-5.2,0.9-7.4-1.3c0.8-1.3,0.5-1.8-0.9-2.8c-3.5-2.5-5.6-6-5.1-10.5c2.6-4.8-0.7-9.2-1-13.9c-0.2-2.8-0.1-5.6-1.1-8.2
		c-0.3-1.5-0.5-3-0.5-4.6c0-11.8,0-23.6,0-35.4c-0.1-1.5,0.1-3.1,0.5-4.6c1-2.7,1-5.5,1.1-8.3c0.1-1,0.2-2,0.5-3
		c0.8-2.2,0.8-4.4,0.9-6.7c0.1-0.9,0.2-1.9,0.5-2.8c0.5-2,1.2-3.9,0.2-5.9c-4.4-1.5-4.9,1.7-5.3,4.5c-0.9,7.2-2.8,14.3-3.4,21.6
		c-0.9,2.6-0.6,5.4-0.9,8.1c-0.7,3.5-1.2,7-1.7,10.5c-1,2.7-0.8,5.6-0.9,8.4c-1.3,6-1.5,11.9-0.1,17.9c0.1,2.3-0.1,4.7,0.7,7
		c0.3,6.1,4.6,10.2,7.5,15c-2.2,3.8,1.5,8-1,11.8c-7.1,1.5-11.5-2.3-14.9-7.7c-5.9-9.2-7.5-19.5-7.9-30.1c-0.2-4.2,0.3-8.5-0.4-13.5
		c-3,3.4-4.2,7-5.1,10.6c-2,8.3-3.6,16.6-4.8,25c-0.6,4.3,0.5,7.5,3.9,9.9c7.7,5.5,11.6,13.4,14,22.2c2.7,9.7,6.8,10.9,14.9,4.8
		c3.6-2.7,7.1-5.5,11.8-6.2c2.7-0.2,5.5-0.3,8.2,0.3c2.3,0.6,4.4,1.9,6.6,3c7,3.6,7,3.6,10.5-3.4c1.5-1,3.2-1.1,4.9-0.5
		c1.1,0.5,1.5,1.4,1.7,2.5c-0.9,13.8-7.8,17.3-19.4,10c-8-5.1-10.7-5-18.1,0.6c-1.8,1.3-3.5,2.8-5.5,3.8
		c-10.2,5.4-20.1,0.9-22.5-10.3c-1.3-6.3-1.8-13-6.1-18.2c-1.9-2.4-3.6-5.1-7-6.2c-5.9,28.4-8.5,57.1-11.5,85.8
		c-0.8,7.3-1.7,14.7-2.9,22c-0.4,2.4-0.7,6.1-4.5,5.3c-3.7-0.7-1.9-4-1.8-6.2c1.8-39.4-2.6-78.1-11-116.5
		C449.7,831.1,448.3,828.5,444,831z"/>
	<path class="st5" d="M455.9,481.8c2.1,2.6,4,4.8,7.4,6.6c5.3,2.8-0.7,5.5-1.9,8.2c-0.4,0.6-0.9,1.1-1.5,1.5
		c-12.9,2.9-26.2,3.1-38.9,7.1c-21.5,6.8-42.4,15.2-59.6,30c-14.5,12.4-27.6,26.4-36.4,43.6c-7.7,15-9.2,31.7-13,47.8
		c-0.5,2.3,0.4,3.4,2.8,3.2c17.9-1.8,34.4,5,51.5,8.6c7.6,1.6,15,2.3,22.6,0.5c3.9-0.9,8-1.2,12-1.2c22.1-1.4,44.3-3.2,66.4-4.1
		c33.8,1,67.6-2.2,101.5-1.4c7.4,0.2,14.6,2,22.1,1.7c1.6,0,3.1,0.5,4,2c0,2.5,0,5.1,0,7.6c-0.3,0.3-0.5,0.6-0.8,0.9
		c-1.8,1.1-3.8,1.3-5.8,1.2c-20.2-0.7-40.3,0.7-60.5,1.5c-30.9,1.3-61.8,1.7-92.6,4.8c-18,1.8-36.2,2.3-54.2,4.2
		c-12.6,1.3-24.5-4.7-36.6-7.7c-6.1-1.5-12.2-3-18.4-3.7c-12-1.5-19.7,3.1-24.4,14.3c-4.6,10.8-6.4,22.4-8.9,33.8
		c-1.4,6.5-2.6,13.3-7.9,18.2c-4.3,0.5-3.7-3-3.9-5.3c-0.6-6.1,1-11.9,3.3-17.5c1.3-3.2,2-6.2,1.1-9.7c-1-4.2,0-8.5,1.6-12.4
		c1.8-4.3,2.9-8.8,3.7-13.4c0.6-3.7,2.6-6.7,5.4-9c2.8-4.4,4.7-8.9,2.9-14.4c-1.1-3.2,0.1-6.8,1.4-9.8c9.7-23.6,18.5-47.6,33.4-68.7
		c5.9-8.3,13.1-15.5,20.8-21.9c25-21,53.1-36.2,84.6-45.2C444.2,482.1,450,481.3,455.9,481.8z"/>
	<path class="st5" d="M411.6,833.6c1.8-0.9,1-4.3,3.9-4.1c1.2,0.8,2.4,1.2,3.6,0.1c4.4-0.9,7.6-5.2,12.7-4.2
		c4.5-0.7,7.2,1.7,9.4,5.2c-22.1,11.7-45,20.8-70.7,20.3c-5.5-0.1-9.4-6.5-11.6-15.5c-2.6-10.9,2.2-20.7,3.7-30.9
		c0.9-6.1,4.1-11.9,3-18.4c-0.9,0-1.6-0.1-2.1,0.1c-14.2,7.7-29.7,9.3-45.4,10.7c-1.6,0.2-3,0.1-4,2.5c-12.3,29.2-19.1,59.5-21.1,91
		c-0.8,12.3-5.7,24.1-6,36.3c-0.3,11.8-5.1,22.6-5.7,34.3c-0.1,1.9-1.3,3.7-2,5.6c-7.5,3.1-11.7,0.6-12.2-7.2
		c-0.1-2.4-0.7-5.2,0.2-7.3c4.7-11.8,4.5-24.4,6.9-36.5c3.4,1.2,4.8,0.5,5.5-3.5c2.4-14.5,3.4-29.1,3.7-43.8
		c0.1-6,1.5-11.8,2.6-17.6c3.5-16,9.1-31.3,16.7-45.9c1-2,3.4-3.7,2.2-6.5c5.4-10,9-11.8,19.2-9c2.2,0.6,3.9,0.3,5.7-0.6
		c2.8-1.4,5.7-1.7,8.4-0.4c6.5,3,10.8-0.1,14.7-4.7c4.3-5.1,10-6.9,14.1-4.3c4.7,2.9,4.9,7.3,1.5,14.2c-3.4,6.8-1.1,14.5-2.9,21.6
		c-0.1,0.5,0.7,1.7,1.4,2c7.6,3.2,7.1,9.6,6,15.9c-0.6,3.6,0.4,6.6,4,5.7c5.1-1.2,10.3-1.2,15.4-2.1
		C398.6,833.2,405,832.7,411.6,833.6z"/>
	<path class="st1" d="M650,937.2c-11.4-39.7-16.7-81.1-32.1-119.7c-3.4-8.5-6.5-17.1-12.4-24.3c-1.3-0.5-1.9-1.5-2-2.9
		c1.2-3.3-1.9-6.3-0.5-9.6c11,6.9,18.7,16.6,23.8,28.4c11.5,26.3,20.7,53.3,26.1,81.6c3,15.5,7,31,12.5,45.9c1.6,4.5,2.3,8.7-2.6,11
		c-5.2,2.4-8.3-1.1-10.5-5.5C651.5,940.4,650.8,938.8,650,937.2z"/>
	<path class="st1" d="M438.5,483.6c-16.7,7.1-33.7,13.6-49.3,22.7c-27.8,16.2-52.9,35.5-66.9,65.7c-7.8,16.8-16.6,33.2-21.8,51.2
		c-0.7,2.5-1.5,5.2-0.3,7.2c3.9,6.5-0.8,9.6-4.6,13.2c-4-36.2,6.7-67.9,28.7-96.4c28.2-36.5,66.8-54.7,110.9-63.5
		C436.2,483.5,437.4,483.6,438.5,483.6z"/>
	<path class="st47" d="M290.1,652.7c1.2,4.6,0.6,8.9-2,12.8c-2.4,3.7-3,8.2-1.6,11.6c2.1,5-0.1,8.3-1.4,12.5c-2.2,6.9-5,14-1.6,21.4
		c1.2,2.7,2.3,5.3,4.5,7.3c0.6,3.5,0,6.6-2.9,9.1c-1.5,0.6-2.1-0.8-3.2-1.2c-3.4-1.2-6.7-2.5-9.3-5c-2.3-2.3-3.4-5-1.7-7.8
		c7.7-12.7,8.9-27.3,12.5-41.3C285.1,665.5,286.5,658.7,290.1,652.7z"/>
	<path class="st6" d="M603,780.6c1.1,3.2,4.8,6.2,1,9.9c-4.1-1.9-5.4-0.1-5.8,3.9c-0.3,2.7,0.4,6-2.3,8.1
		c-2.6,6.1-0.2,12.6-1.7,19.7c-6.4-11.5-8.3-23-7.3-35.1c0.6-6.7,6.5-9.4,14.8-7.5C602.1,780,602.5,780.3,603,780.6z"/>
	<path class="st17" d="M705,738c4.1,8.6,8.8,16.9,10.9,27.4c-12.1-5.9-20.2-15.5-29.5-23.5C691.9,737.5,698.7,738.7,705,738z"/>
	<path class="st47" d="M286.1,850.9c-2.4,23.5,0.2,47.4-6.6,70.6c-2.8-1-3.3-4.1-5.2-5.7c0-0.9,0-1.7,0-2.6
		c4.9-14.8,5.4-30.3,7.9-45.5C283.1,862,283.6,856.2,286.1,850.9z"/>
	<path class="st64" d="M281.9,726.2c1,0.3,2,0.6,3,0.9c3.9,0.2,4,2.8,3.2,5.5c-1.2,4-2.5,8-5.9,10.7c-0.4,0.1-0.7,0.2-1.1,0.2
		C280.2,737.7,280.6,731.9,281.9,726.2z"/>
	<path class="st2" d="M595.9,802.5c0.5-5.6,1-11.1,1.5-16.9c3.4,0.7,4.2,3.8,6.6,4.9c0.5,0.9,1,1.7,1.5,2.6
		c-2.8,5.9-0.3,11.5,2.2,16.4c4.3,8.3,5.9,17.3,7,26.3c1.7,15.2-6.7,24.7-22.9,25.8c-8,0.5-16.1,0.2-24.1,0.3
		c-2.6,0-5.5-0.5-6.9,2.7c-0.4-0.5-0.8-1-1.1-1.5c-0.4-0.8,0,0.3-0.4-0.5c-4.8-11-4.1-12.4,7.3-14c9.8-1.4,20-0.9,29.5-4.6
		c4-1.6,3.5-5.1,2.7-7.9C595.5,825.1,595.6,813.9,595.9,802.5z"/>
	<path class="st31" d="M401.9,857.9c0.4-0.7,0.8-2.1,1.2-2c2.7,0.1,1.2,2.5,1.9,3.7c0.3,0.5-1.1,2.2,0.9,1.5
		c0.3-0.1,0.2-1.2,0.3-1.8c2.8-1,4.7-0.6,5.4,2.7c2,9.9,6.4,19,10.2,28.2c3.4,8.1,1.2,14.1-4.8,16.5c-6.7,2.6-12.8-0.7-16.3-8.7
		c-3.1-7-3.4-14.3-1.9-21.7C399.9,870.2,401.9,864.2,401.9,857.9z"/>
	<path class="st31" d="M358.2,931.1c0.4-5.1,0.5-9.4,1.1-13.6c0.6-4.2,1.2-8.3-0.9-12.4c-1.3-2.6-0.7-5.5,2.5-6.6
		c4.5-1.5,2.7,2.6,3.7,4.3c2.8,5.1,5.4,10.2,8.5,15.2c3,4.8,5.9,9.5,7.6,14.8c2.7,8.3,1.5,13.1-3.9,14.8c-6.6,2.2-16.1-2.8-17.7-9.5
		C358.4,935.6,358.4,932.9,358.2,931.1z"/>
	<path class="st65" d="M345.7,809.5c0.5-1.4,1-2.8,1.9-5.4c0.8,3.2,1,5-0.5,6.8C346.6,810.4,346.2,809.9,345.7,809.5z"/>
	<path class="st66" d="M1530.5,249.2c0.1,7.4-5.5,11.9-12.5,10.2c-3.5-0.9-9.2-0.1-9.6-5.2c-0.4-5.6,5.1-6.4,9.2-8
		c2.7-1.1,5.7-1.1,8.6-1C1529.3,245.2,1531.6,245.9,1530.5,249.2z"/>
	<path class="st67" d="M1479.6,180.6c-0.4,0-0.7,0-1.1-0.1c-1.5-1.1-1.5-2.5-0.8-4.8C1478.5,177.7,1479.1,179.2,1479.6,180.6z"/>
	<path class="st0" d="M1601.2,912.7c-6.4-3.4-12.7-2.5-18.9-2.6c-13.5-0.2-26.6-4-39.3-8.2c-16.1-5.2-32.9-6.9-49-11.5
		c-29.9-8.6-60.3-15.3-90.6-22.4c-20.2-4.8-40.9-7.9-61.4-11.7c-3.2-0.6-5.6-1-5.1-5.7c2.9-31.7,2.1-63.6,2.8-95.4
		c0.4-19.9,2.1-39.8,2-59.8c-0.1-19.9-1.7-39.8-2.7-59.7c-0.1-2.2-0.2-4.4-0.3-6.3c54.7,9.4,109.6,15,163.9,24.1
		c30.5,5.1,60.2,13.9,90.9,18c3.4,0.5,4.2,1.2,2.5,4.5c-4,7.6-4.3,15.9-3.9,24.3c1.7,33.6,1.3,67.2,0.5,100.8
		c-0.7,27,2.4,53.7,6.6,80.3C1600.6,891.4,1601.5,901.4,1601.2,912.7z"/>
	<path class="st0" d="M1148.2,833.8c-16.2-1.4-30.1,7-45.2,9.1c-11.9,1.6-23.7,1.4-34.2-6c-2.7-1.9-5.7-1.6-8.9-0.8
		c-6.9,1.9-13.9,3.6-21.2,2c-5.1-1.1-6.1-3.6-3.2-8c1.7-2.5,4-4,7-4.9c3.6-1.1,7.3-2.2,10.7-3.9c5.7-2.9,7.1-6.8,3.4-12
		c-3.9-5.6-1.5-7.4,3.8-8.2c8.8-1.3,17.4-4.2,26.4-0.8c2,0.8,4.5,0.5,5.8-0.7c4.7-4.4,11.8-4,16.5-8.7c2.4-2.4,6.3-3.3,9.5-4.8
		c3.7-1.8,6.5-1.9,8.5,2.7c2.3,5.4,7.2,6.1,12.5,5.5c8.8-1,17.4-0.9,26.2,3.6c-17.5,4.5-33.7,11.5-51.3,12.5
		c-5.4,0.3-10.5,2.1-15.4,4.3c-2.8,1.3-5.2,3.3-4.4,6.7c0.7,3,3.3,3.8,6.2,4.1c12.9,1.5,25.8,2.9,38.7,4.5
		C1142.5,830.6,1145.7,830.8,1148.2,833.8z"/>
	<path class="st46" d="M1092.6,692.3c-0.4,3.2-1.7,4.9-4.9,4.5c-3.2-0.4-5.5-1.5-5.3-5.3c0.1-2.7,0.6-5.1,4-4.7
		C1089.7,687.3,1091.8,689.5,1092.6,692.3z"/>
	<path class="st68" d="M1068.8,640c-0.3,3.2-2,4.7-4.7,5c-1.8,0.2-2.2-1.3-1.9-2.7c0.4-2.3,1.4-4.3,4.2-4.1
		C1067.8,638.2,1069.3,638.2,1068.8,640z"/>
	<path class="st69" d="M1103.8,605c-1.1-0.3-2-0.9-2-2.2c0-1.2,1-1.4,1.8-1.3c1,0.2,2.1,0.6,1.9,2
		C1105.4,604.6,1104.7,605,1103.8,605z"/>
	<path class="st70" d="M1078.8,669.7c-0.5-0.8-1.3-1.4-1.4-2.1c-0.1-1.1,1-1.3,1.8-0.9c0.6,0.4,0.9,1.3,1.4,2
		C1080,669,1079.5,669.3,1078.8,669.7z"/>
	<path class="st0" d="M679.5,471.4c-1.7-22.9-3.7-46.3-5.1-69.8c-1.6-28-2.3-56-4.1-83.9c-1-16.5-3.3-33-5-49.5
		c-1.2-11.4-1.1-11.1,9.4-14.5c12.6-4.1,25.3-7.4,38.7-7.8c12.9-0.4,24.9-5.6,37.4-8.1c6-1.2,9.5-0.6,10.7,6.5
		c8.9,50,23,99.1,27,149.9c1.9,24.5,2.6,49.2,4.6,73.7c0.6,7.6,0.4,15.1,0.9,22.7c0.2,2.5-1.2,3.6-3,4.6c-6.2,3.8-13.2,6-20.2,6.8
		c-27.4,3.3-54.7,7.1-82.4,7.3c-4.3,0-6.2-0.8-6.7-5.5C680.3,493.2,676.8,482.8,679.5,471.4z"/>
	<path class="st5" d="M798.2,508.8c-7.1,5.6-15.8,7.3-24.4,8.5c-28.6,4-57.2,8.1-86.1,7.9c-1.3,0-2.7-0.2-4-0.3
		c0-7.1,6-6.9,10.2-7.6c8.8-1.5,17.3-2,26.2,1.9c7.1,3.1,15.5-0.1,23.2-1.1c10.6-1.4,20.7-5.2,31.4-6.6c3.9-0.5,7.9-2.4,9.9-6.2
		c2.2-4,5.7-3.1,8.9-2.8C796.8,502.9,798.3,505.4,798.2,508.8z"/>
	<path class="st0" d="M466.6,635.4c-22.4,1.4-44.7,2.7-67.1,4.1c-1.4-1.2-1.3-2.7-1.1-4.3c2.6-21.4,6.1-42.5,17.2-61.7
		c4.8-8.3,7.3-17.8,11.1-26.6c7-16.2,16.3-30.9,27.3-44.5c1.7-2.1,3.4-4.2,6.1-5.1c0.4-0.1,0.8-0.3,1.2-0.5
		c42.5-3.6,82.3,7.1,120.3,24.8c30.4,14.2,51,38.9,66.8,67.9c4.5,8.3,8.3,16.8,11.6,25.7c3,8.1,1.1,15.9,0.5,23.9
		c-0.3,3.3-2.5,1.5-4,1.2c-14.6-2.5-29.2-4.7-44.1-4.7c-28-1.5-56-4.3-84.2-2.1c-18,1.4-36.1,1.7-54.2,1.6
		C471.5,634.9,469,634.5,466.6,635.4z"/>
	<path class="st0" d="M594.7,643.6c24.6-1.3,49.2-1.6,74,1.5c-2.3-9.5,4.3-17.9,0.9-28.7c5,4.3,7.3,8.3,9.7,12.2
		c6.6,10.7,12.9,21.5,19.3,32.2c4.8,8.1,6.7,17,7.8,26.2c1,8.4-2,13-9.8,16.4c-12.5,5.6-25.7,5.6-38.9,5.2
		c-48.2-1.6-96.3-4.4-144.5-4c-33.2,0.2-66.4,0.2-99.5-0.4c-12.8-0.2-25.4-2.5-38.2-1.3c-9.7,0.9-16.8,8.3-16.7,18.2
		c0,2.8-0.4,4.9-2.2,7.3c-4.1,5.5,0.6,10.5,1.9,15.7c0.5,2,4.4,4.7-0.8,6c-6.2,2.8-15-0.7-19-7.6c-0.3-6.7-2-13.2-1.8-21.4
		c-1.8,5.2-1.5,9.1-1.7,12.9c-0.2,3.3-0.7,6.3-4.7,7.1c-5.2,0.1-10.9,1.5-14.1-4.5c0-9.3,1.6-18.5,2.2-28.6
		c-0.9,6.2-1.5,11.6-3,16.8c-0.9,3-2.3,5.5-6,5.1c-3.3-0.3-5.3-2.1-6-5.4c-2.4-10.6-2.5-20.8,1.8-27.1c-2.2,3.5-5,10.6-5.1,18.7
		c0,2.2,0,4.5-1.8,6.3c-2.1,0.8-3.7-0.2-5.1-1.6c-4-5.4-3.8-11-1.8-17.2c4.6-14.5,14.6-25.6,23.3-37.5c3.4-4.6,8.4-4.3,13.5-3.7
		c11.8,1.2,23.6,2.3,35.5,2.5c18.5,0.4,36.5-3.4,54.9-4.7c24.3-1.8,48.6-4.1,73-6.1c21.6-1.8,43.3-3,64.9-5.9
		c9-1.2,18.2-2.7,27.4-1.6c3.8,0.4,7.5-0.7,11-2.5L594.7,643.6z"/>
	<path class="st0" d="M523.4,732.6c-23.5,3.2-45.6,11.1-67.8,18.8c-4.5,1.6-5.9,0.8-7-4c-2.2-9.8-4.6-19.5-9.5-28.9
		c6.8-1.3,13.2,0,19.5-0.1c31.8-0.2,63.7-0.5,95.5-0.4c17,0,34,0.8,51.1,1c4.3,0.1,6,1.4,5.3,6c-0.9,5.5-1.7,11-3.2,16.4
		c-0.9,3.1-2.6,4.9-5.5,6.2c-2.9,1.4-4,1-4.9-2.3c-1.8-6.6-6.8-10.1-13.4-11.7c-8.7-2.1-17.4-4.2-26.5-4c-1.7,0-2.9-1-4.2-1.9
		c-6.5-4-12.8-4.2-19.4-0.1C530.3,729.7,527.2,731.9,523.4,732.6z"/>
	<path class="st4" d="M467.1,847.7c-1.4-5.8-1.9-12-4.4-17.2c-9.2-19.5-3.8-41-9.3-60.9c-0.6-2.2,0.2-4,2.6-4.7
		c15-4,28.6-11.5,43.1-17c3.3-1.3,4.6-0.5,3.9,3.1c-0.5,2.8-1,5.7-1.3,8.6c-0.9,8.2-0.7,15.9-11.4,19.5
		c-9.9,3.3-13.1,13.5-15.9,22.9C470,816.8,468.4,832.2,467.1,847.7z"/>
	<path class="st71" d="M431.8,825.5c-4.9,1.5-8.8,6.1-14.6,4.5c-2.4-5.3,0.2-11.1-1.4-16.5c-4.8-34-12.8-66.9-31.2-96.6
		c2.9-1.4,5.5-0.1,8.1-0.2c3.6,1.3,7.4-0.4,11,1.1c8.1,8.4,12.8,18.8,15.5,29.8c5.1,20.2,10.2,40.5,12.5,61.3
		C432.4,814.3,431.8,819.9,431.8,825.5z"/>
	<path class="st72" d="M389.9,833.6c2.5-6,3.3-12.3,2.8-18.7c-1.4-2.1,0.2-4.8-1.1-6.9c-3.2-14.5-3.6-29.7-10.6-43.2
		c-5.6-10.9-11.3-21.8-17-32.7c-2.5-4.7-0.8-13.5,3.3-16.3c3.4-2.3,5.7,0.3,7.1,2.5c5.4,8.8,12.1,16.8,15.5,26.8
		c7.5,21.9,15.2,43.8,19.4,66.7c1.2,6.4,2.6,12.6,2.2,19.1c-6.6,2.8-13.8,3.1-20.8,4.1C389.9,835.1,389.8,834.2,389.9,833.6z"/>
	<path class="st0" d="M364.3,763.6c1.6,6.9-0.8,9.8-7.7,12.9c-20.4,9.1-42.2,9-63.6,11.2c-4.9,0.5-6.8-1.8-8.5-6.4
		c-3.6-10.2-0.1-19.9,0.6-29.8c0.7-4.1,3.2-3.6,6-2.4c17.7,6.3,35.2,13.1,53.4,18c6.1,1.7,11.5,1,15.5-4.7
		C362.1,759.5,363.5,760.6,364.3,763.6z"/>
	<path class="st73" d="M548.8,747.3c-3.7,9.2-4.8,19-4.6,28.7c0.5,19.6-0.4,39.4,8.1,57.8c1.6,3.5,0.1,4.4-3.2,4.3
		c-5.3-0.2-10.7-0.5-16.1-0.6c-3.2-0.1-3.8-2-4.4-4.7c-2.5-12.4-1.5-25-0.9-37.5c0.9-19.8,3.4-39.4,7.6-58.8c1.6-5,5.6-6.2,10-5.6
		c4.7,0.7,5.4,4.8,5.4,8.8C550.8,742.4,551,745.2,548.8,747.3z"/>
	<path class="st74" d="M559.8,739.6c5.1-1.2,8.8,2.6,13.1,4c2.1,0.7,1.2,2,0.9,3.7c-4.2,23.1-8.5,46.2-6.1,69.8
		c0.7,6.7,1.9,13.2,4.2,20.1c-4,0.4-7.6,0.7-11.3,1c-3.7,0.3-4.1-2.6-5-5.1c-5.7-17-3.9-34.4-3.2-51.8c0.4-11.5,2.3-22.6,5-33.6
		C558,744.8,557.5,741.8,559.8,739.6z"/>
	<path class="st75" d="M528.7,864.4c-4.5,1.2-7.8,4.2-11.3,7c-7.5,6.1-14.5,4.1-16.4-5.1c-2.1-10.2-7.2-18.1-15.4-24.3
		c-1.7-1.3-3.6-2.5-3.4-5.2c1.1-13.9,3.3-27.5,9.4-40.2c0.8-1.7,1.8-3.6,4.7-4.8c0.1,10.8-0.9,21.3,1.5,31.4
		c3.8,16.4,9,23.8,20,24.2c0.6,0.2,1.1,0.6,1.6,1c2.8,6.2,8.1,10.1,13.7,13.2C532.4,864.9,529.8,863.1,528.7,864.4z"/>
	<path class="st76" d="M436.5,823.1c1-36.7-4.1-71.8-20.9-104.5c10.1-2.3,11.8-1.8,16.2,7.8c5.2,11.4,7,23.9,9.9,36
		c3.6,15.1,4.8,30.5,6,45.8C448.6,819.9,448,820.1,436.5,823.1z"/>
	<path class="st2" d="M364.3,763.6c-0.9-0.1-1.3-3.3-2.5-0.7c-3.3,7.3-9.2,8-15.7,6.3c-12.9-3.4-25.9-6.4-37.9-12.6
		c-5.7-2.9-12.9-1.7-18-6.2c0-7.2,0.1-14.5,5.1-20.5c7,1.4,13.7,2.9,17.1,10.5c2,4.4,6.8,5,11,5c6.3-0.1,11.6,1.4,16.4,5.9
		c3.8,3.6,8.9,4.8,14.2,5c2.6,0.1,5.4-0.2,7.7,1.7C365.2,758.6,364.6,761.2,364.3,763.6z"/>
	<path class="st77" d="M522,758.1c-0.1,0.9-0.1,1.9-0.2,2.8c-1.3,2.6,0.3,5.6-1.1,8.2c-0.1,1.3-0.2,2.6-0.2,4
		c-0.8,12.5-0.8,25,0,37.5c0.1,1.4,0.1,2.7,0.2,4.1c1.5,2.5-0.2,5.5,1.1,8c0.9,3.2,1.8,6.4,2.7,9.6c0.6,2.2,0.4,4-2.5,4.2
		c-1.4,0.9-2.7,0.9-4-0.3c-5.4-3.3-7.7-8.4-8.2-14.5c-1.3-2.2,0.1-4.7-1.1-6.9c-1.6-6.3-1.6-12.7,0-19c1.3-2.5-0.4-5.5,1.1-8
		c-0.1-3.7-0.2-7.4,1.5-10.9c1.3-2.5-0.4-5.4,1.2-7.9c-0.7-8.5,3-16.6,3-25.1c0-3.8,4.2-3.3,6.7-4.4c2.1-0.9,2.7,0.6,2.3,2.5
		c-1.3,2,0.4,4.6-1.2,6.5c-0.1,1-0.1,1.9-0.2,2.8C521.9,753.5,523.5,756.1,522,758.1z"/>
	<path class="st6" d="M361.7,758c-10.6,0.8-20.5-0.3-27.6-9.5c-1.6-2-3.6-1.3-5.5-1.3c-4,0-8,0.2-11.9-1.1c-2.4-0.8-5.4-1.6-5.8-4
		c-1.5-8.7-9.6-8-15-11c-3.6-1.6-3.7,1.1-4.7,3.3c-1.7,3.8-1,8.8-5.2,11.5c-1.2-0.9-2.5-1.8-3.7-2.7c0.2-4.2,2.9-7.3,4.4-11
		c1.1-2.7,0.7-4.1-1.7-5.3c1-2.7,2-5.4,3-8.2c2.7-2,4.6-0.2,6.5,1.5c1.1,1,2.3,1.4,3.8,1.2c2.4-0.9,4.4,0.6,4.9,2.3
		c1.8,6,6.5,7.9,11.8,9.2c1.1,0.3,1.9,1.1,2.5,2.1c3,6.2,8.9,2.9,13.5,4.1c3.1,1,7.1-1.2,9.4,2.6c4.6,5.5,10.5,7.9,17.6,7.9
		C358.9,752.6,361.5,754.7,361.7,758z"/>
	<path class="st78" d="M559.8,739.6c-0.9,2.7,1.9,6.4-2.4,8c-2.9,2.1-5.8,2.7-8.6-0.3c0-1.3,0.3-2.7,0.1-4
		c-0.5-3.6,1.5-8.4-2.3-10.4c-4.2-2.2-7.8,1.3-11.2,3.7c-8.9,3.9-10.5,3.4-12-3.9c4.2-4.1,9.3-7.1,14.7-9c7.5-2.7,14-0.2,19,6.1
		C555.7,733.6,563,735.1,559.8,739.6z"/>
	<path class="st59" d="M528.7,864.4c1-0.7,2.1-1.4,3.2-2.2c-6.9-2.5-11.5-7.1-13.7-14c3.1-2.2,6.1-2.2,9.1,0.3c2.2,1.4,4.6,1.2,7,1
		c1.8-0.7,3.7-0.5,5.6-0.2c1.7,0.5,3.5,0.6,5.3,0.4c5.4-0.7,8.5,1.6,9.3,6.9c0.5,2.5,0.3,4.8-1.2,6.9c-4.9,3-10,3-15.2,1
		C534.8,864.5,531.7,864.4,528.7,864.4z"/>
	<path class="st79" d="M466.6,635.4c10.3-2.1,20.9-1.8,31.3-2.1c21-0.7,41.9-1.6,62.9-3c10.9-0.8,21.8,0.7,32.3,3.8
		c6.2,1.8,12.9-0.7,19.2,1.4c-5.9,0.2-11.8,0.4-17.6,0.6c-26.3-2.4-52.7-2-79.1-1.1C499.3,635.4,483,635.9,466.6,635.4z"/>
	<path class="st80" d="M553,863.2c0-2.1-0.1-4.3-0.1-6.4c0.2-5.5-2.4-7.4-7.8-6.5c-1.9,0.3-4,0.5-5.9-0.5c-1.7-0.1-3.3-0.2-5-0.3
		c9-2.1,18.4-2,27.6-3.4c11.3-1.7,22.8-1.4,34.3-2c-5.1,4.9-11.8,4.9-18.1,5.5c-6.6,0.7-13.2,0.9-20,1.3c0.6,4.4,2.9,8.1,1.7,12.3
		c-2,0.1-3.9,0.2-5.9,0.3C553.5,863.4,553.2,863.3,553,863.2z"/>
	<path class="st49" d="M285.9,746c1.2-4.2,2.6-8.4,3.7-12.6c1-3.8,3-4.5,6.2-2.3c-0.8,0.4-2.2,1-2.2,1.2c1.9,6.6-2.6,12-3.5,18
		c-2-1-3.9-1-5.1,1.2C284.3,749.6,285.8,747.9,285.9,746z"/>
	<path class="st13" d="M527.2,848.4c-3-0.1-6.1-0.2-9.1-0.3c-0.3-0.2-0.4-0.5-0.3-0.8c0.1-3.7-5.6-7.5,0.2-11.2
		c1.3,0.1,2.6,0.2,4,0.3c1.2,4,2.8,7.7,6.2,10.4C530.2,848.4,527.8,848,527.2,848.4z"/>
	<path class="st81" d="M389.9,833.6c7.3-0.1,14.2-4.1,21.7-2.7c0,0.9,0,1.8,0.1,2.7c-6.1,2.1-12.5,2.6-18.9,3
		C391.4,835.9,387.8,837.4,389.9,833.6z"/>
	<path class="st46" d="M553,863.2c0.2,0.2,0.5,0.3,0.8,0.2c-0.4,2.7,1,6.2-2.2,7.8c-2.9,1.5-4.8-1.6-7-2.8c-2.3-1.2-4.5-2.6-6.7-3.9
		C542.9,864.1,547.9,863.6,553,863.2z"/>
	<path class="st82" d="M520.5,810.6c-1.9-12.5-2-25,0-37.5C520.5,785.6,520.5,798.1,520.5,810.6z"/>
	<path class="st83" d="M415.8,813.5c2.6,5.3,0.1,11.1,1.4,16.5c0,0.5,0.1,1.4,0,1.4c-1.5,0.3-1-1.3-1.7-1.9
		C415.6,824.2,415.7,818.8,415.8,813.5z"/>
	<path class="st84" d="M403.7,717.7c-3.7-0.3-7.5,1.2-11-1.1C396.4,716.7,400.2,715.5,403.7,717.7z"/>
	<path class="st85" d="M520.7,769.1c0.3-2.7-1-5.7,1.1-8.2C522,763.7,522.4,766.6,520.7,769.1z"/>
	<path class="st86" d="M512.6,769c-0.4,2.6,1,5.5-1.2,7.9C511.3,774.2,510.6,771.4,512.6,769z"/>
	<path class="st87" d="M521.8,822.7c-2.1-2.4-0.8-5.3-1.1-8C522.5,817.1,522,819.9,521.8,822.7z"/>
	<path class="st88" d="M509.9,787.8c-0.4,2.7,1,5.6-1.1,8C508.6,793,507.9,790.2,509.9,787.8z"/>
	<path class="st89" d="M523.3,748.6c0.3-2.2-0.8-4.7,1.2-6.5C524.6,744.3,525.2,746.7,523.3,748.6z"/>
	<path class="st90" d="M522,758.1c0.3-2.2-0.8-4.7,1.1-6.7C523.3,753.8,523.8,756.2,522,758.1z"/>
	<path class="st91" d="M508.7,814.8c2,2,0.9,4.6,1.1,6.9C507.9,819.6,508.6,817.2,508.7,814.8z"/>
	<path class="st92" d="M391.5,807.9c2,2,1,4.6,1.1,6.9C390.9,812.8,391.3,810.3,391.5,807.9z"/>
	<path class="st2" d="M460.1,497.2c-17.8,21.1-31,44.8-40,70.8c-3.1,8.9-8.5,16.7-11.7,25.6c-5.5,14.9-5.9,30.6-8.9,45.9
		c-6.2,0.5-12.4,1.8-18.6,2.6c-9.7,1.2-19.1-2.4-28.2-5c-13.5-3.7-27-6.8-41-5.1c-4.3,0.5-2.4-2.3-2.2-3.7
		c7.2-57.9,39-96.6,92.5-118.4C420.7,502.3,440.1,498.2,460.1,497.2z"/>
	<path class="st2" d="M294.3,720.4c-2.2-0.5-4.3-1-6.5-1.5c-3.2-1.7-7.9-2.5-4.4-7.9c5.9-9.6,6.9-20.7,9.5-31.3
		c1.6-6.7,3.5-13.4,5.7-20c3.5-10.5,12.1-19.6,28-17.1c14,2.2,27.4,6.6,41,10c6.4,1.6,12.5,2.5,19.1,1c11.8-2.7,24.1-2,36.1-3.1
		c42.2-3.8,84.6-4.6,126.8-6.5c15-0.7,30-0.2,45.1-0.2c-2.3,3.6-5.9,5.1-9.8,4.8c-21.9-2-43.1,4.1-64.8,5.1
		c-19.9,0.9-39.7,3-59.6,4.8c-22.5,2.1-45.1,3.1-67.5,6.3c-22.7,3.2-45.6,2-68.3-1c-4.2-0.6-7,0.2-9.1,3.6
		c-6.9,11.2-16.5,20.5-21.3,33.3C291.8,707.6,290.9,713.8,294.3,720.4z"/>
	<path class="st33" d="M384.8,841.1c2.7-0.9,5.2-1.1,8.2-0.2C390,842.3,387.3,841.3,384.8,841.1z"/>
	<path class="st93" d="M369,830.6c1,1.2,1.5,2.3,0.8,3.9C368,833.4,368.3,832,369,830.6z"/>
	<path class="st66" d="M405.5,868.9c2.4,8.5,7,15.9,9.9,23.9c0.9,2.5,2.5,6-1.3,7.6c-3.7,1.5-5.7-1.3-7.2-4.2
		C402.2,887.4,402.8,878.3,405.5,868.9z"/>
	<path class="st94" d="M364.5,917.8c4.4,5.3,8.1,10.3,9.8,16.4c0.7,2.4,3.7,6.1-0.4,7.3c-3.8,1.1-8.3-0.5-9.4-5.2
		C363.2,930.4,363,924.4,364.5,917.8z"/>
	<path class="st1" d="M1583.9,748c-0.4,14.8,0.2,29.6-1.4,44.3c-0.9,8.5-3.1,10-11.3,7.7c-34.8-9.9-69.1-21.8-104.2-31.1
		c-3.7-1-7.2-2.5-10.7-3.9c-9.4-3.8-12.5-7.3-9.8-16.8c3.6-12.6,2.3-25.3,3.5-37.9c0.9-9.6,1.9-19.2,3-28.7c0.4-4,0.5-7.4-4.1-9.3
		c-2.3-1-3.4-3.7-2.5-6.3c1-2.9,3.5-2.5,5.7-1.8c20.3,6.2,41.4,7,62.1,10.5c19.8,3.4,39.2,9.4,59.3,11.4c5,0.5,7,3.6,8.1,8.4
		c3.5,16.4,1.8,33.1,2.2,49.6C1583.9,745.3,1583.9,746.7,1583.9,748z"/>
	<path class="st1" d="M1438.5,794.5c-1,12.5-2.1,25-3.1,37.5c-0.5,7.2-0.1,14.3,0.8,21.5c0.3,2.2,1.6,3.5-3.4,4.9
		c-28.7,8-52.7-7.3-78.6-13.4c-3.5-0.8-4.7-3.4-4.8-7c-0.6-25.3,0.9-50.5,3.6-75.6c0.5-4.8,2.1-8,7.4-7.1
		c22.5,4.1,45.4,6.1,66.4,16.7c8.4,4.2,12.8,9.1,11.2,18.5c-0.2,1.3,0,2.7,0,4C1438.2,794.5,1438.4,794.5,1438.5,794.5z"/>
	<path class="st1" d="M1540.9,813c7.5,2.8,15.1,5.6,22.5,8.6c4,1.6,5.9,4.6,5.6,9c-1.2,17.4-0.6,35-2.9,52.3
		c-1,7.7-2.9,8.6-10.5,7.5c-29.4-4.2-56.6-16.7-85.6-22.5c-5.3-1-10.5-2.1-15.8-3.4c-4.4-1.1-5.9-3.5-6.3-8.6
		c-1.6-18.6,4.2-36.4,5.2-54.7c0.7-11.8,0.8-11.6,12.6-9.6c23.2,4.1,45.4,11.8,68,18.1C1536.2,810.5,1538.5,812,1540.9,813
		c-1.7,2.4-4.3,1.9-6.7,1.6c-2.4-0.3-4.8-1-7.2,0.2c-0.9,0.4-1.9,0.7-2.8,0.9c-8.2,0.2-15.5-3.5-23.5-4.8c-0.8,4.3,0.7,8.2,0.3,12.2
		c-2.3,3.2-5.1-0.6-7.5,0.4c-0.6,0-1.2-0.2-1.8-0.5c-1.1-0.9-1.6-2-1.6-3.3c0.3-2.9,0.4-5.8,0.4-8.7c0.1-2-0.4-3.6-2.5-4.2
		c-2.5-0.7-5.5-2.6-7.5-0.9c-1.7,1.4-0.5,4.6-0.3,7.1c0.4,3.7,3.4,5.6,5.4,8.2c-0.3,3.7-3.7,4.3-5.9,6.1c-0.7,0.1-1.4,0-2-0.3
		c-5.9-3.8-6.3-9.7-6.3-15.9c0-3,0.7-6.3-3.1-8c-6.5-2.9-10.3-0.7-10.6,6.5c-0.1,3.1-0.1,6.2,0,9.3c-0.1,10-2.5,20-0.4,30.2
		c0.9,4.3,2.7,6.7,7.1,7.6c25.5,5.3,50.2,13.5,75.2,21c17.2,5.2,18.6,4.1,19.4-13.4c0.4-9.8-0.4-19.7,0.6-29.6
		c0.3-2.9-1.1-4.7-3.5-5.9c-2.2-1.1-4.6-1.8-6.7-3.1c-0.9-0.5-1.7-1.2-2.4-2.1C1545.7,819.5,1540.4,817.9,1540.9,813z"/>
	<path class="st1" d="M1357.3,703.2c-1.4-17.4,2.3-34.1,4.5-51c0.7-5.1,3.4-8.2,9-7.8c22.5,1.5,44.2,6.4,65.1,14.8
		c3.2,1.3,4.1,4,3.8,7.1c-1.9,26.3-1.9,52.8-6.1,78.9c-0.1,0.9-0.6,1.9-0.4,2.6c2.7,9-1.4,8.1-8.7,7.9c-19.9-0.6-38.8-5.4-57.8-10.6
		c-6.5-1.8-9.6-4.7-9.5-12.1C1357.2,723.1,1356.2,713,1357.3,703.2z"/>
	<path class="st1" d="M713.5,339.6c6.1-7.6,13.4-12.6,23.6-13.7c11.9-1.4,24.1,3.8,28.7,14.9c13.7,33.2,15.9,66.4-1.7,99.1
		c-6.1,11.3-14.3,20.2-28.3,20.8c-7,0.3-13.2-1.8-18.3-6.7c0.2-0.6,0.5-1.2,0.8-1.8c-6.8-2.7-6-10.7-10.7-14.9
		c-2.3-2-3.5-5.3-3.7-8.4c-1-15.8-4.2-31.4-3-47.3c0.5-6.8,2.5-13.2,6.1-18.9c2.1-3.3,4.3-6.9,9-7.1c2.3,3.2-0.1,6-1,8.8
		c-7.9,23.1-8.4,45.6,4.1,67.4c0.9,1.5,1.7,3.1,2.7,4.6c8.2,12.4,18.5,12.8,26.5,0.2c13-20.4,16.1-42.8,11.2-66.4
		c-1.3-6.1-2.8-12.2-5-18.1c-3.2-8.7-14.3-15.1-23.2-13.5c-2.6,0.5-4.2,2.5-5.8,4.3c-1.9,2.1-2.9,5.1-5.7,6.5
		c-3.6-1.4-3.4-6-6.4-7.8C712.9,340.7,713,340.1,713.5,339.6z"/>
	<path class="st2" d="M713.5,339.6c0,0.4,0,0.8,0,1.2c0.3,4.4-2.7,7.4-4.4,11c-7.3,15.4-11.7,31.3-11.5,48.5
		c0.2,15,4.7,28.5,12.1,41.3c2.3,4,4.8,7.9,6.5,12.1c-13.9,4.2-20.9,1.5-26.2-11.8c-8.6-21.3-13.4-43.1-3.9-65.7
		c1.7-4,2.1-8.6,3.1-13c2-9.5,5.4-18.1,14.8-22.6C706.9,339.3,710,337.7,713.5,339.6z"/>
	<path class="st5" d="M716.2,453.7c-28.3-34.1-25.8-76.4-2.7-112.9c4.9,0.8,5.3,4.4,5.3,8.3c1.3,3.2,0,5.2-3,6.5
		c-9.4,6.9-12.7,16.6-13.4,27.8c-1,15,2.6,29.7,2.9,44.6c0.1,3.9,2.2,7.2,4.9,10c2.1,2.1,4.1,4.3,4.3,7.4c0.2,4,1.7,5.3,5.5,3.9
		c1.2-0.5,2.8-1.2,3.4,0.5c0.5,1.6-1,2.2-2.3,2.7c-1.2,0.5-2.5,1-3.7,1.5C717,453.9,716.5,453.8,716.2,453.7z"/>
	<path class="st29" d="M317.2,735.3c-2.4-0.5-4.8-1-7.1-1.7c-3.3-0.9-6.9-1.1-6.8-6.3c0.1-2.5-2.8-4.3-5.3-5.6
		c-1.2-12.8,4.1-23.3,11.2-34c1.9,3-0.1,4.9-0.9,6.4c-5.5,9.8-5.2,20-3.4,30.6c0.6,3.4,3.1,3.3,5.3,4c3.4,1,3-1.9,3.4-3.5
		c1.5-7.3,2.9-14.7,5.4-21.9C320.1,714,319,724.7,317.2,735.3z"/>
	<path class="st95" d="M340,742c-3-1.5-6.6-0.6-9.4-2.6c3.3-0.3,2.8-2.8,2.9-5c0.3-4.7,0.6-9.4,0.9-14.1c0.1-1.4,0.3-2.8,2.1-2.9
		c2.2-0.1,2.4,1.5,2.5,3.2C339.4,727.7,339.7,734.8,340,742z"/>
	<path class="st1" d="M539.2,849.8c2.4,0,4.8,0.1,7.2-0.2c5.8-0.8,7.5,1.9,6.5,7.2c-0.4-5-2.9-7.1-8-6.2
		C543,850.9,540.9,851,539.2,849.8z"/>
	<path class="st0" d="M1471.8,762.1c-5.7-0.4-10.3-3.7-15.5-5.5c-2-0.7-2.3-2.5-2.2-4.4c0.3-2.9,0.4-5.8,1-8.6c1.5-7,2-14,1.2-21.3
		c-1.7-14.5,1.3-29,0.7-43.6c-0.1-3,1.4-3.3,3.7-2.9c28.7,5.5,58.4,5.1,86.6,13.9c0.3,0.4,0.6,0.7,0.6,1.2
		c0.8,10.4,0.4,10.8-9.8,9.2c-20.8-3.2-30,1.9-38.1,21.7c-1.9,4.6-4.3,7.8-9.3,9.7c-11.7,4.3-18.1,12.7-17.6,25.6
		C1473.2,758.9,1473.3,760.7,1471.8,762.1z"/>
	<path class="st4" d="M1471.8,762.1c-1.4-19.2,3.3-26.8,21.3-33.4c2.8-1,3.2-2.8,4-4.8c2.6-6.4,5.6-12.5,10.1-18
		c8.1-10,18.9-9.2,29.6-7.9c10.3,1.2,10.2,1.8,10.6-8.2c2.1,3.3,0.1,7.1,1.2,10.5c3,3.5,2.3,7.4,1.2,11.3
		c-4.8,4.4-10.1,3.2-15.3,1.1c-2.3-1.2-4.7-1.5-7.2-0.5c-7.1,1.6-7.5,8.8-11.1,13.3c-0.5,6.4-6.2,10.3-7.7,16.4
		c-0.7,3.1-3.4,0.7-5.1,0.4c-9.2-1.5-17,4.3-18.2,13.6c-0.6,4.8,0.8,8.6,5.5,10.6c0.3,0.4,0.3,0.8-0.1,1.2
		C1484.1,766.7,1477.8,764.9,1471.8,762.1z"/>
	<path class="st4" d="M1576.7,713.7c0,13.9,0.1,27.9,0.1,41.8c-4.1,6-3.4,12.8-3.5,19.5c0,6.5-1.2,12.5-7.1,16.4
		c-4-1.7-9.1-0.7-12.1-4.9c3.2-4.8,6.9-9.3,8.1-15.2c0.9-4.5,1.5-8.9-1.8-12.7c-2.1-2.4-1.6-5-0.6-7.5c4.5-11.1,4.7-22.1-1.3-32.8
		c-0.2-3.5,0.9-6.7,2.2-9.9c0.7-1.5,1.2-3.1,2.4-4.4C1570.3,703.5,1573.7,708.4,1576.7,713.7z"/>
	<path class="st8" d="M1516.9,749.9c-3.3-8.1,1.7-13.3,6.4-18.6c1.1-3.5,4.4-3.5,7.1-4.4c6.7-0.4,13.4-1.1,19.9,1.3
		c6.8,2.6,8.9,6.3,7.7,13.5c-2.5,14.7-10.3,21.3-25.7,21.9c-0.7-0.1-1.4-0.2-2-0.4c-2.1-0.9-4.1-2-6.1-3.1
		C1520.9,757.4,1517,754.9,1516.9,749.9z"/>
	<path class="st96" d="M1530.1,761.8c16.5,0.8,24.5-6.3,26.5-22.6c0.6-4.8-1.1-6.9-5.1-8.6c-7.1-3-14.3-3.1-21.8-2.2
		c-1.8-2-0.9-3.8,0.4-5.7c0.7-0.8,1.5-1.4,2.4-1.8c10.3-1,19.3,1.9,26.6,8.4c-0.6-1.2-1.2-3.1-2.2-4.8c-1-1.7-3-2.7-3.3-4.9
		c0.8-1.7,2.4-2,4-2.4c0.7,0,1.3,0.2,1.7,0.6c7.9,10.3,6.2,21.4,2.6,32.6c-1,3.2-2.6,5.3,1.2,8.5c3.8,3.1,2.2,8.5,1,12.7
		c-1.7,6-3.2,12.2-9.9,14.9c-1,0.1-2,1.3-2.9-0.2c-2.4-2.9-0.8-5.5,0.8-7.9c2.3-3.6,4-7.4,5-11.6c0.8-3.4-1.1-3.1-3.4-2.6
		c-0.7,0-1.3-0.1-1.9-0.3c-4.5-1.7-8.2,1.5-12.2,2C1535.7,766.3,1531.2,768.1,1530.1,761.8z"/>
	<path class="st2" d="M1552.6,763.4c0.4,0,0.8,0,1.2,0.1c3,2.9,3.1,4.5-0.4,7.5c-5.9,5.1-12.9,6.9-20.6,6.5
		c-4.7-0.2-9.6,0.1-12.6-4.6c-4.3-7-9.7-12.9-17.6-15.9c-0.1-1.4,0.1-2.8,0.6-4.1c0.8-1.7,1.3-3.6,2.2-5.3c2.2-0.5,2.8,1.5,4.1,2.5
		c2.5,1.4,3.4,4.1,4.9,6.2c7.1,10,16.2,13.2,27.9,10C1545.8,765.3,1548.9,763.4,1552.6,763.4z"/>
	<path class="st97" d="M1520.2,773c10.5,4.6,20.8,4.2,30.5-1.8c2.6-1.6,6.3-3.3,3.1-7.6c0.9-1.6,1.8-3.4,4-2.3
		c1.7,0.8,1.5,2.7,1.3,4.2c-0.7,5-2.4,9.6-5.5,13.5c-1.7,2.2-2.9,4.5-2.4,7.4c-9.7-1.1-18.5-5.6-27.8-8.1
		C1520.7,777.4,1520.8,775,1520.2,773z"/>
	<path class="st13" d="M1552.6,763.4c-17.9,11.5-36.6,5.8-43.1-13.3c2.4-2.8,4.9-0.5,7.4-0.2c2.6,3,5.1,6,7.7,9
		c1.1,2.4,3.4,2.6,5.5,3l0,0c4.2,5.8,9,1.6,13.7,0.9C1546.6,762.4,1550.1,757.8,1552.6,763.4z"/>
	<path class="st98" d="M1531.1,723.1c-0.9,1.7-1.6,3.4-1.4,5.3c-2.1,1-4.3,2-6.4,3c-3.8-0.3-6-2.5-7.3-5.9
		c1.3-6.6,2.9-12.9,10.8-14.5c2.3-0.9,4.7-0.9,7,0c4.8,1.4,9.5,2.3,14.5,0.9c2,1.4,2.4,3.4,1.9,5.7c-5.6,2.2-11.1,1.1-16.5-0.6
		c-3.6-0.2-7.1-0.4-9.1,3.5C1526.4,722.8,1529.6,720.8,1531.1,723.1z"/>
	<path class="st99" d="M1566.2,791.4c5.6-7.4,6-16,5.3-24.8c-0.4-4.9,0.8-8.8,5.3-11.2c0.2,12.8,0.3,25.6-1.5,38.7
		C1572.1,793.2,1569.2,792.3,1566.2,791.4z"/>
	<path class="st15" d="M1576.7,713.7c-4.4-3.2-7.6-8-13.2-9.5c-2-4.1-5.5-8.2,0.1-12.3c11.7,1.2,10.7-0.3,12.2,11.8
		C1576.3,707,1576.4,710.4,1576.7,713.7z"/>
	<path class="st100" d="M1490.6,767.7c0.1-0.4,0.2-0.8,0.1-1.2c10-6.2,19-3.3,27.1,9.7C1508.3,773.2,1499.4,770.5,1490.6,767.7z"/>
	<path class="st60" d="M1550,717.6c-0.5-1.9-1.1-3.8-1.6-5.7c-0.2-3.9-0.8-7.8,0.1-11.6c2.7-2.1,1-6.6,4.7-8.5
		c1.5,1.3,0.6,3.2,1.1,4.7c1.9,2,1.9,4.6,1.4,6.8c-1.3,5.2-0.4,9.8,2.5,14.2c-0.9,1.8-2.7,1.5-4.2,1.6
		C1551.9,720.4,1550.7,719.5,1550,717.6z"/>
	<path class="st101" d="M1558.1,717.5c-5.5-2.4-6.2-6.3-4.5-11.8c0.9-2.8,0.4-6.1,0.6-9.2c0.3-0.2,0.7-0.4,1-0.5
		c2.4,4.1,9.7,5.4,7,12.4c-0.9,3.1-1.9,6.2-2.8,9.3C1558.9,717.7,1558.5,717.6,1558.1,717.5z"/>
	<path class="st102" d="M1562.2,708.4c-0.1-2.7,0-5.6-3.4-6.3c-3.7-0.7-3.3-3.5-3.6-6.1c-0.4-8,4.6-4.8,8.4-4.1
		c-2.6,4.1,0.7,8.2-0.1,12.3C1563.2,705.6,1563.6,707.3,1562.2,708.4z"/>
	<path class="st103" d="M1504.5,752.9c-0.4,1.5,0.2,3.4-1.9,4.2c-3.4-0.9-6.8-0.3-10.3,0.6c-1-2.9,0.8-4.6,2.4-6.2
		C1498.4,749.1,1502,747.1,1504.5,752.9z"/>
	<path class="st104" d="M1504.5,752.9c-2.9-3-6.3-2.5-9.8-1.5c2.3-4.8,6.6-4.2,10.8-3.8C1507.2,749.8,1505.8,751.4,1504.5,752.9z"/>
	<path class="st0" d="M1363.3,765.3c13.3,4.2,27.7,2.7,41.5,7.4c24.6,8.3,25.4,8,25.9,33.5c0.3,14.7-0.7,29.5,2,44.1
		c-24.3,5-45.5-6.2-67.6-11.6c-4-1-5.3-2.9-5.4-7.3C1358.7,809.1,1359.1,787.1,1363.3,765.3z"/>
	<path class="st0" d="M1548.7,824c12.7,4.3,12.7,4.3,12.2,17.5c-0.5,12.3-1.1,24.6-1.6,36.9c-0.1,3.6-0.9,4.8-5.2,4.2
		c-19.9-2.5-38.1-11.3-57.5-15.8c-12-2.8-23.7-6.8-35.8-8.8c-3.7-0.6-4.4-2.6-5.2-5.8c-2.4-11.2-0.4-22.3,0.2-33.4
		c1.2-1.6-0.6-4.1,1.7-5.5c2.9,1.5,2.4,4.5,3,7c3.7,16.3,12.9,24.4,29.5,24.9c5.7,0.2,9.9,3.7,15.3,4.4c8.8,1.1,16.4-0.5,22.7-7.1
		c2.7-2.5,6-4,8.9-6.2c3.6-1.7,6-4.4,7.5-8.1C1545.2,826.3,1545.5,823.5,1548.7,824z"/>
	<path class="st4" d="M1529.7,842.8c-6.1,9.7-22.2,11.1-31,6.3c-2-1.1-3.8-2.3-6.2-2.1c-21,1.6-32.6-12.6-34.6-32.2
		c-0.7,1.4-1.3,2.7-2,3.9c0-2.7-0.1-5.4,0-8c0.7-11.8,0.7-11.6,12.6-9.7c4.2,0.7,5.2,2.2,4.5,6.1c-1.4,7.5,0.2,14.2,5.8,19.7
		c-0.2,7,2.7,11.5,9.8,12.8c1.3,0.2,2.4,1.1,3.6,1.8c8.3,5,16.9,6.2,26.2,2.5C1521.9,842.5,1525.7,840,1529.7,842.8z"/>
	<path class="st28" d="M1529.7,842.8c-4.6,0-8.8,1.8-12.9,3.3c-9.2,3.4-17.6,1.9-25.5-3.5c-2.1-1.4-4.4-2-6.8-2.6
		c-6.8-1.8-8.7-6.4-5.7-13.3c0.4-0.1,0.8-0.1,1.2-0.2c4.4-0.2,8.5-1.1,12.2-3.7c0.4-0.2,0.8-0.2,1.2,0c2.5,1.8,2.8,4.9,4.5,7.3
		c3.6,5.1,8.2,8.2,14.6,7.3c6.4-0.9,9.8-4.8,11.7-11.9c1-3.7,0-8.3,4.4-10.5c5.4,0.4,10.6,1.5,14.1,6.2c0,5.8,0.1,11.7-4.9,16
		C1535.1,839.2,1532.4,841,1529.7,842.8z"/>
	<path class="st105" d="M1500,824.1c-1.2-5-1.6-10-1.5-15.6c8.6,2.2,17.1,4.4,25.6,6.6c1.1,5.8-0.1,10.8-5.3,14.4
		c-4.7,1.1-9.3,2.5-14.3,1.5C1501.4,829.7,1499.2,827.9,1500,824.1z"/>
	<path class="st13" d="M1500,824.1c1.7,1.6,1.7,4.4,4,5.6c5.3,2.6,10.3,1.8,15.1-1.5c3.2-3.8,3-8.9,5.1-13.1
		c0.5-0.6,1.1-1.2,1.6-1.7c0.8,0.9,3.1,0.2,2.6,2.4c-2.6,2.4-1.7,5.8-2.3,8.8c-1.9,9.3-5.8,13.9-13.6,14.9
		c-7.1,1-14.4-3.8-17.7-11.5c-0.7-1.6-1-3.4-1.4-5.1C1496.2,819.4,1497.8,823.4,1500,824.1z"/>
	<path class="st97" d="M1485.3,821.6c-5.7-2-9.9-12.5-7-17c0.8-1.3,1.8-0.9,2.9-0.9c10.6,0,13.9,5.7,9.5,16.6
		C1489.2,822,1487.5,823,1485.3,821.6z"/>
	<path class="st13" d="M1528.3,815.8c-0.9-0.8-1.8-1.6-2.6-2.4c5-3.5,10.2,1.4,15.2-0.3l-0.1,0c2.4,3,6.2,5.1,6.4,9.6
		c-2.3,1.9-3.9,0.3-5.4-1.3C1537.8,818.6,1532.8,817.7,1528.3,815.8z"/>
	<path class="st106" d="M1541.9,821.4c1.8,0.4,3.6,0.9,5.4,1.3c0.5,0.4,1,0.9,1.5,1.3c-3.1,2-2.7,5.8-4.4,8.5
		c-1.6,2.5-3.6,4.3-6.6,4.8C1540.8,832.4,1539.9,826.5,1541.9,821.4z"/>
	<path class="st107" d="M1485.3,821.6c2,0.4,3.3-2.3,5.4-1.3c0.5,0.9,0.9,1.8,1.4,2.6c-2.7,5.7-7,6.2-12.2,3.7
		C1479.8,822.8,1483.6,823.3,1485.3,821.6z"/>
	<path class="st0" d="M1432.2,699.5c0.1,13.9-1.1,27.7-2,41.6c-0.3,5.4-2.1,6.4-7.2,6.2c-17.8-0.7-34.8-5.5-51.9-9.7
		c-3.6-0.9-5.4-2.1-5.6-6.5c-1-24.9-0.2-49.6,4.2-74.2c0.6-3.3,2.1-4.9,5.3-4.4c18.3,2.8,36.9,4.7,54.3,11.9
		c2.8,1.2,3.2,2.7,3.1,5.6C1431.9,679.8,1432.2,689.7,1432.2,699.5z"/>
	<path class="st0" d="M715.9,355.6c1.4-2,2.7-4,3-6.5c1.7-2.6,3.2-5.3,5.1-7.8c3.2-4.1,6.5-8.4,12.6-3.9c1,0.7,2.6,0.5,3.9,0.6
		c7.5,0.6,12.6,4.4,15.1,11.4c9.9,27.1,11.5,54.1-1.7,80.8c-2,4-4,8-7.2,11.3c-7.8,8.1-17.7,8-24.1-1.2
		c-12.3-17.5-17.9-36.9-14.1-58.5C710,372.9,713.3,364.3,715.9,355.6z"/>
	<path class="st108" d="M1533.9,711c-2.3,0-4.7,0-7,0C1529.3,709.5,1531.6,709.7,1533.9,711z"/>
	<path class="st109" d="M1545.8,740.6c0.1-1.2-1.2-2.7,0.2-3.7c1.4-1,2.4,0.3,3.3,1.2c1,1.1,1.9,2.4,2.9,3.6
		c0.7,0.8,1.8,1.7,0.8,2.8c-1.2,1.3-2.3,0.3-3.4-0.6c-1.3-1.2-2.7-2.3-4-3.5L1545.8,740.6z"/>
	<path class="st110" d="M1531,735c0,4.3-1.8,6.4-6.7,5.7c0.8-3.5,2.8-5.5,5.8-6.6C1530.7,734,1531,734.3,1531,735z"/>
	<path class="st55" d="M1545.7,740.5c1.3,5-2.8,5.6-6.6,8.4c0.8-5.5,3-7.5,6.8-8.3C1545.8,740.6,1545.7,740.5,1545.7,740.5z"/>
	<path class="st111" d="M1531,735c-0.2-0.4-0.5-0.7-0.9-0.9c0-1.5-2.2-3.5,1-4c1.5-0.2,3.7,0,3.9,1.5
		C1535.4,734.2,1532.2,733.6,1531,735z"/>
	<path class="st96" d="M1530.1,761.9c-2.7,0.5-4.9,0.3-5.5-3C1526.4,759.8,1528.2,760.9,1530.1,761.9z"/>
	<path class="st112" d="M1550,717.6c1.3,0.5,2.6,1,3.9,1.5c5.6,3.3,7.2,8.7,7.6,15.3c-7.6-9.7-17.7-12.3-28.9-12.4
		c-2.5-2.4-2.4-2.9,1.3-6.8C1538.9,718.4,1544.7,716,1550,717.6z"/>
	<path class="st113" d="M1533.9,715.3c0.2,2.4-3.2,4.1-1.3,6.8c-0.5,0.3-1,0.7-1.5,1c-3-0.6-5.7,0.6-8.5,1.4
		C1522.2,717.2,1525.2,714.8,1533.9,715.3z"/>
	<path class="st114" d="M1519,828.2c-5.4,6.3-8.2,6.6-15.1,1.5C1509.1,830.5,1514,828.1,1519,828.2z"/>
	<path class="st1" d="M747,383.2c-0.1,1.3,0.1,2.4-0.3,3.1c-4.8,7.7-6.2,15.5-1.9,24.1c1.2,2.5-1.2,5-4.2,5.8
		c-4.4,1.1-8.4,5.3-13.2,2.3c-2.7-1.7-1.8-4.6-0.9-7.3c1.5-4.8,2.2-8.7-3.3-12.4c-5.3-3.5-5.8-9.9-3.8-15.8
		c2.1-6.2,6.1-11.5,11.3-15.5c5.7-4.4,12.3-2.4,14.3,4.4C746,375.6,746.4,379.7,747,383.2z"/>
</g>
<g id="doorknob" class="st115">
	<path class="st116" d="M802.2,462.7c0,4.4,0,8.9,0,13.3c0,1,0.2,1.8,0.7,2.6c0.7,1,1.3,2.2,2,3.2c4.6,6.4,2.5,17.3-5.2,22.5
		c-8.9,6-18.8,8.7-29,10.4c-10.4,1.7-20.9,2.5-31.4,3.8c-8.8,1.1-17.6,2.1-26.4,2.7c-9.9,0.6-19.9,1.5-29.8,0.6
		c-2.2-0.2-4.4-0.7-6.6-1.3c-5.5-1.5-8.8-5-8.9-10.9c-0.2-6.6-1.6-13-3-19.4c-1-4.7-0.7-9.4-0.6-14.2c0.4-9.7,0.6-19.4-0.8-29.1
		c-1-7.5-1.7-14.9-2-22.5c-0.5-12.3-1.1-24.6-2-36.9c-0.3-3.5-0.4-7-0.4-10.6c-0.4-16.6-0.7-33.2-1.2-49.7
		c-0.3-10.2-1-20.4-2.1-30.5c-0.8-6.9-1.8-13.8-2.4-20.8c-0.5-5.3-1.2-10.6-0.8-16c0.5-7.4,4.9-12.2,11.4-15.1
		c4-1.8,8.5-2.5,12.7-3.9c5.6-1.8,11.1-3.8,16.9-4.7c5-0.8,10-1.3,15-1.5c9-0.4,17.7-2.5,26.4-5c6.9-2.1,13.8-3.5,21-3.7
		c2.7-0.1,5.3,0,8,0.6c3.7,0.8,6,3.1,7.1,6.8c4.5,15.1,7.3,30.5,10.1,45.9c2.4,12.9,5.2,25.6,7.5,38.5c2.3,12.6,4.8,25.2,6.4,38
		c1,7.8,1.6,15.5,2.2,23.3c1,14.2,1.4,28.4,2.2,42.5c0.3,5.6,1.4,11.2,2,16.8c0.4,3.6,0.7,7.2,0.8,10.9c0.1,4.5,0,9,0,13.5
		C801.9,462.7,802,462.7,802.2,462.7z M679.4,469.7c-0.1,1.5-0.2,2.9-0.2,4.4c-0.2,4.9-0.6,9.7,0.5,14.5c1.3,5.4,2.4,10.8,2.6,16.3
		c0,1.2,0.7,1.4,1.7,1.4c5.5,0.2,11,0.1,16.6-0.2c10.5-0.5,21-1.4,31.4-2.5c10.7-1.2,21.4-2.1,32-3.5c9.3-1.2,18.4-3.4,26.5-8.4
		c1.1-0.7,1.7-1.4,1.5-2.8c-0.4-2.8-0.6-5.7,0-8.5c0.3-1.5,0.8-3,0.5-4.6c-1.2-6.8-2-13.6-2.4-20.4c-0.4-6.7-0.7-13.3-1-20
		c0-0.8-0.1-1.5,0.4-2.1c0.8-0.9,0.7-1.9,0.6-2.9c-0.7-7-1.4-14-2.1-21c-0.1-0.8-0.1-1.6-0.7-2.2c-2.2-2.6-1.8-5.4-0.8-8.2
		c0.3-0.8,0.4-1.5,0.3-2.3c-0.5-5.5-1-11-1.5-16.5c-1-11-2.4-22-4.6-32.8c-4.4-21.3-8.9-42.5-13.2-63.8c-2.8-14.3-4.9-28.7-8.8-42.8
		c-0.4-1.4-0.9-1.8-2.3-1.8c-5.6,0.1-11,1.1-16.3,2.7c-10.1,3.1-20.3,5.6-31,6.2c-4.3,0.3-8.6,0.5-12.9,1.2
		c-9.4,1.7-18.2,5.6-27.4,7.9c-2.7,0.7-3.6,2.2-3.5,5c0.3,8.5,1.1,17,2.3,25.4c2.7,19,3.8,38.1,4.5,57.2c0.5,12.7,0.6,25.4,1.2,38.1
		c0.5,11.6,1.7,23.1,2.2,34.7c0.3,6.9,0.6,13.7,1.5,20.5C678.6,448.4,680.2,459,679.4,469.7z"/>
	<path class="st116" d="M695.3,398.2c0.4-13.9,3.1-27.2,8.5-40c2.4-5.6,4.7-11.2,8.1-16.3c3.5-5.3,7.6-10.1,13.4-13.1
		c2.1-1.1,4.4-1.8,6.7-2.1c2-0.2,3.9-0.5,5.9-1c3.4-1,6.8-0.6,10.2,0.7c9,3.3,15.2,9.2,18.3,18.4c1.6,4.7,3.1,9.5,4.3,14.3
		c2.8,11.5,4.9,23.2,4.4,35.1c-0.7,16.9-6,32.4-14.2,47c-3.7,6.6-9,11.8-16,14.9c-9.3,4-18.1,2.8-26.4-2.9
		c-6.2-4.2-9.7-10.5-12.9-16.9c-4.7-9.2-8.3-18.9-9.7-29.2C695.5,404.2,695.3,401.2,695.3,398.2z M762.4,389.1
		c-0.4-12.3-2.5-22.7-5.5-33c-1.4-4.8-2.5-9.9-6.5-13.5c-2.9-2.6-6.2-4.5-10.2-4.6c-3-0.1-5.9-0.6-8.3-2.6c-0.8-0.7-1.4-0.4-2.1,0
		c-3.8,2.2-6.5,5.5-8.5,9.2c-7.1,12.9-11.7,26.6-13.5,41.2c-1.7,13.4,0.5,26.1,6.2,38.3c2.7,5.7,5.3,11.5,9.6,16.2
		c4.9,5.5,12.5,7.1,19.1,2.3c2.3-1.7,4.2-3.6,5.8-6c3.5-5.2,6-10.9,8.2-16.8C760.3,409.4,762.8,398.8,762.4,389.1z"/>
	<path class="st116" d="M746,382.2c-0.1,4-0.9,7.3-3.5,10c-0.4,0.5-0.8,1-0.8,1.6c0,1.1-0.1,2-1.3,2.5c-0.4,0.2-0.6,0.7-0.3,1.4
		c1.2,2.9,2.4,5.8,3.5,8.8c1.5,4.2,0.4,6.7-3.8,8.3c-2.2,0.9-4.5,1.8-6.8,2.7c-0.3,0.1-0.6,0.2-0.8,0.3c-2,0.6-3.8,0.7-5.5-0.7
		c-1.7-1.5-1.7-3.4-1.2-5.4c0.6-2.7,1.2-5.3,1.9-8c0.4-1.5,0.2-2.4-1.4-3.2c-7.7-4.2-10.1-13-5.8-21.2c2.2-4.2,4.9-8,8.3-11.2
		c2.1-2,4.6-3.5,7.6-3.4c3.8,0.2,7.1,2.6,8,6.4C745,374.8,745.5,378.7,746,382.2z"/>
</g>
<g id="moon" class="st115">
	<path class="st116" d="M1064.1,584.3c-3.8,4.2-6.8,8.7-9.8,13.2c-3.5,5.4-7,10.7-9.6,16.6c-4.1,9.3-5.6,19-5.1,29.1
		c0.7,15.1,5.9,28.8,12.7,42c2.2,4.3,4.5,8.5,7.2,12.4c5.1,7.4,11.8,12.9,19.6,17.2c12.6,6.8,25.9,11.6,39.5,15.9
		c8.1,2.6,16.3,4.7,24.8,5.8c3.1,0.4,6.3,0.7,9.5,1c-0.1-0.8-0.7-1-1.1-1.4c-8.7-7.6-16.7-15.7-23.5-25.1c-3.6-5-6.1-10.7-9-16.1
		c-2.5-4.5-5-9.1-6.6-14c-1.5-4.7-2.1-9.6-2.7-14.5c-0.8-7.3-1.3-14.6-1.5-22c-0.3-9.9,2.3-19,7.4-27.5
		c6.6-11.1,13.6-21.9,22.1-31.5c0.7-0.8,1.4-1.2,2.5-1.2c5.8,0.1,11.7,0,17.5,0c0.5,0,0.9,0,1.8,0c-1.7,1.6-3.1,3-4.4,4.4
		c-11.6,12-20.8,25.7-28.5,40.5c-2,3.8-2.9,7.9-2.9,12.2c-0.1,9.5,0.4,19,1.5,28.4c0.5,4.4,1.7,8.7,3.7,12.6
		c3.2,6.1,6.2,12.4,9.7,18.4c4.5,7.8,10.8,14.3,17.3,20.5c3.8,3.6,7.7,7.1,11.7,10.5c4.9,4.1,10.3,7,16.5,8.5
		c2.8,0.7,4.8,2.4,5.5,5.3c0.8,3.2-0.3,5.8-2.9,7.7c-2.1,1.5-4.5,1.3-6.8,0.8c-4.8-1-9.6-1.2-14.4-1.6c-5.8-0.5-11.5-0.8-17.3-1.3
		c-25.2-2.2-48.4-11.1-71.1-21.5c-16.7-7.6-28.6-20.1-36.4-36.7c-4.2-8.9-8.1-17.9-10.4-27.5c-2-8.3-2.9-16.7-2.4-25.2
		c0.8-13.6,5.7-25.7,13.8-36.5c4.7-6.2,9.2-12.5,14.1-18.5c0.5-0.6,0.9-0.9,1.6-0.9C1059.7,584.3,1061.8,584.3,1064.1,584.3z"/>
	<path class="st116" d="M1090.7,702.8c-2.1,0-3.7-0.3-5.3-0.7c-5.9-1.6-7.9-6-7.6-11.2c0.1-1,0.2-2,0.5-2.9
		c1.6-5.8,7.4-8.3,12.8-5.4c2.6,1.3,4.4,3.4,6,5.7c0.3,0.4,0.5,0.7,1,1c1.5,0.9,2.2,2.3,2.1,4.1c-0.2,3.6-3.7,8-7,9.2
		C1092.1,702.7,1091.2,702.8,1090.7,702.8z M1083.3,690.7c0,2.7,0.8,4.4,2.5,5c1.4,0.5,2.8,0.8,4.3,0.9c2.3,0.1,4.9-3.7,3.6-5.6
		c-1.4-2.1-3.2-4.1-5.9-4.8c-1.9-0.5-3.2,0.2-4,1.9C1083.4,688.9,1083.3,689.8,1083.3,690.7z"/>
	<path class="st116" d="M1067.6,633.5c1.3,0.1,2.8,0.3,4.3,1.2c1.4,0.8,1.6,1.7,0.8,3c-0.3,0.4-0.2,0.6,0,1c1,2.5,0.2,5-2,6.7
		c-1.1,0.9-2.4,1.5-3.8,1.9c-4.3,1.5-8-1.5-7.6-6C1059.8,636.8,1063.1,633.5,1067.6,633.5z M1062.7,641.8c0,1.1,0.3,1.9,1.5,2.3
		c2,0.6,5.2-1.7,5.2-3.8c0-0.8,0.1-1.5,0.5-2.2c0.4-0.7,0.3-1-0.5-1.2C1065.4,635.9,1063.4,637.7,1062.7,641.8z"/>
	<path class="st116" d="M1098.9,601.8c0-3.6,2.9-5.7,6.3-4.4c1.8,0.7,3.3,1.9,5.2,2.5c1.4,0.4,1.5,1.9,1.3,3.3c-0.3,2.5-1.7,4-4,4.8
		c-2.4,0.8-4.6,0.3-6.5-1.3C1099.8,605.4,1098.9,603.8,1098.9,601.8z M1104.3,599.8c-0.9,0-1.6,0.2-1.7,1.3
		c-0.1,1.2,1.3,2.7,2.6,2.8c1.2,0.1,1.7-0.6,1.8-2.5C1107.1,600.7,1105.8,599.9,1104.3,599.8z"/>
	<path class="st116" d="M1085.9,667.4c-0.1,2.1-0.7,3.8-2.5,4.9c-1.9,1-3.8,0.6-5.5-0.5c-1.6-1.1-2.9-2.5-3.2-4.5
		c-0.4-2.5,1-4.5,3.5-4.7c1.8-0.1,3.7-0.3,5.5,0.8C1085.4,664.4,1085.8,665.8,1085.9,667.4z M1079.9,665.5c-0.6,0.4-1.9-0.4-2,1.1
		c0,1,2,2.8,3,2.7c0.8,0,0.8-0.5,0.8-1.1C1081.6,666.6,1080.9,665.4,1079.9,665.5z"/>
	<path class="st116" d="M1112.5,717.4c0-2.2,1.1-3.8,2.8-4.3c2.1-0.6,4.4,0.2,5.5,2.2c1.3,2.3,1.9,4.8,2.3,7.4
		c0.1,0.6,0.2,1.1,0.3,1.7c0.1,0.7-0.2,1.2-0.9,1.4c-0.7,0.1-1.2-0.3-1.2-0.9c0-1.5-0.9-1.5-2.1-1.6c-3.6-0.2-6.2-2.4-6.7-5.3
		C1112.5,717.7,1112.5,717.5,1112.5,717.4z M1119.9,719.5c-0.4-1.1-0.8-1.8-1.3-2.5c-0.5-0.7-1.3-1.2-2.1-0.5
		c-0.7,0.7-0.2,1.5,0.5,2.1C1117.7,719.2,1118.7,719.4,1119.9,719.5z"/>
	<path class="st116" d="M1082.3,613c0.7,0,1.3,0,2,0.1s1.1,0.5,1.3,1.2c0.1,0.7-0.1,1.3-0.8,1.5c-0.8,0.3-0.6,0.8-0.7,1.4
		c0,2.1-1.2,3.4-2.9,4.4c-1.4,0.8-2.8,0.7-4.1-0.3c-1.5-1.1-2.1-2.7-1.8-4.5c0.4-2,1.9-3,3.7-3.5
		C1080.1,613.1,1081.2,613,1082.3,613z"/>
	<path class="st116" d="M1072.2,597.8c-2.6-0.2-4.6-1.8-5.3-4.2c-0.6-2,0.2-4.1,2-5.5c1.8-1.4,4-0.8,4.9,1.3
		c0.3,0.7,0.4,1.5,0.6,2.2c0.1,0.3,0.1,0.7,0.5,0.9c1.6,1,1.8,2.6,0.4,4C1074.5,597.5,1073.3,597.8,1072.2,597.8z M1072.4,593.3
		c-0.2-0.8-0.3-1.7-0.7-2.6c-0.2-0.3-0.5-0.7-0.9-0.2c-0.5,0.5-0.9,1.1-0.6,1.9c0.3,0.7,0.7,1.3,1.5,1.5
		C1072.1,594,1072.6,594,1072.4,593.3z"/>
</g>
<g id="speech1">
	<g class="st117">
		<path d="M239.8,173.3c-9.7,6.4-56.1,38.5-73.7,92.8c-22.2,68.5,19.6,116.2,28,125.4c8,8.7,28.9,30.5,67.5,40.3
			c89.6,22.7,187.8-41.7,219.1-76c25.1-27.5,34.8-50.4,34.8-50.4c2-4.6,10.6-25.9,10.6-25.9l0,0c11.4,1.2,29.2,1.7,50.6-3.3
			c21-4.9,42.9-14.4,42.5-18.2c-0.4-3.6-28.7,5.7-64-2.2c-10.3-2.3-32.5-8.6-32.5-8.6c-2.4-8-27.5-86.9-120.7-105.3
			C388,139.2,311.4,125.7,239.8,173.3z"/>
		<path class="st118" d="M239.8,173.3c-9.7,6.4-56.1,38.5-73.7,92.8c-22.2,68.5,19.6,116.2,28,125.4c8,8.7,28.9,30.5,67.5,40.3
			c89.6,22.7,187.8-41.7,219.1-76c25.1-27.5,34.8-50.4,34.8-50.4c2-4.6,10.6-25.9,10.6-25.9l0,0c11.4,1.2,29.2,1.7,50.6-3.3
			c21-4.9,42.9-14.4,42.5-18.2c-0.4-3.6-28.7,5.7-64-2.2c-10.3-2.3-32.5-8.6-32.5-8.6c-2.4-8-27.5-86.9-120.7-105.3
			C388,139.2,311.4,125.7,239.8,173.3z"/>
	</g>
	<g>
		<path class="st119" d="M235.8,161.3c-9.7,6.4-56.1,38.5-73.7,92.8c-22.2,68.5,19.6,116.2,28,125.3c8,8.7,28.9,30.5,67.5,40.3
			c89.6,22.7,187.8-41.7,219.1-76c25.1-27.5,34.8-50.4,34.8-50.4c1.9-4.6,10.6-25.9,10.6-25.9l0,0c11.4,1.2,29.2,1.7,50.6-3.3
			c21-4.9,42.9-14.4,42.5-18.2c-0.4-3.6-28.7,5.7-64-2.2c-10.3-2.3-32.5-8.6-32.5-8.6c-2.4-8-27.5-86.9-120.7-105.3
			C384,127.2,307.4,113.7,235.8,161.3z"/>
		<path class="st118" d="M235.8,161.3c-9.7,6.4-56.1,38.5-73.7,92.8c-22.2,68.5,19.6,116.2,28,125.3c8,8.7,28.9,30.5,67.5,40.3
			c89.6,22.7,187.8-41.7,219.1-76c25.1-27.5,34.8-50.4,34.8-50.4c1.9-4.6,10.6-25.9,10.6-25.9l0,0c11.4,1.2,29.2,1.7,50.6-3.3
			c21-4.9,42.9-14.4,42.5-18.2c-0.4-3.6-28.7,5.7-64-2.2c-10.3-2.3-32.5-8.6-32.5-8.6c-2.4-8-27.5-86.9-120.7-105.3
			C384,127.2,307.4,113.7,235.8,161.3z"/>
	</g>
	<text transform="matrix(0.947 -0.3211 0.3211 0.947 242.9198 242.1515)" class="st120 st121">son?</text>
	<text transform="matrix(0.947 -0.3211 0.3211 0.947 260.4466 287.3342)" class="st120 st121">open</text>
	<text transform="matrix(0.947 -0.3211 0.3211 0.947 297.3992 325.9405)" class="st120 st121">the</text>
	<text transform="matrix(0.947 -0.3211 0.3211 0.947 279.7737 383.0423)" class="st120 st121">door!</text>
</g>
<g id="speech2">
	<g class="st117">
		<ellipse class="st122" cx="1140.7" cy="322.4" rx="143.5" ry="139"/>
		<ellipse class="st123" cx="1280.3" cy="210.6" rx="23.1" ry="23.5"/>
		<ellipse class="st123" cx="1333" cy="219.9" rx="13.9" ry="14.1"/>
		<ellipse class="st123" cx="1368.6" cy="227.9" rx="10.1" ry="10.2"/>
	</g>
	<g>
		<g>
			<ellipse class="st124" cx="1136.7" cy="310.4" rx="143.5" ry="139"/>
			<ellipse class="st125" cx="1276.3" cy="198.6" rx="23.1" ry="23.5"/>
			<ellipse class="st125" cx="1329" cy="207.9" rx="13.9" ry="14.1"/>
			<ellipse class="st125" cx="1364.6" cy="215.9" rx="10.1" ry="10.2"/>
		</g>
	</g>
	<text transform="matrix(1 0 0 1 1051.6968 247.2903)" class="st120 st126">my own</text>
	<text transform="matrix(1 0 0 1 1060.2767 289.2903)" class="st120 st126">family</text>
	<text transform="matrix(1 0 0 1 1045.9968 331.2903)" class="st120 st126">doesnt</text>
	<text transform="matrix(1 0 0 1 1052.8568 373.2903)" class="st120 st126">accept</text>
	<text transform="matrix(1 0 0 1 1085.9368 415.2903)" class="st120 st126">me...</text>
</g>
<g id="speech3">
	<g class="st117">
		
			<ellipse transform="matrix(0.3823 -0.924 0.924 0.3823 234.3866 2096.5754)" class="st127" cx="1685.4" cy="873" rx="68.8" ry="81.6"/>
		
			<ellipse transform="matrix(0.3823 -0.924 0.924 0.3823 277.4386 1997.9818)" class="st128" cx="1633.2" cy="791.5" rx="11.6" ry="13.2"/>
		
			<ellipse transform="matrix(0.3823 -0.924 0.924 0.3823 265.8637 1966.2748)" class="st128" cx="1603.7" cy="784.3" rx="7" ry="7.9"/>
		
			<ellipse transform="matrix(0.3823 -0.924 0.924 0.3823 257.1835 1945.0837)" class="st128" cx="1583.5" cy="780.2" rx="5.1" ry="5.7"/>
	</g>
	<g>
		<g>
			
				<ellipse transform="matrix(0.3823 -0.924 0.924 0.3823 243.0052 2085.4685)" class="st129" cx="1681.4" cy="861" rx="68.8" ry="81.6"/>
			
				<ellipse transform="matrix(0.3823 -0.924 0.924 0.3823 286.0567 1986.8746)" class="st130" cx="1629.2" cy="779.5" rx="11.6" ry="13.2"/>
			
				<ellipse transform="matrix(0.3823 -0.924 0.924 0.3823 274.482 1955.1676)" class="st130" cx="1599.7" cy="772.3" rx="7" ry="7.9"/>
			
				<ellipse transform="matrix(0.3823 -0.924 0.924 0.3823 265.8019 1933.9767)" class="st130" cx="1579.5" cy="768.2" rx="5.1" ry="5.7"/>
		</g>
	</g>
	<text transform="matrix(0.9798 0.2001 -0.2001 0.9798 1631.2401 836.4146)" class="st120 st131">...what</text>
	<text transform="matrix(0.9798 0.2001 -0.2001 0.9798 1622.9274 862.275)" class="st120 st131">do i do</text>
	<text transform="matrix(0.9798 0.2001 -0.2001 0.9798 1631.9081 891.6671)" class="st120 st131">now?</text>
</g>
</svg>
